<?xml version="1.0" standalone="no"?>
<!DOCTYPE svg PUBLIC "-//W3C//DTD SVG 1.1//EN" "http://www.w3.org/Graphics/SVG/1.1/DTD/svg11.dtd" >
<svg xmlns="http://www.w3.org/2000/svg" xmlns:xlink="http://www.w3.org/1999/xlink" version="1.1">
<metadata>
Created by FontForge 20201107 at Thu Nov 18 14:01:01 2021
 By 
Copyright 2015 The Yrsa-Rasa Project Authors (https://github.com/rosettatype/yrsa-rasa/)
</metadata>
<defs>
<font id="Yrsa-SemiBold" horiz-adv-x="0" >
  <font-face 
    font-family="Yrsa SemiBold"
    font-weight="600"
    font-stretch="normal"
    units-per-em="1000"
    panose-1="2 2 5 3 6 4 0 0 0 0"
    ascent="728"
    descent="-272"
    x-height="421"
    cap-height="572"
    bbox="-219 -220 1078 956"
    underline-thickness="37"
    underline-position="-98"
    unicode-range="U+000D-27E9"
  />
<missing-glyph horiz-adv-x="643" 
d="M64 515h515v-515h-515v515zM484 135l-126 123l128 121l-43 43l-121 -128l-121 128l-42 -41l126 -123l-128 -121l43 -43l121 128l121 -128z" />
    <glyph glyph-name="f_i" unicode="fi" horiz-adv-x="570" 
d="M509 54l40 -7v-47h-224v47l36 7q18 3 18 22v260q0 8 -5 14.5t-17 6.5h-154v-282q0 -18 19 -20l53 -8v-47h-243v47l40 7q18 3 18 21v280l-64 10v45l67 11v17q0 39 17.5 77.5t47.5 70t66.5 50t74.5 18.5q51 0 91.5 -17t77.5 -40l-25 -68q-36 12 -78 22.5t-77 10.5
q-37 -1 -61.5 -17t-24.5 -68v-56h127q29 0 65 5t81 5l16 -14v-341q0 -19 18 -22z" />
    <glyph glyph-name="f_j" unicode="fj" horiz-adv-x="555" 
d="M292 -195l-21 48q43 24 66 48t32.5 55.5t9.5 77.5v302q0 8 -5 14.5t-17 6.5h-154v-282q0 -18 19 -20l53 -8v-47h-243v47l40 7q18 3 18 21v280l-64 10v45l67 11v17q0 39 17.5 77.5t47.5 70t66.5 50t74.5 18.5q51 0 91.5 -17t77.5 -40l-25 -68q-36 12 -78 22.5t-77 10.5
q-37 -1 -61.5 -17t-24.5 -68v-56h127q29 0 65 5t81 5l16 -15v-377q0 -47 -6.5 -79t-19.5 -53.5t-34 -38.5q-27 -23 -63.5 -37.5t-75.5 -25.5z" />
    <glyph glyph-name="f_t" unicode="ft" horiz-adv-x="644" 
d="M32 0v47l40 7q18 3 18 21v280l-64 10v45l67 11v23q0 36 15.5 73.5t42 68t59.5 49.5t68 19q26 0 50.5 -10.5t44.5 -27.5l-18 -64q-21 5 -42 7.5t-34 2.5q-38 -1 -57.5 -17t-19.5 -68v-56h204v-64h-203v-282q0 -18 19 -20l75 -8v-47h-265zM499 -6q-36 0 -62.5 10.5
t-41.5 37t-15 74.5v254l-16 51q13 0 18 4t8 13l36 106h64l3 -123h121v-62h-119v-215q0 -44 13 -59.5t39 -15.5q17 0 35 6t32 20l24 -26q-18 -38 -55 -56.5t-84 -18.5z" />
    <glyph glyph-name=".notdef" horiz-adv-x="643" 
d="M64 515h515v-515h-515v515zM484 135l-126 123l128 121l-43 43l-121 -128l-121 128l-42 -41l126 -123l-128 -121l43 -43l121 128l121 -128z" />
    <glyph glyph-name=".null" 
 />
    <glyph glyph-name="nonmarkingreturn" horiz-adv-x="333" 
 />
    <glyph glyph-name="CR" unicode="&#xd;" 
 />
    <glyph glyph-name="space" unicode=" " horiz-adv-x="197" 
 />
    <glyph glyph-name="exclam" unicode="!" horiz-adv-x="258" 
d="M95 180l-29 355v71h126v-71l-29 -355h-68zM129 -6q-30 0 -48 16.5t-18 42.5q0 27 18 43.5t48 16.5q29 0 47 -16.5t18 -43.5q0 -26 -18 -42.5t-47 -16.5z" />
    <glyph glyph-name="quotedbl" unicode="&#x22;" horiz-adv-x="396" 
d="M47 625h103l-18 -305h-68zM247 625h103l-18 -305h-68z" />
    <glyph glyph-name="numbersign" unicode="#" horiz-adv-x="540" 
d="M113 128h-77v60h84l14 131h-86v58h94l13 122h85l-12 -122h107l13 122h85l-13 -122h85l-1 -58h-92l-13 -131h89l1 -60h-97l-13 -128h-86l13 128h-108l-13 -128h-86zM311 188l15 131h-107l-13 -131h105z" />
    <glyph glyph-name="dollar" unicode="$" horiz-adv-x="440" 
d="M243 19v-95h-52v95h52zM205 578h53v-93h-53v93zM407 150q0 -36 -19.5 -69.5t-62 -54.5t-111.5 -21q-53 0 -99.5 12.5t-75.5 26.5q-2 34 1 70.5t7 64.5h65l13 -75q2 -8 5.5 -13t8.5 -10q13 -11 33.5 -18t48.5 -7q36 0 56 16.5t20 43.5q0 35 -33.5 56t-82.5 44
q-38 18 -68 37t-48 45t-18 63q0 56 45.5 96t138.5 40q39 0 79 -7.5t69 -19.5q5 -65 -7 -128h-64l-15 68q-1 8 -4 14t-10 10q-9 7 -24.5 11t-34.5 4q-35 0 -52 -15t-17 -38q0 -24 15 -39t41 -28t61 -29q42 -20 73 -40.5t48.5 -46.5t17.5 -63z" />
    <glyph glyph-name="percent" unicode="%" horiz-adv-x="670" 
d="M143 0l306 502h78l-306 -502h-78zM154 226q-61 0 -95 37.5t-34 97.5q0 49 19 81t50 48.5t68 16.5q62 0 95.5 -37t33.5 -98q0 -48 -19 -80.5t-50 -49t-68 -16.5zM161 271q22 0 33.5 22t11.5 68q0 50 -13 76t-39 26q-21 0 -32 -22.5t-11 -68.5q0 -50 12.5 -75.5t37.5 -25.5
zM509 -5q-62 0 -96 37t-34 98q0 48 19 80.5t50 49t68 16.5q63 0 96.5 -37.5t33.5 -97.5q0 -49 -19 -81t-50.5 -48.5t-67.5 -16.5zM515 39q23 0 34 22.5t11 68.5q0 50 -13 75.5t-38 25.5q-22 0 -33 -22t-11 -68q0 -50 12.5 -76t37.5 -26z" />
    <glyph glyph-name="ampersand" unicode="&#x26;" horiz-adv-x="612" 
d="M544 257q-9 -2 -11 -7t-4 -15q-8 -45 -30.5 -84.5t-69.5 -69.5l-25 -30q-30 -31 -76 -46t-96 -15q-53 0 -95.5 15t-67 47.5t-24.5 83.5q0 39 13 66t34.5 44t45.5 26.5t45 15.5l59 35q38 28 56.5 65t18.5 75q0 39 -14 58.5t-38 19.5q-29 0 -45 -22t-16 -59q0 -27 13 -57
t53 -84q22 -29 53 -67t65 -75t63 -65q25 -24 43 -35.5t37 -15t47 -3.5v-49q-19 -7 -44 -11t-47 -4q-32 0 -62.5 13.5t-71.5 49.5q-31 28 -64.5 64.5t-61.5 72t-47 59.5q-37 50 -59.5 93.5t-22.5 88.5q0 43 21 76t59 51.5t90 18.5q70 0 108 -33.5t38 -92.5q0 -56 -38 -97.5
t-113 -62.5l-48 -30q-15 -14 -30.5 -28.5t-25.5 -34t-10 -50.5q0 -49 29.5 -79.5t82.5 -30.5q26 0 55 9t55 33l36 25q27 26 37.5 61t10.5 64q0 9 -2.5 15t-11.5 8l-57 12v49h197v-49z" />
    <glyph glyph-name="quotesingle" unicode="'" horiz-adv-x="197" 
d="M47 625h103l-18 -305h-68z" />
    <glyph glyph-name="parenleft" unicode="(" horiz-adv-x="268" 
d="M217 -200q-10 8 -31 30t-47 59t-50 89.5t-40 121.5t-16 154q0 99 22.5 177t55 135.5t62.5 93t44 46.5l37 -37q-14 -21 -33 -56.5t-38 -85t-31 -114.5t-13 -148q0 -91 12.5 -161.5t31.5 -123t38.5 -88t32.5 -55.5z" />
    <glyph glyph-name="parenright" unicode=")" horiz-adv-x="268" 
d="M235 251q0 -99 -22.5 -177.5t-55 -135.5t-62.5 -91.5t-44 -46.5l-37 37q14 21 33 55.5t38 84.5t31 115.5t13 147.5q0 91 -12.5 162t-31.5 123t-38.5 87.5t-32.5 56.5l37 37q9 -8 30.5 -30.5t47.5 -59.5t50 -89.5t40 -121.5t16 -154z" />
    <glyph glyph-name="asterisk" unicode="*" horiz-adv-x="442" 
d="M236 446l23 -85l8 -68h-92l8 68l23 85v52l-23 85l-8 69h92l-8 -69l-23 -85v-52zM251 472l85 -22l63 -28l-46 -79l-55 40l-62 63l-45 26l-85 22l-63 28l46 79l55 -40l62 -63zM206 446l-62 -63l-55 -40l-46 79l63 28l85 22l45 26l62 63l55 40l46 -79l-63 -28l-85 -22z" />
    <glyph glyph-name="plus" unicode="+" horiz-adv-x="435" 
d="M178 70v81l3 57l-57 -2h-76v72h76l57 -3l-3 57v82h79v-82l-3 -57l57 3h76v-72h-76l-57 2l3 -57v-81h-79z" />
    <glyph glyph-name="comma" unicode="," horiz-adv-x="225" 
d="M54 -163l-22 29q28 25 45.5 54.5t17.5 55.5q0 16 -6.5 20.5t-15.5 10.5q-11 8 -20.5 21.5t-9.5 33.5q0 28 17.5 45t46.5 17q32 0 53.5 -25t21.5 -70q0 -42 -18 -79t-47 -66t-63 -47z" />
    <glyph glyph-name="hyphen" unicode="-" horiz-adv-x="380" 
d="M51 254h278v-74h-278v74z" />
    <glyph glyph-name="period" unicode="." horiz-adv-x="222" 
d="M178 56q0 -29 -18.5 -45.5t-48.5 -16.5t-48.5 16.5t-18.5 45.5q0 28 18.5 45t48.5 17t48.5 -17t18.5 -45z" />
    <glyph glyph-name="slash" unicode="/" horiz-adv-x="368" 
d="M22 -105l234 738h91l-233 -738h-92z" />
    <glyph glyph-name="zero" unicode="0" horiz-adv-x="498" 
d="M247 460q45 0 64 -52.5t19 -169.5q0 -68 -8.5 -111.5t-26 -64t-44.5 -20.5q-45 0 -63.5 53.5t-18.5 170.5q0 68 8.5 110.5t26 63t43.5 20.5zM243 -10q63 0 111 30t74.5 89.5t26.5 148.5q0 74 -19.5 131.5t-63 90t-116.5 32.5q-63 0 -111 -29.5t-75 -88.5t-27 -149
q0 -73 19.5 -131t63.5 -91t117 -33z" />
    <glyph glyph-name="one" unicode="1" horiz-adv-x="383" 
d="M258 79q0 -18 18 -21l72 -12v-46h-305v46l85 13q9 1 14.5 6t5.5 15v319q-11 -3 -28.5 -6t-36.5 -5t-33 -3l-9 49q28 7 58.5 19.5t57 28t43.5 30.5l58 -10v-423z" />
    <glyph glyph-name="two" unicode="2" horiz-adv-x="449" 
d="M212 73q19 0 41 1.5t39 5.5q14 3 18.5 7t7.5 12l31 69l59 -7q0 -38 -4 -81.5t-12 -79.5h-347l-22 61q66 57 111.5 98.5t73.5 73.5t41 58.5t13 52.5q0 38 -22 60.5t-56 22.5q-31 0 -57 -17.5t-42 -44.5l-33 22q5 34 28.5 62.5t60 45t81.5 16.5q70 0 116.5 -38t46.5 -109
q0 -52 -31.5 -99.5t-96.5 -98t-167 -114.5v21h122z" />
    <glyph glyph-name="three" unicode="3" horiz-adv-x="429" 
d="M196 -10q-67 0 -109.5 24.5t-57.5 54.5l27 32q20 -17 49 -29t62 -12q45 0 74.5 23t29.5 66q0 38 -21.5 60.5t-59.5 27.5q-12 -2 -27.5 -5.5t-27.5 -5.5l-13 51q33 7 61.5 20t46 33t17.5 48q0 26 -17 43t-50 17q-31 0 -56 -14t-42 -35l-29 24q8 25 30 47.5t57 37t79 14.5
q64 0 105 -32t41 -83q0 -33 -16 -59t-42 -43.5t-58 -26.5q34 1 67 -11t55 -39.5t22 -72.5q0 -48 -26 -83t-70.5 -53.5t-100.5 -18.5z" />
    <glyph glyph-name="four" unicode="4" horiz-adv-x="456" 
d="M9 143q53 85 101.5 175t94.5 188h100l16 -22q-52 -98 -92 -167.5t-78 -116.5t-85 -77l-17 21l387 18v-71h-402zM252 141l14 127l92 5v-273h-106v141z" />
    <glyph glyph-name="five" unicode="5" horiz-adv-x="432" 
d="M166 60q49 0 79.5 29t30.5 79q0 45 -23.5 69t-65.5 24q-26 0 -47.5 -8t-38.5 -20l-40 27l19 242h290l-10 -83h-217l-13 -121q21 14 49 21t56 7q71 0 116.5 -39.5t45.5 -113.5q0 -54 -25.5 -95t-71 -64.5t-107.5 -23.5q-60 0 -103 23.5t-60 57.5l27 30q22 -18 50.5 -29.5
t58.5 -11.5z" />
    <glyph glyph-name="six" unicode="6" horiz-adv-x="471" 
d="M239 -10q-91 0 -143.5 57.5t-52.5 178.5q0 88 33 152t89 99t126 35q41 0 73.5 -11.5t49.5 -30.5l-20 -40q-15 7 -35.5 12t-41.5 5q-70 0 -111.5 -52.5t-41.5 -156.5v-26q0 -77 21.5 -123t63.5 -46q34 0 54.5 30t20.5 83q0 51 -21 77.5t-60 26.5q-21 0 -48 -8.5t-44 -23.5
l-4 32q16 26 53 45.5t89 19.5q72 0 110 -41t38 -107q0 -60 -27 -102t-72 -63.5t-99 -21.5z" />
    <glyph glyph-name="seven" unicode="7" horiz-adv-x="419" 
d="M229 431q-25 0 -47.5 -2t-35.5 -5q-11 -3 -15.5 -7t-8.5 -13l-29 -84h-59q-3 46 -1 93.5t8 88.5h340l27 -59q-46 -61 -81.5 -126.5t-57.5 -143t-28 -173.5h-104l-16 19q5 79 35.5 154t77.5 141.5t101 116.5h-106z" />
    <glyph glyph-name="eight" unicode="8" horiz-adv-x="472" 
d="M37 123q0 54 40 92.5t105 46.5l38 -20q-39 -15 -59.5 -44t-20.5 -65q0 -46 29.5 -69t67.5 -23q39 0 60 21t21 49q0 27 -16.5 45t-44 33t-59.5 31q-30 15 -61.5 35.5t-53 49t-21.5 68.5q0 61 48.5 100t129.5 39q77 0 123 -31.5t46 -86.5q0 -32 -18 -59.5t-48.5 -45.5
t-67.5 -23l-36 19q40 17 55 45.5t15 54.5q0 38 -21 58t-54 20q-32 0 -50 -17t-18 -44q0 -38 34 -61.5t82 -45.5q37 -17 72 -37.5t58 -50t23 -72.5q0 -45 -26 -77.5t-72.5 -50t-106.5 -17.5q-57 0 -100.5 15t-68 45t-24.5 73z" />
    <glyph glyph-name="nine" unicode="9" horiz-adv-x="471" 
d="M232 512q91 0 143 -57.5t52 -177.5q0 -88 -32.5 -152.5t-88.5 -99.5t-127 -35q-41 0 -73.5 11.5t-49.5 30.5l20 40q16 -7 36 -12t41 -5q71 0 112.5 53t41.5 156v27q0 76 -21.5 122t-63.5 46q-34 0 -54.5 -30t-20.5 -83q0 -51 20.5 -77.5t59.5 -26.5q22 0 48.5 8.5
t44.5 23.5l4 -32q-17 -26 -54 -45t-89 -19q-71 0 -109.5 41t-38.5 107q0 59 27 101t72.5 63.5t99.5 21.5z" />
    <glyph glyph-name="colon" unicode=":" horiz-adv-x="241" 
d="M187 358q0 -27 -18 -44t-48 -17q-31 0 -49 17t-18 44q0 29 18 46t49 17q30 0 48 -17t18 -46zM187 56q0 -29 -18 -45.5t-48 -16.5q-31 0 -49 16.5t-18 45.5q0 28 18 45t49 17q30 0 48 -17t18 -45z" />
    <glyph glyph-name="semicolon" unicode=";" horiz-adv-x="248" 
d="M67 -163l-22 29q28 25 46 54.5t18 55.5q0 16 -6.5 20.5t-16.5 10.5q-11 8 -20 21.5t-9 33.5q0 28 17.5 45t45.5 17q33 0 54 -25t21 -70q0 -42 -18 -79t-47 -66t-63 -47zM190 359q0 -28 -18.5 -45t-48.5 -17q-31 0 -48.5 17t-17.5 45t17.5 45t48.5 17q30 0 48.5 -17
t18.5 -45z" />
    <glyph glyph-name="less" unicode="&#x3c;" horiz-adv-x="435" 
d="M351 55l-305 156v61l305 156l33 -72l-262 -121v16l262 -123z" />
    <glyph glyph-name="equal" unicode="=" horiz-adv-x="435" 
d="M48 284v74h339v-74h-339zM48 126v73h339v-73h-339z" />
    <glyph glyph-name="greater" unicode="&#x3e;" horiz-adv-x="435" 
d="M85 55l-34 73l262 121v-14l-262 121l34 71l305 -155v-61z" />
    <glyph glyph-name="question" unicode="?" horiz-adv-x="411" 
d="M147 180q-9 17 -18.5 41t-9.5 45q0 29 19.5 50.5t51.5 48.5q40 33 59 62.5t19 63.5q0 32 -18.5 52.5t-50.5 20.5q-16 0 -31 -6t-24 -16q-7 -8 -9.5 -16.5t-4.5 -20.5l-10 -79h-67q-11 32 -18 68t-8 72q28 23 74.5 39t95.5 16q55 0 97 -21t67 -57t25 -81q0 -37 -16 -65.5
t-42 -51.5t-57 -45q-23 -17 -33.5 -26t-13 -17t-5.5 -24l-8 -53h-64zM181 -6q-30 0 -47.5 16.5t-17.5 42.5q0 27 17.5 43.5t47.5 16.5q29 0 47 -16.5t18 -43.5q0 -26 -18 -42.5t-47 -16.5z" />
    <glyph glyph-name="at" unicode="@" horiz-adv-x="778" 
d="M342 -184q-89 0 -156 37t-104 108t-38 171q-2 97 30 178t89.5 141t132.5 93.5t161 33.5q83 0 148.5 -32.5t103.5 -95t38 -152.5q0 -74 -24 -131t-60 -96.5t-74.5 -59.5t-67.5 -20q-59 0 -59 83q0 22 4 55.5t8 63.5l6 -1q-25 -104 -61.5 -154t-92.5 -50q-53 0 -83.5 44.5
t-30.5 117.5q0 68 26 124.5t73.5 89.5t111.5 33q25 0 53.5 -5t55.5 -15l-34 -63q-17 15 -39 23.5t-43 8.5q-38 0 -61.5 -26.5t-35 -66.5t-11.5 -84q0 -45 12.5 -74.5t36.5 -29.5q28 0 55 41.5t47 113.5q9 37 14.5 71t8.5 63l85 46l18 -16q-6 -33 -12 -74t-12 -82.5t-9.5 -76
t-3.5 -55.5q0 -18 4 -24.5t14 -6.5q20 0 46 24t45.5 70.5t19.5 114.5q0 82 -34 136.5t-90 81t-124 26.5q-69 0 -125.5 -25.5t-97.5 -73t-63 -112.5t-22 -143q0 -94 31 -158t86.5 -97t127.5 -33q39 0 81.5 9t68.5 24l18 -39q-33 -25 -84 -39.5t-108 -14.5z" />
    <glyph glyph-name="A" unicode="A" horiz-adv-x="577" 
d="M148 225h233l20 -56h-269zM515 77q4 -14 21 -18l44 -12v-47h-254v47l71 13l-151 467h30l-145 -467l70 -13v-47h-205v47l48 12q15 4 20 18l168 497h112z" />
    <glyph glyph-name="B" unicode="B" horiz-adv-x="568" 
d="M497 443q0 -65 -37.5 -102.5t-99.5 -41.5v6q50 4 89.5 -10.5t62.5 -45.5t23 -80t-21.5 -88.5t-74 -62t-144.5 -22.5q-37 0 -63 2t-63 2h-134v47l59 11q16 3 16 19v416q0 15 -16 18l-59 12v49h133q35 0 65 2t66 2q76 0 119 -15t61 -44.5t18 -73.5zM204 323q25 -1 49 -1h39
q45 0 66 27.5t21 81.5q0 52 -22.5 75.5t-73.5 23.5q-11 0 -29 -1.5t-26 -2.5v-476q12 -2 29.5 -3.5t32.5 -1.5q61 0 87.5 30.5t26.5 88.5q0 57 -26 81t-78 24q-12 0 -28 -0.5t-33.5 -1t-34.5 -1.5v57z" />
    <glyph glyph-name="C" unicode="C" horiz-adv-x="528" 
d="M298 -9q-132 0 -196 73.5t-64 209.5q0 105 34.5 173t97 101t147.5 33q41 0 86.5 -7.5t84.5 -21.5q2 -35 0.5 -74.5t-8.5 -81.5h-70l-19 90q-3 8 -7 15t-13 13q-11 7 -29 12t-38 5q-62 0 -97 -56.5t-35 -186.5q0 -78 13.5 -133t43.5 -84t77 -29q20 0 39 5t33 17
q5 5 9 10.5t7 16.5l25 81l69 -6q2 -32 0.5 -69t-7.5 -75q-36 -13 -86 -22t-97 -9z" />
    <glyph glyph-name="D" unicode="D" horiz-adv-x="612" 
d="M168 572q36 0 67 2t63 2q140 0 208 -66.5t68 -204.5q0 -153 -76 -233t-209 -78q-16 1 -38.5 2t-44 2.5t-37.5 1.5h-134v47l59 11q16 3 16 19v416q0 15 -16 18l-59 12v49h133zM229 54q11 -4 29.5 -6t34.5 -2q48 1 81.5 24t51.5 75.5t18 140.5q0 117 -37 179t-121 62
q-21 0 -36 -2.5l-21 -3.5v-467z" />
    <glyph glyph-name="E" unicode="E" horiz-adv-x="522" 
d="M405 422l-18 68q-6 17 -21 23q-11 3 -29 5.5t-37 2.5h-71v-200l163 6v-69l-163 4v-208h88q20 0 40 2t31 6q8 4 12 9t7 15l30 86l57 -9q0 -41 -4 -81t-11 -82h-444v47l57 11q18 3 18 21v411q0 18 -18 21l-57 12v49h426q4 -37 4 -74t-3 -76h-57z" />
    <glyph glyph-name="F" unicode="F" horiz-adv-x="484" 
d="M229 254v-177q0 -16 16 -18l93 -12v-47h-303v47l58 11q17 3 17 20v412q0 18 -18 21l-57 12v49h426q4 -37 4 -74t-3 -76h-57l-18 68q-6 17 -21 23q-11 3 -29 5.5t-37 2.5h-71v-209l163 6v-68z" />
    <glyph glyph-name="G" unicode="G" horiz-adv-x="580" 
d="M276 -9q-78 0 -130.5 34.5t-80 99.5t-27.5 154q0 103 34.5 170t98.5 99.5t154 32.5q48 0 95 -9t84 -25q2 -35 -0.5 -71t-6.5 -72h-72l-19 80q-3 11 -7 17t-12 11q-11 8 -28.5 13.5t-41.5 5.5q-44 0 -76 -26t-48.5 -81.5t-16.5 -143.5q0 -69 12.5 -119.5t42.5 -78
t82 -27.5q41 0 71.5 16.5t49.5 47.5l19 -39q-24 -39 -67.5 -64t-109.5 -25zM491 -5l-69 57h-21v180l-80 8v52h233v-52l-39 -6v-226z" />
    <glyph glyph-name="H" unicode="H" horiz-adv-x="679" 
d="M645 523l-58 -12q-17 -3 -17 -21v-411q0 -18 17 -21l58 -11v-47h-255v47l43 11q18 5 18 21v182h-222v-182q0 -18 17 -21l48 -11v-47h-259v47l57 11q18 3 18 21v411q0 18 -18 21l-57 12v49h259v-49l-49 -12q-16 -4 -16 -21v-169h222v169q0 16 -17 21l-45 12v49h256v-49z
" />
    <glyph glyph-name="I" unicode="I" horiz-adv-x="337" 
d="M303 523l-57 -12q-17 -3 -17 -21v-410q0 -19 17 -22l57 -11v-47h-268v47l57 11q18 3 18 21v411q0 18 -18 21l-57 12v49h268v-49z" />
    <glyph glyph-name="J" unicode="J" horiz-adv-x="324" 
d="M244 511q-17 -3 -17 -21v-353q0 -63 -8.5 -108.5t-31 -77.5t-63.5 -55.5t-106 -43.5l-22 48q47 28 71 55t32.5 65.5t8.5 100.5v369q0 18 -18 21l-57 12v49h261v-49z" />
    <glyph glyph-name="K" unicode="K" horiz-adv-x="599" 
d="M35 0v47l57 11q18 3 18 21v411q0 18 -18 21l-57 12v49h268v-49l-57 -12q-18 -3 -18 -21v-413q0 -16 19 -20l57 -10v-47h-269zM210 169v79l219 263l-65 12v49h215v-49l-56 -12q-15 -3 -23 -11l-177 -201zM450 0q-15 0 -29 20.5t-31 54.5l-52 105q-19 38 -32.5 61t-27.5 42
l73 85q28 -29 47.5 -59t45.5 -76l84 -150q5 -10 11 -17t19 -10l36 -9v-47h-144z" />
    <glyph glyph-name="L" unicode="L" horiz-adv-x="509" 
d="M431 198l60 -8q0 -44 -2.5 -92.5t-12.5 -97.5h-441v47l57 11q18 3 18 21v412q0 18 -18 21l-57 11v49h287v-49l-76 -12q-17 -4 -17 -21v-435h76q24 0 42 2t29 7q16 6 21 23z" />
    <glyph glyph-name="M" unicode="M" horiz-adv-x="816" 
d="M730 79q3 -16 19 -20l54 -12v-47h-257v47l67 11l-69 485h21l-131 -522h-93l-157 522h24l-55 -485l78 -11v-47h-218v47l55 12q17 4 18 20l49 410q3 19 -16 22l-63 12v49h241l130 -463h-35l116 463h242v-49l-65 -12q-20 -3 -17 -22z" />
    <glyph glyph-name="N" unicode="N" horiz-adv-x="654" 
d="M573 511q-18 -3 -18 -21v-490h-106l-297 479l26 3v-403q0 -18 18 -21l66 -11v-47h-227v47l57 11q18 3 18 21v411q0 18 -18 21l-57 12v49h196l281 -451l-25 -3v372q0 18 -18 21l-60 12v49h216v-49z" />
    <glyph glyph-name="O" unicode="O" horiz-adv-x="582" 
d="M281 -9q-124 0 -183.5 76t-59.5 209q0 97 31 165t89.5 104t141.5 36q125 0 184.5 -76.5t59.5 -208.5q0 -97 -30.5 -165t-89.5 -104t-143 -36zM292 529q-60 0 -92 -58.5t-32 -187.5q0 -125 30.5 -183t90.5 -58t92 59t32 189q0 125 -30 182t-91 57z" />
    <glyph glyph-name="P" unicode="P" horiz-adv-x="526" 
d="M229 77q0 -16 16 -18l90 -12v-47h-300v47l58 11q17 3 17 19v415q0 15 -16 19l-59 12v49h136q18 0 36 1t39.5 2t50.5 1q81 0 126 -19.5t64 -56t19 -89.5q0 -63 -26.5 -108.5t-75.5 -69.5t-120 -24q-19 0 -37 1l-36 2l-1 51q21 -2 35.5 -3.5t36.5 -1.5q28 0 51 13.5
t37 46.5t14 90q0 64 -26 92t-77 28q-21 0 -32 -1.5t-20 -2.5v-447z" />
    <glyph glyph-name="Q" unicode="Q" horiz-adv-x="582" 
d="M210 7l56 9q45 0 75.5 -6t54 -17t48.5 -27q28 -17 54.5 -27.5t56.5 -10.5q12 0 22 1.5t18 2.5l11 -40q-14 -16 -43.5 -30.5t-64.5 -14.5q-40 0 -68 15t-51 37.5t-46 45.5t-52 40.5t-71 21.5zM38 276q0 95 31 163.5t89.5 105t141.5 36.5q84 0 138 -35t80 -99t26 -151
q0 -95 -31.5 -163.5t-90.5 -105t-141 -36.5q-124 0 -183.5 77t-59.5 208zM168 283q0 -126 30 -183.5t91 -57.5q60 0 92 59t32 189q0 126 -30 182.5t-91 56.5q-60 0 -92 -58t-32 -188z" />
    <glyph glyph-name="R" unicode="R" horiz-adv-x="590" 
d="M35 0v47l57 11q18 3 18 21v412q0 17 -18 20l-57 12v49h131q32 0 61 2t67 2q118 0 168.5 -35.5t50.5 -116.5q0 -48 -14.5 -78.5t-37 -47.5t-48 -25.5t-47.5 -13.5l-35 -13h-61.5h-57.5v50q12 -2 28.5 -3t32.5 -1h24q39 1 65 31t26 95q0 39 -11 63.5t-34.5 36t-61.5 11.5
q-15 0 -29 -1.5t-24 -2.5v-448q0 -16 19 -20l57 -10v-47h-269zM438 0q-16 0 -29 21.5t-28 56.5l-37 91q-15 38 -31 62t-34 31l73 17q44 -13 71 -35.5t48 -67.5l44 -95q6 -13 12 -18t17 -7l36 -9v-47h-142z" />
    <glyph glyph-name="S" unicode="S" horiz-adv-x="476" 
d="M441 161q0 -41 -21 -80t-67 -64.5t-122 -25.5q-57 0 -105.5 13.5t-81.5 30.5q-2 38 0.5 79.5t8.5 74.5h68l14 -91q1 -8 4.5 -14t10.5 -13q12 -12 34.5 -22t50.5 -10q42 0 64.5 22t22.5 60q0 32 -16.5 54t-44 39t-62.5 34q-38 19 -72 40t-55.5 52.5t-21.5 79.5
q0 69 50 115t149 46q43 0 85.5 -8t74.5 -22q3 -36 0.5 -73.5t-7.5 -71.5h-67l-14 80q-2 10 -5.5 17t-10.5 12q-11 8 -28.5 13.5t-36.5 5.5q-37 0 -57.5 -20t-20.5 -53q0 -30 14.5 -50t43 -36t67.5 -36q41 -20 76 -44t56.5 -56.5t21.5 -77.5z" />
    <glyph glyph-name="T" unicode="T" horiz-adv-x="571" 
d="M123 0v47l86 14q18 3 18 20v440h-35q-18 0 -33.5 -2t-25.5 -5q-15 -6 -18 -21l-28 -118h-59q-6 53 -6.5 99t5.5 98h518q5 -52 4 -98.5t-5 -98.5h-59l-30 119q-1 7 -5.5 12t-12.5 8q-20 7 -58 7h-34v-440q0 -17 18 -20l85 -14v-47h-325z" />
    <glyph glyph-name="U" unicode="U" horiz-adv-x="625" 
d="M592 572v-49l-41 -11q-17 -4 -17 -21v-281q0 -79 -27 -127t-76 -70t-117 -22q-115 0 -170.5 53.5t-55.5 171.5v275q0 16 -17 21l-38 11v49h255v-49l-60 -12q-18 -4 -18 -22v-284q0 -54 13 -91t40.5 -55t69.5 -18q70 0 97.5 44t27.5 119v286q0 18 -17 21l-61 12v49h212z
" />
    <glyph glyph-name="V" unicode="V" horiz-adv-x="577" 
d="M59 494q-6 14 -20 17l-45 12v49h256v-49l-72 -14l159 -458h-35l142 458l-72 14v49h206v-49l-48 -12q-16 -3 -20 -17l-163 -496h-107z" />
    <glyph glyph-name="W" unicode="W" horiz-adv-x="835" 
d="M431 395l-109 -397h-107l-152 495q-5 15 -19 18l-47 12v49h250v-49l-66 -14l118 -435h-16l111 396zM372 493q-4 14 -19 18l-34 12v49h243v-49l-72 -14l116 -436h-19l116 436l-66 14v49h198v-49l-49 -12q-7 -1 -12 -5.5t-7 -12.5l-140 -495h-107l-115 399z" />
    <glyph glyph-name="X" unicode="X" horiz-adv-x="551" 
d="M292 0v47l60 12l-120 197h-6l-154 240q-8 12 -21 15l-41 12v49h252v-49l-61 -13l111 -183h6l165 -254q7 -12 22 -15l41 -11v-47h-254zM0 0v47l52 11q14 3 21 15l169 243h30l126 194l-63 13v49h195v-49l-47 -12q-15 -3 -22 -14l-163 -232h-27l-133 -206l70 -12v-47h-208z
" />
    <glyph glyph-name="Y" unicode="Y" horiz-adv-x="544" 
d="M232 192l-172 304q-7 12 -22 16l-45 11v49h259v-49l-60 -14l129 -248h-34l121 248l-66 14v49h198v-49l-43 -10q-7 -2 -12.5 -6t-8.5 -10l-154 -305h-90zM127 0v47l70 14q18 3 18 20v156h122v-156q0 -17 18 -20l69 -14v-47h-297z" />
    <glyph glyph-name="Z" unicode="Z" horiz-adv-x="512" 
d="M44 0l-24 41l321 494l16 -14h-111q-23 0 -41 -2t-29 -6q-16 -6 -22 -22l-30 -99h-66q-2 45 1 91.5t10 88.5h387l18 -42l-318 -494l-22 19h148q24 0 41.5 2t29.5 6q15 6 20 23l35 103l64 -8q1 -25 -0.5 -57t-5 -64.5t-8.5 -59.5h-414z" />
    <glyph glyph-name="bracketleft" unicode="[" horiz-adv-x="299" 
d="M281 -172q-46 -6 -98.5 -9t-93.5 -2l-15 14v843l15 14q41 1 93.5 -2t98.5 -9v-47l-90 -9q-19 -2 -19 -21v-694q0 -20 19 -22l90 -9v-47z" />
    <glyph glyph-name="backslash" unicode="\" horiz-adv-x="368" 
d="M254 -105l-233 738h91l233 -738h-91z" />
    <glyph glyph-name="bracketright" unicode="]" horiz-adv-x="299" 
d="M210 -183q-41 -1 -93.5 2t-98.5 9v47l89 9q20 3 20 22v694q0 18 -20 21l-89 9v47q46 6 98.5 9t93.5 2l16 -14v-843z" />
    <glyph glyph-name="asciicircum" unicode="^" horiz-adv-x="463" 
d="M182 565l87 7l165 -254l-49 -32l-187 217h55l-181 -217l-42 32z" />
    <glyph glyph-name="underscore" unicode="_" horiz-adv-x="637" 
d="M637 -91v-54h-637v54h637z" />
    <glyph glyph-name="grave" unicode="`" horiz-adv-x="364" 
d="M264 500l-32 -37q-34 20 -66 43t-58.5 47.5t-44.5 46.5l65 60z" />
    <glyph glyph-name="a" unicode="a" horiz-adv-x="450" 
d="M147 -8q-53 0 -86 28t-33 76q0 41 23 67t60 39.5t78 15.5l96 6v-44l-69 -6q-38 -1 -54.5 -19t-16.5 -46q0 -26 11.5 -39t37.5 -13t50.5 11.5t38.5 29.5l10 -25q-20 -38 -58 -59.5t-88 -21.5zM40 333q17 46 62 71.5t114 25.5q84 0 122 -39t38 -118v-195q0 -20 20 -22
l37 -5v-44q-13 -4 -36.5 -9t-43.5 -5q-36 0 -58.5 17t-28.5 56v202q0 48 -21.5 67t-61.5 19q-34 0 -63 -10.5t-54 -33.5z" />
    <glyph glyph-name="b" unicode="b" horiz-adv-x="479" 
d="M59 558q0 18 -17 21l-50 8v45q36 10 82.5 16t82.5 7l16 -15v-589q9 -5 22.5 -9t30.5 -4q48 0 73 40.5t26 129.5q2 87 -21.5 120t-65.5 33q-21 0 -41.5 -8t-36.5 -25l-9 29q22 34 57.5 54t80.5 20q44 0 79.5 -21.5t56.5 -65.5t21 -114q0 -113 -58.5 -176t-169.5 -63
q-48 0 -92.5 9t-66.5 19v539z" />
    <glyph glyph-name="c" unicode="c" horiz-adv-x="413" 
d="M33 204q0 71 26 121.5t72.5 78t109.5 27.5q38 0 75 -9t61 -22q2 -34 -0.5 -69t-7.5 -67h-56l-19 69q-4 12 -7 19t-8 12q-7 6 -18 10t-25 4q-35 0 -58 -36.5t-23 -119.5q0 -81 25.5 -121t79.5 -40q32 0 57 12t39 26l26 -21q-14 -39 -55.5 -63.5t-103.5 -24.5
q-65 0 -107 28t-62.5 76.5t-20.5 109.5z" />
    <glyph glyph-name="d" unicode="d" horiz-adv-x="500" 
d="M198 -8q-47 0 -84 21.5t-58.5 67t-21.5 118.5q0 76 25.5 127.5t73.5 78t115 26.5q23 0 46.5 -4t36.5 -9l-12 -59q-8 8 -27 14t-39 6q-29 0 -51 -15t-35 -51.5t-13 -99.5q0 -58 10 -92t29.5 -49t44.5 -15q23 0 46.5 8.5t39.5 23.5l13 -18q-21 -34 -56 -56.5t-83 -22.5z
M422 639v-561q0 -12 5 -16.5t14 -5.5l38 -5v-44q-13 -4 -37 -9t-45 -5q-39 0 -60.5 20.5t-28.5 57.5v487q0 18 -17 21l-51 8v45q37 10 83 16t83 7z" />
    <glyph glyph-name="e" unicode="e" horiz-adv-x="430" 
d="M34 206q0 108 53 166.5t149 58.5q80 0 120 -40t40 -105q0 -14 -1 -29.5t-4 -28.5h-278v45h177q1 5 1 9v10q0 39 -16 64.5t-49 25.5q-35 0 -55.5 -34t-20.5 -121q0 -59 11.5 -95.5t35.5 -53.5t62 -17q31 0 60 12t48 36l27 -19q-14 -48 -59 -74t-110 -26q-66 0 -108 27
t-62.5 75.5t-20.5 113.5z" />
    <glyph glyph-name="f" unicode="f" horiz-adv-x="336" 
d="M279 654q26 0 51 -10.5t45 -27.5l-19 -64q-21 5 -42 7.5t-33 2.5q-38 -1 -57.5 -17t-19.5 -68v-56h118v-64h-118v-282q0 -18 19 -20l75 -8v-47h-266v47l40 7q18 3 18 21v280l-64 10v45l67 11v23q0 36 15.5 73.5t42.5 68t60.5 49.5t67.5 19z" />
    <glyph glyph-name="g" unicode="g" horiz-adv-x="478" 
d="M451 -36q0 -49 -30 -86t-84.5 -57t-128.5 -20q-95 0 -138 32.5t-43 82.5q0 46 31.5 70t82.5 36l34 -3q-16 -12 -28 -32.5t-12 -51.5q0 -35 20.5 -57.5t72.5 -22.5q49 0 78.5 22.5t29.5 65.5q0 28 -15 42t-54 14h-81q-66 0 -95 21.5t-29 58.5q0 35 23 56t57 31l32 -8
q-16 -10 -23 -21.5t-7 -24.5q0 -20 18 -28t62 -8h79q72 0 110 -28t38 -84zM398 291q0 -67 -45 -108t-139 -41q-62 0 -100.5 17.5t-56 49t-17.5 71.5q0 49 22.5 82.5t65 51t100.5 17.5q80 0 125 -35t45 -105zM154 288q0 -51 17 -74.5t51 -23.5t49.5 23.5t15.5 72.5
q0 52 -16 75t-50 23q-21 0 -36 -9.5t-23 -30.5t-8 -56zM370 345l-28 22q16 29 38.5 46.5t46.5 17.5q10 0 20.5 -2.5t18.5 -4.5v-79h-96z" />
    <glyph glyph-name="h" unicode="h" horiz-adv-x="528" 
d="M21 0v47l40 7q19 3 19 21v486q0 18 -18 21l-49 8v45q36 10 82 14.5t82 5.5l16 -16v-563q0 -17 18 -22l29 -7v-47h-219zM293 0v47l29 7q8 3 13 7.5t5 14.5v183q0 54 -15.5 78t-53.5 24q-26 0 -52.5 -10.5t-47.5 -30.5l1 35q28 40 68 58t87 18q73 0 99.5 -41.5t26.5 -116.5
v-197q0 -19 18 -22l41 -7v-47h-219z" />
    <glyph glyph-name="i" unicode="i" horiz-adv-x="284" 
d="M204 76q0 -19 18 -22l41 -7v-47h-231v47l40 7q18 3 18 22v255q0 19 -17 22l-46 8v48q37 11 81 15.5t81 5.5l15 -15v-339zM206 544q0 -28 -18 -45t-48 -17t-48 17t-18 45t18 44.5t48 16.5t48 -16.5t18 -44.5z" />
    <glyph glyph-name="j" unicode="j" horiz-adv-x="259" 
d="M195 415v-376q0 -47 -6.5 -79t-19.5 -53.5t-34 -38.5q-27 -23 -63.5 -37.5t-75.5 -25.5l-22 48q43 24 66.5 48t33 55.5t9.5 77.5v297q0 19 -17 22l-47 8v48q36 11 80.5 15.5t80.5 5.5zM196 544q0 -28 -18 -45t-47 -17q-30 0 -48 17t-18 45t18 44.5t48 16.5q29 0 47 -16.5
t18 -44.5z" />
    <glyph glyph-name="k" unicode="k" horiz-adv-x="509" 
d="M21 0v47l41 7q18 3 18 22v482q0 18 -18 21l-49 8v45q36 10 81.5 16t82.5 7l16 -15v-564q0 -19 18 -22l40 -7v-47h-230zM362 0q-18 0 -29.5 20t-24.5 48l-35 75q-9 19 -18.5 36.5t-20.5 31.5l75 71q18 -19 31.5 -38.5t28.5 -48.5l64 -116q5 -11 10.5 -15t14.5 -6l42 -11
v-47h-138zM176 125l-5 61l189 203l3 -29l-95 16v45h211v-45l-42 -10q-14 -4 -21.5 -6.5t-15.5 -9.5z" />
    <glyph glyph-name="l" unicode="l" horiz-adv-x="277" 
d="M195 76q0 -19 18 -22l47 -7v-47h-243v47l47 7q18 3 18 21v483q0 18 -18 21l-50 8v45q37 10 83 16t83 7l15 -16v-563z" />
    <glyph glyph-name="m" unicode="m" horiz-adv-x="784" 
d="M549 0v47l28 7q9 3 13.5 7.5t4.5 14.5v180q0 55 -16 80t-54 25q-23 0 -48 -9.5t-48 -30.5l-1 38q29 38 69 55t84 17q74 0 100.5 -42t26.5 -119v-194q0 -19 18 -22l42 -7v-47h-219zM31 0v47l42 7q17 3 17 22v255q0 19 -17 22l-46 8v48q35 10 74 15t74 6l17 -15l12 -73
v-266q0 -17 16 -22l30 -7v-47h-219zM297 0v47l28 7q8 3 13 7.5t5 14.5v183q0 54 -14.5 78t-52.5 24q-23 0 -49.5 -10t-45.5 -30l1 34q26 40 64.5 58t83.5 18q74 0 100 -41.5t26 -116.5v-197q0 -17 17 -22l29 -7v-47h-205z" />
    <glyph glyph-name="n" unicode="n" horiz-adv-x="539" 
d="M302 0v47l30 7q9 2 13.5 7t4.5 15v182q0 55 -15.5 79t-52.5 24q-27 0 -53 -10.5t-48 -30.5l1 35q29 40 68.5 58t86.5 18q73 0 99.5 -41.5t26.5 -117.5v-196q0 -19 18 -22l41 -7v-47h-220zM31 0v47l42 7q17 3 17 22v255q0 19 -17 22l-46 8v48q35 10 74 15t74 6l17 -15
l12 -74v-265q0 -18 17 -22l30 -7v-47h-220z" />
    <glyph glyph-name="o" unicode="o" horiz-adv-x="475" 
d="M318 205q0 60 -7 99t-25.5 57.5t-50.5 18.5q-40 0 -59.5 -37t-19.5 -127q0 -61 7.5 -100t26 -57.5t50.5 -18.5q39 0 58.5 37t19.5 128zM33 206q0 81 28 130.5t76 72t107 22.5q64 0 107.5 -25t66.5 -73t23 -119q0 -82 -27.5 -131t-75 -71t-107.5 -22q-64 0 -108 24.5
t-67 72.5t-23 119z" />
    <glyph glyph-name="p" unicode="p" horiz-adv-x="502" 
d="M23 -180v46l42 8q17 3 17 21v436q0 19 -16 22l-47 8v48q34 9 73.5 14.5t74.5 6.5l17 -15l12 -66v-454q0 -19 18 -21l58 -8v-46h-249zM248 -8q-17 0 -37.5 2.5t-38.5 9.5l7 60q12 -14 30.5 -19t39.5 -5q45 0 72 37t27 134q1 79 -20 114.5t-66 35.5q-27 0 -48 -9.5
t-31 -20.5l-11 22q22 33 55.5 55.5t84.5 22.5q44 0 79.5 -21.5t56.5 -65.5t21 -113q0 -116 -59.5 -177.5t-161.5 -61.5z" />
    <glyph glyph-name="q" unicode="q" horiz-adv-x="485" 
d="M34 199q0 73 25.5 125t72.5 79.5t112 27.5q38 0 75 -12t61 -30l-61 -41q-11 16 -28 23.5t-40 7.5q-29 0 -51 -15.5t-34 -51t-12 -95.5t10 -95t29.5 -50t44.5 -15q23 0 45 8.5t38 22.5l13 -14q-19 -35 -52.5 -58.5t-83.5 -23.5q-47 0 -84.5 21.5t-58.5 67t-21 118.5z
M421 -105q0 -18 18 -21l34 -8v-46h-246v46l62 8q18 2 18 21v493l95 41l19 -15v-519z" />
    <glyph glyph-name="r" unicode="r" horiz-adv-x="403" 
d="M179 309q16 35 39 62.5t50.5 43.5t57.5 16q12 0 29 -3t27 -8q3 -31 0 -73t-11 -80h-50l-13 47q-3 13 -9.5 17.5t-18.5 4.5q-20 0 -45 -11t-47 -37zM204 311v-235q0 -19 19 -22l65 -7v-47h-257v47l41 7q18 3 18 22v255q0 20 -17 23l-46 8v48q33 9 71 14t70 6l18 -14z" />
    <glyph glyph-name="s" unicode="s" horiz-adv-x="401" 
d="M41 22q-4 29 -3 59t5 57h58l15 -54q5 -21 17 -29q8 -6 24 -12t38 -6q30 0 46.5 15.5t16.5 39.5q0 21 -14.5 34.5t-39.5 25.5t-58 27q-45 22 -74 49t-29 76q0 58 42.5 92.5t123.5 34.5q35 0 72.5 -7t63.5 -18q2 -26 0.5 -55t-6.5 -56h-54l-15 51q-3 10 -6.5 16t-11.5 11
q-10 5 -21 8.5t-24 3.5q-26 1 -42 -12.5t-16 -38.5q0 -21 12.5 -34.5t32.5 -23.5t44 -20q34 -14 64.5 -31t49 -42.5t18.5 -64.5q0 -63 -49.5 -95.5t-126.5 -32.5q-45 0 -84.5 10t-68.5 22z" />
    <glyph glyph-name="t" unicode="t" horiz-adv-x="341" 
d="M77 357l-58 9v44l46 8q10 2 14.5 6.5t7.5 13.5l36 106h64l3 -123h121v-62h-119v-215q0 -44 13 -59.5t39 -15.5q17 0 35 6t32 20l24 -26q-18 -38 -55 -56.5t-84 -18.5q-36 0 -62.5 10.5t-41.5 37t-15 74.5v241z" />
    <glyph glyph-name="u" unicode="u" horiz-adv-x="520" 
d="M357 68q-26 -35 -60 -55.5t-90 -20.5q-66 0 -98 35.5t-32 110.5v195q0 17 -17 22l-41 9v48q35 9 78 13.5t78 4.5l15 -14v-262q0 -55 15.5 -76t50.5 -21q24 0 46 9t42 26zM499 7q-13 -4 -37 -9t-45 -5q-39 0 -60.5 20.5t-28.5 57.5v263q0 18 -17 21l-46 10v48
q37 8 81 12.5t81 4.5l15 -14v-338q0 -12 5 -16.5t14 -5.5l38 -5v-44z" />
    <glyph glyph-name="v" unicode="v" horiz-adv-x="465" 
d="M351 362l-55 11v48h162v-46l-27 -9q-16 -4 -21 -17l-124 -355h-56zM264 -6h-77l-137 354q-6 14 -19 18l-27 9v46h224v-48l-56 -11l108 -322z" />
    <glyph glyph-name="w" unicode="w" horiz-adv-x="676" 
d="M562 362l-54 11v48h160v-46l-26 -9q-7 -2 -12.5 -6t-7.5 -12l-106 -354h-51zM235 -6h-71l-113 355q-5 13 -19 17l-26 9v46h206v-48l-52 -11l89 -320zM335 421h74l103 -378l-14 -49h-72l-111 372zM256 -6h-54l112 427h58z" />
    <glyph glyph-name="x" unicode="x" horiz-adv-x="486" 
d="M20 0v46l37 7q13 2 22 13l131 168h34l96 130l-46 12v45h164v-45l-33 -7q-13 -3 -21 -14l-127 -160h-32l-99 -139l54 -10v-46h-180zM249 0v46l44 10l-85 129h-7l-126 170q-7 11 -21 14l-29 7v45h221v-45l-48 -12l85 -125h7l128 -173q8 -11 22 -14l30 -6v-46h-221z" />
    <glyph glyph-name="y" unicode="y" horiz-adv-x="467" 
d="M18 -123q50 7 88.5 16.5t66.5 28.5t49.5 53t38.5 89l92 298l-54 11v48h163v-46l-29 -9q-8 -3 -13 -7t-8 -13l-121 -356q-31 -90 -72.5 -134t-105.5 -44q-24 0 -49 2.5t-46 6.5v56zM260 0h-73l-130 347q-6 15 -22 19l-28 9v46h227v-48l-56 -11l107 -315z" />
    <glyph glyph-name="z" unicode="z" horiz-adv-x="430" 
d="M272 387l7 -14h-76q-14 0 -29.5 -0.5t-27.5 -2.5q-9 -2 -15 -6t-8 -14l-17 -71h-53q-4 35 -5.5 72t1.5 70h329l19 -43l-244 -343l-7 13h75q18 0 36.5 1t32.5 4q9 2 15 5.5t8 11.5l25 78l52 -6q3 -35 2 -71t-5 -71h-343l-20 42z" />
    <glyph glyph-name="braceleft" unicode="{" horiz-adv-x="329" 
d="M311 -184q-18 0 -42 1t-46 4q-72 6 -104 39.5t-32 90.5q0 50 7 96.5t7 85.5q0 24 -6 41.5t-25.5 28.5t-61.5 15v69q42 4 61.5 15t25.5 29t6 41q0 39 -7 85.5t-7 96.5q0 57 32 91t104 40q22 2 46 3.5t42 1.5l7 -51l-48 -11q-42 -10 -60 -30.5t-18 -62.5q0 -38 4.5 -85.5
t4.5 -86.5q0 -51 -31 -75t-81 -34q50 -9 81 -35t31 -77q0 -40 -4.5 -87t-4.5 -85q0 -42 18 -63t60 -30l48 -10z" />
    <glyph glyph-name="bar" unicode="|" horiz-adv-x="235" 
d="M74 692h87l-1 -806h-86v806z" />
    <glyph glyph-name="braceright" unicode="}" horiz-adv-x="329" 
d="M107 -180q-22 -2 -46 -3t-42 -1l-8 51l48 9q42 10 60 30.5t18 63.5q0 38 -4 85t-4 87q0 51 31 76.5t80 34.5q-49 9 -80 34t-31 76q0 39 4 87t4 85q0 43 -18 64t-60 30l-48 10l8 51q18 0 42 -1.5t46 -2.5q71 -7 103.5 -40.5t32.5 -90.5q0 -51 -7.5 -97.5t-7.5 -85.5
q0 -23 6 -41t26 -29t62 -15v-69q-42 -4 -62 -15t-26 -28.5t-6 -41.5q0 -39 7.5 -85.5t7.5 -96.5q0 -57 -32.5 -91t-103.5 -40z" />
    <glyph glyph-name="asciitilde" unicode="~" horiz-adv-x="475" 
d="M306 177q-29 0 -55 12.5t-50.5 25t-46.5 12.5t-40.5 -13t-33.5 -31l-33 25q19 45 52 71.5t70 26.5q28 0 54.5 -12.5t50.5 -24.5t47 -12q21 0 40 12.5t34 31.5l33 -26q-19 -45 -52 -71.5t-70 -26.5z" />
    <glyph glyph-name="nbspace" unicode="&#xa0;" horiz-adv-x="197" 
 />
    <glyph glyph-name="exclamdown" unicode="&#xa1;" horiz-adv-x="240" 
d="M57 -187v71l29 355h68l29 -355v-71h-126zM120 305q-30 0 -48 17t-18 44q0 26 18 42.5t48 16.5q29 0 47 -16.5t18 -42.5q0 -28 -18 -44.5t-47 -16.5z" />
    <glyph glyph-name="cent" unicode="&#xa2;" horiz-adv-x="429" 
d="M258 27v-103h-53v103h53zM213 522h53v-110h-53v110zM35 216q0 72 27.5 121.5t76 75.5t112.5 26q40 0 77.5 -10t61.5 -22q2 -35 0 -68.5t-8 -65.5h-58l-17 69q-3 12 -6.5 18.5t-8.5 11.5q-16 15 -46 15q-39 0 -64 -38.5t-25 -112.5q0 -78 27 -119t79 -41q41 0 66.5 15
t40.5 33l28 -27q-18 -41 -64 -66.5t-110 -25.5q-63 0 -105.5 28t-63 76t-20.5 107z" />
    <glyph glyph-name="sterling" unicode="&#xa3;" horiz-adv-x="500" 
d="M458 98q0 -58 -32 -83t-76 -25q-39 0 -69.5 13.5t-59 26.5t-62.5 13q-22 -18 -48 -31t-52 -18l-30 58q22 12 40.5 29t31 43t12.5 66v118q0 62 21 108t62 71t100 25q36 0 67.5 -8t56.5 -19q3 -33 1 -66t-8 -67h-64l-15 72q-2 8 -5 14.5t-11 12.5q-9 6 -18 9t-20 3
q-12 0 -23.5 -9t-19.5 -31.5t-8 -66.5v-145q0 -47 -11 -78.5t-23 -48.5q20 0 38 -4t35 -7t35 -3q27 0 41.5 11t20.5 33q4 13 6.5 30.5t4.5 33.5h71q4 -16 7.5 -37t3.5 -43zM42 227v51h299v-51h-299z" />
    <glyph glyph-name="currency" unicode="&#xa4;" horiz-adv-x="480" 
d="M240 98q-46 0 -83.5 20.5t-59 56.5t-21.5 82t21.5 84.5t59 61t83.5 22.5t83.5 -20.5t59 -56.5t21.5 -82t-21.5 -84.5t-59 -61t-83.5 -22.5zM83 51l-45 46l86 86l47 -45zM398 51l-87 87l44 45l88 -86zM241 173q39 0 59 26.5t20 62.5q0 25 -10.5 45t-29 31.5t-41.5 11.5
q-39 0 -59 -26.5t-20 -62.5q0 -25 11 -45t29 -31.5t41 -11.5zM125 340l-87 86l44 46l88 -87zM356 340l-46 45l87 87l46 -46z" />
    <glyph glyph-name="yen" unicode="&#xa5;" horiz-adv-x="550" 
d="M90 163h384v-48h-384v48zM90 268h384v-48h-384v48zM239 210l-155 222q-6 10 -19 13l-42 11v46h238v-46l-57 -12l114 -185h-22l109 185l-61 12v46h184v-46l-40 -11q-8 -2 -12 -5t-8 -9l-140 -221h-89zM142 0v46l69 12q17 3 17 19v164h107v-164q0 -16 17 -19l69 -12v-46
h-279z" />
    <glyph glyph-name="brokenbar" unicode="&#xa6;" horiz-adv-x="233" 
d="M73 692h87v-347h-87v347zM73 232h87v-346h-87v346z" />
    <glyph glyph-name="section" unicode="&#xa7;" horiz-adv-x="464" 
d="M227 -111q-58 0 -104.5 15t-66.5 26q-1 29 0.5 58.5t6.5 60.5h65l13 -64q1 -4 4 -11t13 -14q12 -10 33 -16t45 -6q36 0 56.5 15t20.5 39q0 20 -15.5 34.5t-48 29t-82.5 36.5q-59 26 -94.5 58.5t-35.5 85.5q0 36 14 63.5t35.5 46t45.5 24.5l23 -18q-15 -13 -26 -34.5
t-11 -40.5q0 -35 34.5 -58t105.5 -54q52 -23 85.5 -43t50.5 -43.5t17 -60.5q0 -33 -19 -62.5t-59.5 -48t-105.5 -18.5zM332 101l-24 18q15 12 26.5 33.5t11.5 40.5q0 24 -15.5 40.5t-46 33.5t-78.5 38q-47 23 -79.5 42.5t-49 44t-16.5 60.5q0 33 18 62.5t57 48t103 18.5
q52 0 96 -12.5t62 -22.5q2 -30 0 -60t-7 -59h-65l-12 63q-1 5 -4.5 11.5t-12.5 13.5q-11 8 -29 12.5t-37 4.5q-35 0 -53.5 -15t-18.5 -38q0 -21 15 -36t46 -30t77 -35q38 -17 67.5 -36.5t46.5 -45.5t17 -62q0 -54 -29.5 -89t-65.5 -44z" />
    <glyph glyph-name="dieresis" unicode="&#xa8;" horiz-adv-x="364" 
d="M153 540q0 -27 -15.5 -42.5t-40.5 -15.5q-26 0 -41.5 15.5t-15.5 42.5q0 26 16 41.5t41 15.5t40.5 -15.5t15.5 -41.5zM323 540q0 -27 -15 -42.5t-40 -15.5q-26 0 -41.5 15.5t-15.5 42.5q0 26 15.5 41.5t41.5 15.5q25 0 40 -15.5t15 -41.5z" />
    <glyph glyph-name="copyright" unicode="&#xa9;" horiz-adv-x="729" 
d="M363 99q-78 0 -121.5 50t-43.5 133q0 93 50.5 141.5t128.5 48.5q36 0 68.5 -9t50.5 -22q3 -28 1.5 -57.5t-6.5 -59.5h-51l-15 59q-2 7 -4.5 12.5t-8.5 10.5q-8 5 -19 9.5t-23 4.5q-34 0 -54 -30.5t-20 -92.5q0 -66 24 -100t70 -34q26 0 49.5 9.5t38.5 24.5l24 -22
q-14 -33 -50.5 -54.5t-88.5 -21.5zM89 286q0 -83 35 -147.5t97.5 -101t143.5 -36.5t143 36.5t97 101t35 147.5t-35 147.5t-97 101t-143 36.5t-143.5 -36.5t-97.5 -101t-35 -147.5zM35 286q0 71 24.5 131t69 105t105 69.5t131.5 24.5t131.5 -24.5t104.5 -69.5t68.5 -105
t24.5 -131q0 -72 -24.5 -132t-69 -105t-104.5 -69.5t-131 -24.5t-131.5 24.5t-105 69.5t-69 105t-24.5 132z" />
    <glyph glyph-name="ordfeminine" unicode="&#xaa;" horiz-adv-x="402" 
d="M134 252q-44 0 -70.5 21t-26.5 56q0 30 18 49.5t48 30.5t64 13l76 4v-37l-50 -3q-30 -2 -40.5 -14.5t-10.5 -30.5q0 -35 35 -35q19 0 36 7t28 19l8 -21q-16 -29 -46 -44t-69 -15zM48 502q14 36 50.5 57t94.5 21q69 0 100.5 -31t31.5 -92v-136q0 -15 15 -17l29 -3v-38
q-12 -3 -31 -7t-37 -4q-30 0 -49 12.5t-26 46.5v145q0 34 -16 46.5t-48 12.5q-26 0 -49 -8.5t-42 -23.5z" />
    <glyph glyph-name="guillemetleft" unicode="&#xab;" horiz-adv-x="535" 
d="M29 250l213 167l32 -40l-134 -167v24l136 -164l-34 -40l-213 164v56zM256 250l212 167l33 -40l-134 -167v24l135 -164l-34 -40l-212 164v56z" />
    <glyph glyph-name="logicalnot" unicode="&#xac;" horiz-adv-x="453" 
d="M31 279h358v-223h-79v149h-279v74z" />
    <glyph glyph-name="softhyphen" unicode="&#xad;" horiz-adv-x="390" 
d="M51 254h288v-74h-288v74z" />
    <glyph glyph-name="registered" unicode="&#xae;" horiz-adv-x="638" 
d="M356 386q26 -4 38 -13t20 -27l21 -45q5 -10 12 -14t24 -9v-33h-74q-11 0 -18 9.5t-13 25.5l-19 50q-7 19 -15.5 31.5t-18.5 18.5zM88 397q0 -70 29.5 -124.5t82 -85t120.5 -30.5q69 0 121 30.5t82 85t30 124.5t-30 124t-82 84.5t-121 30.5q-68 0 -120.5 -30.5t-82 -84.5
t-29.5 -124zM38 397q0 82 37 145t101 99.5t144 36.5q82 0 145 -36.5t99.5 -100t36.5 -144.5t-36.5 -145t-99.5 -100.5t-145 -36.5q-80 0 -144 36.5t-101 100.5t-37 145zM338 367l-70 -1v40q17 -2 30 -2.5t25 -0.5q21 0 34 14.5t13 44.5q0 29 -13 42t-42 13q-14 0 -30 -4
v-219q0 -12 11 -14l24 -5v-30h-140v30l22 6q10 3 10 14v204q0 11 -11 14l-21 5v34h68q21 -1 40 0t36 1q65 0 93.5 -21t28.5 -66q0 -33 -18.5 -57.5t-65.5 -31.5z" />
    <glyph glyph-name="macron" unicode="&#xaf;" horiz-adv-x="364" 
d="M52 568h259v-68h-259v68z" />
    <glyph glyph-name="degree" unicode="&#xb0;" horiz-adv-x="343" 
d="M171 312q-37 0 -67.5 18.5t-49 49t-18.5 67.5q0 39 18.5 69t49 47.5t67.5 17.5q40 0 70.5 -18.5t48.5 -49t18 -66.5q0 -38 -18.5 -69t-49.5 -48.5t-69 -17.5zM171 374q31 0 50 20.5t19 52.5q0 29 -20 51t-50 22t-48.5 -21t-18.5 -52q0 -30 20 -51.5t48 -21.5z" />
    <glyph glyph-name="plusminus" unicode="&#xb1;" horiz-adv-x="435" 
d="M179 115v67l3 56l-57 -2h-77v69h77l57 -2l-3 58v70h77v-70l-2 -58l56 2h77v-69h-77l-56 2l2 -56v-67h-77zM52 0v69h331v-69h-331z" />
    <glyph glyph-name="twosuperior" unicode="&#xb2;" horiz-adv-x="356" 
d="M18 366q64 51 106 86t62 61.5t20 54.5q0 27 -17 42.5t-43 15.5t-46.5 -13.5t-35.5 -31.5l-28 23q11 33 47.5 60t90.5 27q56 0 90.5 -31t34.5 -78q0 -33 -18 -61t-49 -53.5t-70.5 -51t-82.5 -52.5l-6 20h110q33 0 47.5 6.5t19.5 15.5l21 41l46 -5q-2 -26 -7 -58t-12 -57
h-268z" />
    <glyph glyph-name="threesuperior" unicode="&#xb3;" horiz-adv-x="351" 
d="M151 322q-42 0 -77 14.5t-57 42.5l26 32q16 -15 40.5 -24.5t49.5 -9.5q38 0 60.5 17t22.5 42t-17 38t-38 16q-16 -3 -27.5 -5t-22.5 -4l-10 43q27 3 51.5 11.5t39.5 22t15 32.5q0 21 -18.5 32t-43.5 11q-22 0 -42.5 -7.5t-37.5 -23.5l-22 27q18 31 54.5 46.5t76.5 15.5
q54 0 87.5 -25.5t33.5 -64.5q0 -24 -13.5 -41.5t-34 -28.5t-41.5 -15q27 0 50.5 -9t39 -27.5t15.5 -46.5q0 -33 -21.5 -58t-57.5 -39t-81 -14z" />
    <glyph glyph-name="acute" unicode="&#xb4;" horiz-adv-x="364" 
d="M117 498l140 162l65 -60q-17 -22 -45 -46.5t-62 -47.5t-68 -43z" />
    <glyph glyph-name="micro" unicode="&#xb5;" horiz-adv-x="519" 
d="M424 -9q-37 0 -60 31.5t-24 95.5h-5l-3 300l88 13l16 -15l-9 -286q-1 -39 10 -52.5t28 -13.5h46v-42q-18 -13 -42 -22t-45 -9zM79 -195l-16 15q1 50 1.5 104.5t1 106t0.5 91.5q0 52 -1.5 98.5t-2.5 94t-2 102.5l92 14l16 -15l-3 -222l-23 -109l23 -248zM230 -9
q-23 0 -46 12.5t-39 41.5t-18 79l38 73q0 -41 12.5 -66t31.5 -35.5t38 -10.5q18 0 36.5 9t33.5 29.5t23 51.5l14 -6q0 -57 -18 -97t-46.5 -60.5t-59.5 -20.5z" />
    <glyph glyph-name="paragraph" unicode="&#xb6;" horiz-adv-x="560" 
d="M85 -89q43 23 65.5 47.5t31 61.5t8.5 94v134q-41 4 -78.5 23.5t-62 56.5t-24.5 94q0 68 45.5 114t143.5 46q45 0 101.5 -5t124.5 -5h81v-49l-53 -12q-18 -3 -18 -20v-413q0 -17 17 -20l58 -11v-47h-165v515q-17 1 -39.5 2.5t-41.5 1.5v-440q0 -67 -16.5 -108.5t-54 -66.5
t-102.5 -42z" />
    <glyph glyph-name="periodcentered" unicode="&#xb7;" horiz-adv-x="232" 
d="M184 243q0 -29 -18.5 -45.5t-48.5 -16.5t-48.5 16.5t-18.5 45.5q0 28 18.5 45t48.5 17t48.5 -17t18.5 -45z" />
    <glyph glyph-name="cedilla" unicode="&#xb8;" horiz-adv-x="364" 
d="M203 19l-15 -51h6h7q30 -2 49 -19.5t19 -46.5q0 -42 -39 -67.5t-100 -25.5h-11t-10 1l-6 39q37 3 56.5 16.5t19.5 32.5q0 17 -13 25t-32 9l29 87h40z" />
    <glyph glyph-name="onesuperior" unicode="&#xb9;" horiz-adv-x="347" 
d="M232 402q0 -15 16 -18l71 -11v-46h-268v46l79 11q17 2 17 18v196q-21 -8 -46 -12.5t-49 -6.5l-10 45q33 8 69 25t67 43l54 -10v-280z" />
    <glyph glyph-name="ordmasculine" unicode="&#xba;" horiz-adv-x="409" 
d="M203 539q-27 0 -41.5 -26t-14.5 -93q0 -70 12.5 -98.5t46.5 -28.5q28 0 41.5 25.5t13.5 93.5q0 70 -12 98.5t-46 28.5zM210 581q76 0 118.5 -39t42.5 -123q0 -62 -22.5 -99t-61 -53t-87.5 -16q-77 0 -119.5 39t-42.5 122q0 63 22.5 100t61.5 53t88 16z" />
    <glyph glyph-name="guillemetright" unicode="&#xbb;" horiz-adv-x="531" 
d="M280 250v-56l-213 -164l-34 40l136 164v-24l-134 167l32 40zM502 250v-56l-213 -164l-34 40l136 164v-24l-134 167l32 40z" />
    <glyph glyph-name="onequarter" unicode="&#xbc;" horiz-adv-x="882" 
d="M252 302q0 -15 16 -18l71 -11v-46h-268v46l79 11q17 2 17 18v195q-21 -8 -46 -12t-49 -6l-10 44q33 8 69 25.5t67 42.5l54 -9v-280zM246 0l345 572h79l-346 -572h-78zM520 104q43 64 82 128t69 128h78l13 -15q-36 -70 -68 -116.5t-61 -77.5t-55 -52l-16 13l284 16v-60
h-299zM703 110l16 98h65v-208h-81v110z" />
    <glyph glyph-name="onehalf" unicode="&#xbd;" horiz-adv-x="902" 
d="M252 302q0 -15 16 -18l71 -11v-46h-268v46l79 11q17 2 17 18v195q-21 -8 -46 -12t-49 -6l-10 44q33 8 69 25.5t67 42.5l54 -9v-280zM245 0l345 572h79l-346 -572h-78zM550 39q64 51 106 86t62 61.5t20 54.5q0 27 -17 42.5t-43 15.5q-27 0 -47 -13.5t-36 -31.5l-28 23
q12 33 48.5 60t90.5 27q56 0 90.5 -31t34.5 -78q0 -33 -18 -61t-49 -53.5t-70.5 -51t-82.5 -52.5l-6 20h110q33 0 47.5 6.5t19.5 15.5l21 41l46 -5q-2 -26 -7 -58t-12 -57h-268z" />
    <glyph glyph-name="threequarters" unicode="&#xbe;" horiz-adv-x="872" 
d="M168 222q-42 0 -77 14.5t-57 42.5l26 32q16 -15 40.5 -24.5t49.5 -9.5q38 0 60.5 17t22.5 42t-17.5 38t-38.5 16q-15 -3 -26.5 -5t-23.5 -4l-9 43q27 3 51 11.5t39.5 22t15.5 32.5q0 21 -19 32t-43 11q-22 0 -42.5 -7.5t-37.5 -23.5l-23 27q19 31 55.5 46.5t76.5 15.5
q54 0 87.5 -25.5t33.5 -64.5q0 -24 -13.5 -41.5t-34 -28.5t-41.5 -15q26 0 50 -9t39 -27.5t15 -46.5q0 -33 -21 -58t-57 -39t-81 -14zM236 0l345 572h79l-346 -572h-78zM510 104q43 64 82 128t69 128h78l13 -15q-36 -70 -68 -116.5t-61 -77.5t-55 -52l-16 13l284 16v-60
h-299zM693 110l16 98h65v-208h-81v110z" />
    <glyph glyph-name="questiondown" unicode="&#xbf;" horiz-adv-x="405" 
d="M261 239q9 -17 18 -41t9 -45q0 -29 -19.5 -51t-51.5 -48q-39 -33 -58 -62.5t-19 -63.5q0 -32 18 -52.5t51 -20.5q17 0 31 5.5t23 16.5q8 8 11 16.5t4 19.5l10 79h67q10 -31 17 -67t9 -72q-28 -24 -74.5 -40t-96.5 -16q-54 0 -96.5 21t-67 57.5t-24.5 80.5q0 37 15.5 65.5
t42 52t57.5 45.5q23 17 33 25.5t13 17t6 23.5l7 54h65zM227 425q30 0 47.5 -16.5t17.5 -42.5q0 -28 -17.5 -44.5t-47.5 -16.5t-48 16.5t-18 44.5q0 26 18 42.5t48 16.5z" />
    <glyph glyph-name="Agrave" unicode="&#xc0;" horiz-adv-x="577" 
d="M148 225h233l20 -56h-269zM515 77q4 -14 21 -18l44 -12v-47h-254v47l71 13l-151 467h30l-145 -467l70 -13v-47h-205v47l48 12q15 4 20 18l168 497h112zM383 650l-23 -42q-35 13 -74 28t-75 32.5t-60 36.5l53 72z" />
    <glyph glyph-name="Aacute" unicode="&#xc1;" horiz-adv-x="577" 
d="M148 225h233l20 -56h-269zM515 77q4 -14 21 -18l44 -12v-47h-254v47l71 13l-151 467h30l-145 -467l70 -13v-47h-205v47l48 12q15 4 20 18l168 497h112zM219 611l-20 40l186 122l51 -74q-25 -18 -62.5 -34t-78 -30t-76.5 -24z" />
    <glyph glyph-name="Acircumflex" unicode="&#xc2;" horiz-adv-x="577" 
d="M148 225h233l20 -56h-269zM515 77q4 -14 21 -18l44 -12v-47h-254v47l71 13l-151 467h30l-145 -467l70 -13v-47h-205v47l48 12q15 4 20 18l168 497h112zM135 643l112 116l75 4l121 -117l-33 -38l-126 74l-118 -75z" />
    <glyph glyph-name="Atilde" unicode="&#xc3;" horiz-adv-x="577" 
d="M148 225h233l20 -56h-269zM515 77q4 -14 21 -18l44 -12v-47h-254v47l71 13l-151 467h30l-145 -467l70 -13v-47h-205v47l48 12q15 4 20 18l168 497h112zM345 619q-28 0 -49.5 12t-39.5 24.5t-37 12.5t-33.5 -14t-26.5 -31l-34 19q7 26 22 49.5t37 38t49 14.5
q28 0 49.5 -12.5t40 -24.5t36.5 -12t33 13.5t27 31.5l35 -19q-7 -26 -22.5 -49.5t-37 -38t-49.5 -14.5z" />
    <glyph glyph-name="Adieresis" unicode="&#xc4;" horiz-adv-x="577" 
d="M148 225h233l20 -56h-269zM515 77q4 -14 21 -18l44 -12v-47h-254v47l71 13l-151 467h30l-145 -467l70 -13v-47h-205v47l48 12q15 4 20 18l168 497h112zM250 677q0 -26 -15 -42t-41 -16t-41 16t-15 42t15 41.5t41 15.5t41 -15.5t15 -41.5zM440 677q0 -26 -15 -42t-41 -16
t-41 16t-15 42t15 41.5t41 15.5t41 -15.5t15 -41.5z" />
    <glyph glyph-name="Aring" unicode="&#xc5;" horiz-adv-x="577" 
d="M148 225h233l20 -56h-269zM515 77q4 -14 21 -18l44 -12v-47h-254v47l71 13l-151 467h30l-145 -467l70 -13v-47h-205v47l48 12q15 4 20 18l168 497h112zM288 561q-53 0 -82 25.5t-28 69.5q1 43 34.5 68t80.5 25q53 0 79.5 -26.5t26.5 -67.5q0 -44 -32.5 -69t-78.5 -25z
M289 605q23 0 35 12t12 36q0 22 -11 36.5t-36 14.5q-22 0 -34.5 -12t-12.5 -35q0 -21 11.5 -36.5t35.5 -15.5z" />
    <glyph glyph-name="AE" unicode="&#xc6;" horiz-adv-x="773" 
d="M290 0v47l58 11q17 3 17 21v493h346q4 -37 4 -74t-3 -76h-57l-18 68q-5 16 -21 23q-11 3 -28.5 5.5t-37.5 2.5h-71v-203l163 6v-68l-163 4v-206h88q20 0 40 2t31 6q8 4 12 9t7 15l31 86l56 -9q0 -41 -3.5 -81t-10.5 -82h-440zM-5 0v47l53 12q13 3 20 17l212 496h113
l-6 -57h-60l-191 -457l72 -11v-47h-213zM162 205l17 56h230v-56h-247zM271 505l-112 18v49h140z" />
    <glyph glyph-name="Ccedilla" unicode="&#xc7;" horiz-adv-x="528" 
d="M298 -9q-132 0 -196 73.5t-64 209.5q0 105 34.5 173t97 101t147.5 33q41 0 86.5 -7.5t84.5 -21.5q2 -35 0.5 -74.5t-8.5 -81.5h-70l-19 90q-3 8 -7 15t-13 13q-11 7 -29 12t-38 5q-62 0 -97 -56.5t-35 -186.5q0 -78 13.5 -133t43.5 -84t77 -29q20 0 39 5t33 17
q5 5 9 10.5t7 16.5l25 81l69 -6q2 -32 0.5 -69t-7.5 -75q-36 -13 -86 -22t-97 -9zM312 19l-15 -51h6h7q30 -2 49 -19.5t19 -46.5q0 -42 -39 -67.5t-100 -25.5h-11t-10 1l-6 39q37 3 56.5 16.5t19.5 32.5q0 17 -13 25t-32 9l29 87h40z" />
    <glyph glyph-name="Egrave" unicode="&#xc8;" horiz-adv-x="522" 
d="M405 422l-18 68q-6 17 -21 23q-11 3 -29 5.5t-37 2.5h-71v-200l163 6v-69l-163 4v-208h88q20 0 40 2t31 6q8 4 12 9t7 15l30 86l57 -9q0 -41 -4 -81t-11 -82h-444v47l57 11q18 3 18 21v411q0 18 -18 21l-57 12v49h426q4 -37 4 -74t-3 -76h-57zM364 650l-23 -42
q-35 13 -74 28t-75 32.5t-60 36.5l53 72z" />
    <glyph glyph-name="Eacute" unicode="&#xc9;" horiz-adv-x="522" 
d="M405 422l-18 68q-6 17 -21 23q-11 3 -29 5.5t-37 2.5h-71v-200l163 6v-69l-163 4v-208h88q20 0 40 2t31 6q8 4 12 9t7 15l30 86l57 -9q0 -41 -4 -81t-11 -82h-444v47l57 11q18 3 18 21v411q0 18 -18 21l-57 12v49h426q4 -37 4 -74t-3 -76h-57zM200 611l-20 40l186 122
l51 -74q-25 -18 -62.5 -34t-78 -30t-76.5 -24z" />
    <glyph glyph-name="Ecircumflex" unicode="&#xca;" horiz-adv-x="522" 
d="M405 422l-18 68q-6 17 -21 23q-11 3 -29 5.5t-37 2.5h-71v-200l163 6v-69l-163 4v-208h88q20 0 40 2t31 6q8 4 12 9t7 15l30 86l57 -9q0 -41 -4 -81t-11 -82h-444v47l57 11q18 3 18 21v411q0 18 -18 21l-57 12v49h426q4 -37 4 -74t-3 -76h-57zM116 643l112 116l75 4
l121 -117l-33 -38l-126 74l-118 -75z" />
    <glyph glyph-name="Edieresis" unicode="&#xcb;" horiz-adv-x="522" 
d="M405 422l-18 68q-6 17 -21 23q-11 3 -29 5.5t-37 2.5h-71v-200l163 6v-69l-163 4v-208h88q20 0 40 2t31 6q8 4 12 9t7 15l30 86l57 -9q0 -41 -4 -81t-11 -82h-444v47l57 11q18 3 18 21v411q0 18 -18 21l-57 12v49h426q4 -37 4 -74t-3 -76h-57zM231 677q0 -26 -15 -42
t-41 -16t-41 16t-15 42t15 41.5t41 15.5t41 -15.5t15 -41.5zM421 677q0 -26 -15 -42t-41 -16t-41 16t-15 42t15 41.5t41 15.5t41 -15.5t15 -41.5z" />
    <glyph glyph-name="Igrave" unicode="&#xcc;" horiz-adv-x="337" 
d="M303 523l-57 -12q-17 -3 -17 -21v-410q0 -19 17 -22l57 -11v-47h-268v47l57 11q18 3 18 21v411q0 18 -18 21l-57 12v49h268v-49zM263 650l-23 -42q-35 13 -74 28t-75 32.5t-60 36.5l53 72z" />
    <glyph glyph-name="Iacute" unicode="&#xcd;" horiz-adv-x="337" 
d="M303 523l-57 -12q-17 -3 -17 -21v-410q0 -19 17 -22l57 -11v-47h-268v47l57 11q18 3 18 21v411q0 18 -18 21l-57 12v49h268v-49zM99 611l-20 40l186 122l51 -74q-25 -18 -62.5 -34t-78 -30t-76.5 -24z" />
    <glyph glyph-name="Icircumflex" unicode="&#xce;" horiz-adv-x="337" 
d="M303 523l-57 -12q-17 -3 -17 -21v-410q0 -19 17 -22l57 -11v-47h-268v47l57 11q18 3 18 21v411q0 18 -18 21l-57 12v49h268v-49zM15 643l112 116l75 4l121 -117l-33 -38l-126 74l-118 -75z" />
    <glyph glyph-name="Idieresis" unicode="&#xcf;" horiz-adv-x="337" 
d="M303 523l-57 -12q-17 -3 -17 -21v-410q0 -19 17 -22l57 -11v-47h-268v47l57 11q18 3 18 21v411q0 18 -18 21l-57 12v49h268v-49zM82 619q-25 0 -40.5 16t-15.5 42t15.5 41.5t40.5 15.5q26 0 41.5 -15.5t15.5 -41.5t-15.5 -42t-41.5 -16zM256 619q-26 0 -41 16t-15 42
t15 41.5t41 15.5q25 0 40.5 -15.5t15.5 -41.5t-15.5 -42t-40.5 -16z" />
    <glyph glyph-name="Eth" unicode="&#xd0;" horiz-adv-x="613" 
d="M40 319h294v-56h-294v56zM299 576q139 0 207 -66.5t68 -204.5q0 -153 -75.5 -233t-208.5 -78q-17 1 -39 2t-44 2.5t-37 1.5h-134v47l58 11q16 3 16 19v416q0 15 -15 18l-59 12v49h132q37 0 68 2t63 2zM293 46q48 1 82 24t52 75.5t18 140.5q0 117 -37.5 179t-121.5 62
q-20 0 -35.5 -2.5t-21.5 -3.5v-467q12 -4 30 -6t34 -2z" />
    <glyph glyph-name="Ntilde" unicode="&#xd1;" horiz-adv-x="654" 
d="M573 511q-18 -3 -18 -21v-490h-106l-297 479l26 3v-403q0 -18 18 -21l66 -11v-47h-227v47l57 11q18 3 18 21v411q0 18 -18 21l-57 12v49h196l281 -451l-25 -3v372q0 18 -18 21l-60 12v49h216v-49zM385 619q-28 0 -49.5 12t-39.5 24.5t-37 12.5t-33.5 -14t-26.5 -31
l-34 19q7 26 22 49.5t37 38t49 14.5q28 0 49.5 -12.5t40 -24.5t36.5 -12t33 13.5t27 31.5l35 -19q-7 -26 -22.5 -49.5t-37 -38t-49.5 -14.5z" />
    <glyph glyph-name="Ograve" unicode="&#xd2;" horiz-adv-x="582" 
d="M281 -9q-124 0 -183.5 76t-59.5 209q0 97 31 165t89.5 104t141.5 36q125 0 184.5 -76.5t59.5 -208.5q0 -97 -30.5 -165t-89.5 -104t-143 -36zM292 529q-60 0 -92 -58.5t-32 -187.5q0 -125 30.5 -183t90.5 -58t92 59t32 189q0 125 -30 182t-91 57zM385 650l-23 -42
q-35 13 -74 28t-75 32.5t-60 36.5l53 72z" />
    <glyph glyph-name="Oacute" unicode="&#xd3;" horiz-adv-x="582" 
d="M281 -9q-124 0 -183.5 76t-59.5 209q0 97 31 165t89.5 104t141.5 36q125 0 184.5 -76.5t59.5 -208.5q0 -97 -30.5 -165t-89.5 -104t-143 -36zM292 529q-60 0 -92 -58.5t-32 -187.5q0 -125 30.5 -183t90.5 -58t92 59t32 189q0 125 -30 182t-91 57zM221 611l-20 40l186 122
l51 -74q-25 -18 -62.5 -34t-78 -30t-76.5 -24z" />
    <glyph glyph-name="Ocircumflex" unicode="&#xd4;" horiz-adv-x="582" 
d="M281 -9q-124 0 -183.5 76t-59.5 209q0 97 31 165t89.5 104t141.5 36q125 0 184.5 -76.5t59.5 -208.5q0 -97 -30.5 -165t-89.5 -104t-143 -36zM292 529q-60 0 -92 -58.5t-32 -187.5q0 -125 30.5 -183t90.5 -58t92 59t32 189q0 125 -30 182t-91 57zM137 643l112 116l75 4
l121 -117l-33 -38l-126 74l-118 -75z" />
    <glyph glyph-name="Otilde" unicode="&#xd5;" horiz-adv-x="582" 
d="M281 -9q-124 0 -183.5 76t-59.5 209q0 97 31 165t89.5 104t141.5 36q125 0 184.5 -76.5t59.5 -208.5q0 -97 -30.5 -165t-89.5 -104t-143 -36zM292 529q-60 0 -92 -58.5t-32 -187.5q0 -125 30.5 -183t90.5 -58t92 59t32 189q0 125 -30 182t-91 57zM347 619q-28 0 -49.5 12
t-39.5 24.5t-37 12.5t-33.5 -14t-26.5 -31l-34 19q7 26 22 49.5t37 38t49 14.5q28 0 49.5 -12.5t40 -24.5t36.5 -12t33 13.5t27 31.5l35 -19q-7 -26 -22.5 -49.5t-37 -38t-49.5 -14.5z" />
    <glyph glyph-name="Odieresis" unicode="&#xd6;" horiz-adv-x="582" 
d="M281 -9q-124 0 -183.5 76t-59.5 209q0 97 31 165t89.5 104t141.5 36q125 0 184.5 -76.5t59.5 -208.5q0 -97 -30.5 -165t-89.5 -104t-143 -36zM292 529q-60 0 -92 -58.5t-32 -187.5q0 -125 30.5 -183t90.5 -58t92 59t32 189q0 125 -30 182t-91 57zM252 677q0 -26 -15 -42
t-41 -16t-41 16t-15 42t15 41.5t41 15.5t41 -15.5t15 -41.5zM442 677q0 -26 -15 -42t-41 -16t-41 16t-15 42t15 41.5t41 15.5t41 -15.5t15 -41.5z" />
    <glyph glyph-name="multiply" unicode="&#xd7;" horiz-adv-x="435" 
d="M167 243l-110 106l55 58l106 -115l105 115l56 -58l-111 -106l111 -106l-56 -58l-105 115l-106 -115l-55 58z" />
    <glyph glyph-name="Oslash" unicode="&#xd8;" horiz-adv-x="582" 
d="M279 -9q-125 0 -184 76t-59 209q0 97 30.5 165t89 104t142.5 36q125 0 184.5 -76.5t59.5 -208.5q0 -97 -30.5 -165.5t-89.5 -104t-143 -35.5zM148 -78l-53 27l47 92l17 16l218 470l6 20l47 95l52 -28l-44 -89l-17 -16l-219 -469l-5 -21zM287 41q63 0 96.5 58t33.5 191
q0 128 -31.5 184t-95.5 56t-97 -57.5t-33 -189.5q0 -128 31.5 -185t95.5 -57z" />
    <glyph glyph-name="Ugrave" unicode="&#xd9;" horiz-adv-x="625" 
d="M592 572v-49l-41 -11q-17 -4 -17 -21v-281q0 -79 -27 -127t-76 -70t-117 -22q-115 0 -170.5 53.5t-55.5 171.5v275q0 16 -17 21l-38 11v49h255v-49l-60 -12q-18 -4 -18 -22v-284q0 -54 13 -91t40.5 -55t69.5 -18q70 0 97.5 44t27.5 119v286q0 18 -17 21l-61 12v49h212z
M415 650l-23 -42q-35 13 -74 28t-75 32.5t-60 36.5l53 72z" />
    <glyph glyph-name="Uacute" unicode="&#xda;" horiz-adv-x="625" 
d="M592 572v-49l-41 -11q-17 -4 -17 -21v-281q0 -79 -27 -127t-76 -70t-117 -22q-115 0 -170.5 53.5t-55.5 171.5v275q0 16 -17 21l-38 11v49h255v-49l-60 -12q-18 -4 -18 -22v-284q0 -54 13 -91t40.5 -55t69.5 -18q70 0 97.5 44t27.5 119v286q0 18 -17 21l-61 12v49h212z
M251 611l-20 40l186 122l51 -74q-25 -18 -62.5 -34t-78 -30t-76.5 -24z" />
    <glyph glyph-name="Ucircumflex" unicode="&#xdb;" horiz-adv-x="625" 
d="M592 572v-49l-41 -11q-17 -4 -17 -21v-281q0 -79 -27 -127t-76 -70t-117 -22q-115 0 -170.5 53.5t-55.5 171.5v275q0 16 -17 21l-38 11v49h255v-49l-60 -12q-18 -4 -18 -22v-284q0 -54 13 -91t40.5 -55t69.5 -18q70 0 97.5 44t27.5 119v286q0 18 -17 21l-61 12v49h212z
M167 643l112 116l75 4l121 -117l-33 -38l-126 74l-118 -75z" />
    <glyph glyph-name="Udieresis" unicode="&#xdc;" horiz-adv-x="625" 
d="M592 572v-49l-41 -11q-17 -4 -17 -21v-281q0 -79 -27 -127t-76 -70t-117 -22q-115 0 -170.5 53.5t-55.5 171.5v275q0 16 -17 21l-38 11v49h255v-49l-60 -12q-18 -4 -18 -22v-284q0 -54 13 -91t40.5 -55t69.5 -18q70 0 97.5 44t27.5 119v286q0 18 -17 21l-61 12v49h212z
M282 677q0 -26 -15 -42t-41 -16t-41 16t-15 42t15 41.5t41 15.5t41 -15.5t15 -41.5zM472 677q0 -26 -15 -42t-41 -16t-41 16t-15 42t15 41.5t41 15.5t41 -15.5t15 -41.5z" />
    <glyph glyph-name="Yacute" unicode="&#xdd;" horiz-adv-x="544" 
d="M232 192l-172 304q-7 12 -22 16l-45 11v49h259v-49l-60 -14l129 -248h-34l121 248l-66 14v49h198v-49l-43 -10q-7 -2 -12.5 -6t-8.5 -10l-154 -305h-90zM127 0v47l70 14q18 3 18 20v156h122v-156q0 -17 18 -20l69 -14v-47h-297zM211 611l-20 40l186 122l51 -74
q-25 -18 -62.5 -34t-78 -30t-76.5 -24z" />
    <glyph glyph-name="Thorn" unicode="&#xde;" horiz-adv-x="526" 
d="M38 0v47l50 11q18 3 18 21v411q0 18 -18 21l-50 12v49h263v-49l-60 -12q-18 -3 -18 -21v-410q0 -19 18 -22l60 -11v-47h-263zM305 121q-29 0 -51 1.5t-44 3.5v49q20 -3 39 -4.5t36 -1.5q40 0 64.5 28t24.5 94q0 47 -20 77.5t-72 30.5q-18 0 -37 -1.5t-38 -4.5v48
q31 3 62.5 6t59.5 3q84 0 127 -37t43 -117q0 -91 -50.5 -133t-143.5 -42z" />
    <glyph glyph-name="germandbls" unicode="&#xdf;" horiz-adv-x="589" 
d="M400 -10q-41 0 -78 9t-63 21q-3 24 -3 50q0 18 1 35.5t4 32.5h57l15 -54q4 -13 7 -19t10 -11q8 -7 21 -12.5t29 -5.5q25 0 41.5 14t16.5 38q0 33 -25 54t-63 43q-25 15 -45.5 31.5t-32.5 38t-12 50.5t12.5 52t33 40t45.5 28q4 16 6 31.5t2 29.5q0 43 -23 70t-67 27
q-40 0 -62.5 -26t-22.5 -88v-469h-172v47l41 7q17 3 17 21v362q0 43 18.5 82t51 69t74.5 48t88 18q45 0 84 -17.5t63.5 -51t24.5 -82.5q0 -21 -5 -45.5t-14 -48.5q-39 -9 -62.5 -27t-23.5 -44q0 -25 20.5 -42.5t58.5 -39.5q49 -28 75.5 -58t26.5 -78q0 -65 -48.5 -97.5
t-121.5 -32.5zM102 353l-76 12v45l76 14h30v-71h-30z" />
    <glyph glyph-name="agrave" unicode="&#xe0;" horiz-adv-x="450" 
d="M147 -8q-53 0 -86 28t-33 76q0 41 23 67t60 39.5t78 15.5l96 6v-44l-69 -6q-38 -1 -54.5 -19t-16.5 -46q0 -26 11.5 -39t37.5 -13t50.5 11.5t38.5 29.5l10 -25q-20 -38 -58 -59.5t-88 -21.5zM40 333q17 46 62 71.5t114 25.5q84 0 122 -39t38 -118v-195q0 -20 20 -22
l37 -5v-44q-13 -4 -36.5 -9t-43.5 -5q-36 0 -58.5 17t-28.5 56v202q0 48 -21.5 67t-61.5 19q-34 0 -63 -10.5t-54 -33.5zM299 500l-32 -37q-34 20 -66 43t-58.5 47.5t-44.5 46.5l65 60z" />
    <glyph glyph-name="aacute" unicode="&#xe1;" horiz-adv-x="450" 
d="M147 -8q-53 0 -86 28t-33 76q0 41 23 67t60 39.5t78 15.5l96 6v-44l-69 -6q-38 -1 -54.5 -19t-16.5 -46q0 -26 11.5 -39t37.5 -13t50.5 11.5t38.5 29.5l10 -25q-20 -38 -58 -59.5t-88 -21.5zM40 333q17 46 62 71.5t114 25.5q84 0 122 -39t38 -118v-195q0 -20 20 -22
l37 -5v-44q-13 -4 -36.5 -9t-43.5 -5q-36 0 -58.5 17t-28.5 56v202q0 48 -21.5 67t-61.5 19q-34 0 -63 -10.5t-54 -33.5zM152 498l140 162l65 -60q-17 -22 -45 -46.5t-62 -47.5t-68 -43z" />
    <glyph glyph-name="acircumflex" unicode="&#xe2;" horiz-adv-x="450" 
d="M147 -8q-53 0 -86 28t-33 76q0 41 23 67t60 39.5t78 15.5l96 6v-44l-69 -6q-38 -1 -54.5 -19t-16.5 -46q0 -26 11.5 -39t37.5 -13t50.5 11.5t38.5 29.5l10 -25q-20 -38 -58 -59.5t-88 -21.5zM40 333q17 46 62 71.5t114 25.5q84 0 122 -39t38 -118v-195q0 -20 20 -22
l37 -5v-44q-13 -4 -36.5 -9t-43.5 -5q-36 0 -58.5 17t-28.5 56v202q0 48 -21.5 67t-61.5 19q-34 0 -63 -10.5t-54 -33.5zM69 499l106 142l73 7l118 -146l-38 -36l-116 95l-107 -96z" />
    <glyph glyph-name="atilde" unicode="&#xe3;" horiz-adv-x="450" 
d="M147 -8q-53 0 -86 28t-33 76q0 41 23 67t60 39.5t78 15.5l96 6v-44l-69 -6q-38 -1 -54.5 -19t-16.5 -46q0 -26 11.5 -39t37.5 -13t50.5 11.5t38.5 29.5l10 -25q-20 -38 -58 -59.5t-88 -21.5zM40 333q17 46 62 71.5t114 25.5q84 0 122 -39t38 -118v-195q0 -20 20 -22
l37 -5v-44q-13 -4 -36.5 -9t-43.5 -5q-36 0 -58.5 17t-28.5 56v202q0 48 -21.5 67t-61.5 19q-34 0 -63 -10.5t-54 -33.5zM270 476q-26 0 -46.5 13t-38 26t-35.5 13t-32.5 -14.5t-24.5 -33.5l-34 20q10 41 36.5 73t67.5 32q27 0 47.5 -13t38 -25.5t35.5 -12.5t32 14t25 33
l35 -19q-11 -41 -37.5 -73.5t-68.5 -32.5z" />
    <glyph glyph-name="adieresis" unicode="&#xe4;" horiz-adv-x="450" 
d="M147 -8q-53 0 -86 28t-33 76q0 41 23 67t60 39.5t78 15.5l96 6v-44l-69 -6q-38 -1 -54.5 -19t-16.5 -46q0 -26 11.5 -39t37.5 -13t50.5 11.5t38.5 29.5l10 -25q-20 -38 -58 -59.5t-88 -21.5zM40 333q17 46 62 71.5t114 25.5q84 0 122 -39t38 -118v-195q0 -20 20 -22
l37 -5v-44q-13 -4 -36.5 -9t-43.5 -5q-36 0 -58.5 17t-28.5 56v202q0 48 -21.5 67t-61.5 19q-34 0 -63 -10.5t-54 -33.5zM188 540q0 -27 -15.5 -42.5t-40.5 -15.5q-26 0 -41.5 15.5t-15.5 42.5q0 26 16 41.5t41 15.5t40.5 -15.5t15.5 -41.5zM358 540q0 -27 -15 -42.5
t-40 -15.5q-26 0 -41.5 15.5t-15.5 42.5q0 26 15.5 41.5t41.5 15.5q25 0 40 -15.5t15 -41.5z" />
    <glyph glyph-name="aring" unicode="&#xe5;" horiz-adv-x="450" 
d="M147 -8q-53 0 -86 28t-33 76q0 41 23 67t60 39.5t78 15.5l96 6v-44l-69 -6q-38 -1 -54.5 -19t-16.5 -46q0 -26 11.5 -39t37.5 -13t50.5 11.5t38.5 29.5l10 -25q-20 -38 -58 -59.5t-88 -21.5zM40 333q17 46 62 71.5t114 25.5q84 0 122 -39t38 -118v-195q0 -20 20 -22
l37 -5v-44q-13 -4 -36.5 -9t-43.5 -5q-36 0 -58.5 17t-28.5 56v202q0 48 -21.5 67t-61.5 19q-34 0 -63 -10.5t-54 -33.5zM216 471q-52 0 -79.5 25t-26.5 68q0 41 32.5 65t78.5 24q52 0 78 -26t26 -65q0 -42 -32.5 -66.5t-76.5 -24.5zM217 516q21 0 32.5 11t11.5 33
q0 20 -10.5 34t-33.5 14q-21 0 -32 -11.5t-11 -33.5q0 -19 10.5 -33t32.5 -14z" />
    <glyph glyph-name="ae" unicode="&#xe6;" horiz-adv-x="656" 
d="M452 -10q-64 0 -105.5 26.5t-61 74t-19.5 110.5q0 104 50 167t147 63q79 0 119.5 -39.5t40.5 -105.5q0 -13 -1.5 -29t-4.5 -29h-277v45h178v9v9q0 40 -16.5 65.5t-49.5 25.5q-35 0 -55 -35.5t-20 -121.5q0 -60 12.5 -96t37 -52t59.5 -16q31 0 59.5 12t46.5 36l28 -19
q-15 -50 -61.5 -75t-106.5 -25zM266 191v78q0 47 -21.5 66t-63.5 19q-30 0 -60.5 -10.5t-54.5 -33.5l-26 23q11 32 36 53.5t59 32.5t73 11q55 0 87 -21.5t46.5 -60.5t16.5 -93zM151 -8q-58 0 -90.5 28t-32.5 76q0 41 23 67t60.5 39.5t78.5 15.5l97 6v-44l-71 -6
q-39 -2 -55 -19.5t-16 -44.5q0 -26 11.5 -39.5t37.5 -13.5q28 0 56.5 14t50.5 39l14 -24q-21 -44 -64.5 -69t-99.5 -25z" />
    <glyph glyph-name="ccedilla" unicode="&#xe7;" horiz-adv-x="413" 
d="M33 204q0 71 26 121.5t72.5 78t109.5 27.5q38 0 75 -9t61 -22q2 -34 -0.5 -69t-7.5 -67h-56l-19 69q-4 12 -7 19t-8 12q-7 6 -18 10t-25 4q-35 0 -58 -36.5t-23 -119.5q0 -81 25.5 -121t79.5 -40q32 0 57 12t39 26l26 -21q-14 -39 -55.5 -63.5t-103.5 -24.5
q-65 0 -107 28t-62.5 76.5t-20.5 109.5zM236 19l-15 -51h6h7q30 -2 49 -19.5t19 -46.5q0 -42 -39 -67.5t-100 -25.5h-11t-10 1l-6 39q37 3 56.5 16.5t19.5 32.5q0 17 -13 25t-32 9l29 87h40z" />
    <glyph glyph-name="egrave" unicode="&#xe8;" horiz-adv-x="430" 
d="M34 206q0 108 53 166.5t149 58.5q80 0 120 -40t40 -105q0 -14 -1 -29.5t-4 -28.5h-278v45h177q1 5 1 9v10q0 39 -16 64.5t-49 25.5q-35 0 -55.5 -34t-20.5 -121q0 -59 11.5 -95.5t35.5 -53.5t62 -17q31 0 60 12t48 36l27 -19q-14 -48 -59 -74t-110 -26q-66 0 -108 27
t-62.5 75.5t-20.5 113.5zM306 500l-32 -37q-34 20 -66 43t-58.5 47.5t-44.5 46.5l65 60z" />
    <glyph glyph-name="eacute" unicode="&#xe9;" horiz-adv-x="430" 
d="M34 206q0 108 53 166.5t149 58.5q80 0 120 -40t40 -105q0 -14 -1 -29.5t-4 -28.5h-278v45h177q1 5 1 9v10q0 39 -16 64.5t-49 25.5q-35 0 -55.5 -34t-20.5 -121q0 -59 11.5 -95.5t35.5 -53.5t62 -17q31 0 60 12t48 36l27 -19q-14 -48 -59 -74t-110 -26q-66 0 -108 27
t-62.5 75.5t-20.5 113.5zM159 498l140 162l65 -60q-17 -22 -45 -46.5t-62 -47.5t-68 -43z" />
    <glyph glyph-name="ecircumflex" unicode="&#xea;" horiz-adv-x="430" 
d="M34 206q0 108 53 166.5t149 58.5q80 0 120 -40t40 -105q0 -14 -1 -29.5t-4 -28.5h-278v45h177q1 5 1 9v10q0 39 -16 64.5t-49 25.5q-35 0 -55.5 -34t-20.5 -121q0 -59 11.5 -95.5t35.5 -53.5t62 -17q31 0 60 12t48 36l27 -19q-14 -48 -59 -74t-110 -26q-66 0 -108 27
t-62.5 75.5t-20.5 113.5zM76 499l106 142l73 7l118 -146l-38 -36l-116 95l-107 -96z" />
    <glyph glyph-name="edieresis" unicode="&#xeb;" horiz-adv-x="430" 
d="M34 206q0 108 53 166.5t149 58.5q80 0 120 -40t40 -105q0 -14 -1 -29.5t-4 -28.5h-278v45h177q1 5 1 9v10q0 39 -16 64.5t-49 25.5q-35 0 -55.5 -34t-20.5 -121q0 -59 11.5 -95.5t35.5 -53.5t62 -17q31 0 60 12t48 36l27 -19q-14 -48 -59 -74t-110 -26q-66 0 -108 27
t-62.5 75.5t-20.5 113.5zM195 540q0 -27 -15.5 -42.5t-40.5 -15.5q-26 0 -41.5 15.5t-15.5 42.5q0 26 16 41.5t41 15.5t40.5 -15.5t15.5 -41.5zM365 540q0 -27 -15 -42.5t-40 -15.5q-26 0 -41.5 15.5t-15.5 42.5q0 26 15.5 41.5t41.5 15.5q25 0 40 -15.5t15 -41.5z" />
    <glyph glyph-name="igrave" unicode="&#xec;" horiz-adv-x="283" 
d="M204 76q0 -19 18 -22l41 -7v-47h-232v47l41 7q18 3 18 22v255q0 19 -17 22l-46 8v48q36 11 80.5 15.5t80.5 5.5l16 -15v-339zM214 500l-32 -37q-34 20 -66 43t-58.5 47.5t-44.5 46.5l65 60z" />
    <glyph glyph-name="iacute" unicode="&#xed;" horiz-adv-x="283" 
d="M204 76q0 -19 18 -22l41 -7v-47h-232v47l41 7q18 3 18 22v255q0 19 -17 22l-46 8v48q36 11 80.5 15.5t80.5 5.5l16 -15v-339zM67 498l140 162l65 -60q-17 -22 -45 -46.5t-62 -47.5t-68 -43z" />
    <glyph glyph-name="icircumflex" unicode="&#xee;" horiz-adv-x="283" 
d="M204 76q0 -19 18 -22l41 -7v-47h-232v47l41 7q18 3 18 22v255q0 19 -17 22l-46 8v48q36 11 80.5 15.5t80.5 5.5l16 -15v-339zM-2 497l92 142l73 7l104 -146l-38 -34l-102 96l-94 -96z" />
    <glyph glyph-name="idieresis" unicode="&#xef;" horiz-adv-x="283" 
d="M204 76q0 -19 18 -22l41 -7v-47h-232v47l41 7q18 3 18 22v255q0 19 -17 22l-46 8v48q36 11 80.5 15.5t80.5 5.5l16 -15v-339zM111 540q0 -26 -15.5 -42t-39.5 -16q-26 0 -41.5 16t-15.5 42t15.5 41.5t41.5 15.5q24 0 39.5 -15.5t15.5 -41.5zM266 540q0 -26 -15 -42
t-41 -16t-41 16t-15 42t15 41.5t41 15.5t41 -15.5t15 -41.5z" />
    <glyph glyph-name="eth" unicode="&#xf0;" horiz-adv-x="468" 
d="M432 237q0 -50 -11.5 -94t-35.5 -78t-64 -53.5t-98 -19.5q-89 0 -139 53.5t-50 154.5q0 77 26.5 123t66 66t76.5 20q29 0 57 -11t47.5 -34.5t20.5 -61.5l-8 -2q-14 22 -35.5 34t-49.5 12q-36 0 -57 -31t-21 -116q0 -47 7.5 -82t24 -54.5t45.5 -19.5q42 0 60.5 41.5
t18.5 135.5q0 98 -24 169t-77 124.5t-140 97.5l20 43q113 -28 188.5 -91.5t113.5 -148t38 -177.5zM116 435l-33 52l131 80l125 85l34 -52l-123 -72z" />
    <glyph glyph-name="ntilde" unicode="&#xf1;" horiz-adv-x="539" 
d="M302 0v47l30 7q9 2 13.5 7t4.5 15v182q0 55 -15.5 79t-52.5 24q-27 0 -53 -10.5t-48 -30.5l1 35q29 40 68.5 58t86.5 18q73 0 99.5 -41.5t26.5 -117.5v-196q0 -19 18 -22l41 -7v-47h-220zM31 0v47l42 7q17 3 17 22v255q0 19 -17 22l-46 8v48q35 10 74 15t74 6l17 -15
l12 -74v-265q0 -18 17 -22l30 -7v-47h-220zM325 476q-26 0 -46.5 13t-38 26t-35.5 13t-32.5 -14.5t-24.5 -33.5l-34 20q10 41 36.5 73t67.5 32q27 0 47.5 -13t38 -25.5t35.5 -12.5t32 14t25 33l35 -19q-11 -41 -37.5 -73.5t-68.5 -32.5z" />
    <glyph glyph-name="ograve" unicode="&#xf2;" horiz-adv-x="475" 
d="M318 205q0 60 -7 99t-25.5 57.5t-50.5 18.5q-40 0 -59.5 -37t-19.5 -127q0 -61 7.5 -100t26 -57.5t50.5 -18.5q39 0 58.5 37t19.5 128zM33 206q0 81 28 130.5t76 72t107 22.5q64 0 107.5 -25t66.5 -73t23 -119q0 -82 -27.5 -131t-75 -71t-107.5 -22q-64 0 -108 24.5
t-67 72.5t-23 119zM319 500l-32 -37q-34 20 -66 43t-58.5 47.5t-44.5 46.5l65 60z" />
    <glyph glyph-name="oacute" unicode="&#xf3;" horiz-adv-x="475" 
d="M318 205q0 60 -7 99t-25.5 57.5t-50.5 18.5q-40 0 -59.5 -37t-19.5 -127q0 -61 7.5 -100t26 -57.5t50.5 -18.5q39 0 58.5 37t19.5 128zM33 206q0 81 28 130.5t76 72t107 22.5q64 0 107.5 -25t66.5 -73t23 -119q0 -82 -27.5 -131t-75 -71t-107.5 -22q-64 0 -108 24.5
t-67 72.5t-23 119zM172 498l140 162l65 -60q-17 -22 -45 -46.5t-62 -47.5t-68 -43z" />
    <glyph glyph-name="ocircumflex" unicode="&#xf4;" horiz-adv-x="475" 
d="M318 205q0 60 -7 99t-25.5 57.5t-50.5 18.5q-40 0 -59.5 -37t-19.5 -127q0 -61 7.5 -100t26 -57.5t50.5 -18.5q39 0 58.5 37t19.5 128zM33 206q0 81 28 130.5t76 72t107 22.5q64 0 107.5 -25t66.5 -73t23 -119q0 -82 -27.5 -131t-75 -71t-107.5 -22q-64 0 -108 24.5
t-67 72.5t-23 119zM89 499l106 142l73 7l118 -146l-38 -36l-116 95l-107 -96z" />
    <glyph glyph-name="otilde" unicode="&#xf5;" horiz-adv-x="475" 
d="M318 205q0 60 -7 99t-25.5 57.5t-50.5 18.5q-40 0 -59.5 -37t-19.5 -127q0 -61 7.5 -100t26 -57.5t50.5 -18.5q39 0 58.5 37t19.5 128zM33 206q0 81 28 130.5t76 72t107 22.5q64 0 107.5 -25t66.5 -73t23 -119q0 -82 -27.5 -131t-75 -71t-107.5 -22q-64 0 -108 24.5
t-67 72.5t-23 119zM290 476q-26 0 -46.5 13t-38 26t-35.5 13t-32.5 -14.5t-24.5 -33.5l-34 20q10 41 36.5 73t67.5 32q27 0 47.5 -13t38 -25.5t35.5 -12.5t32 14t25 33l35 -19q-11 -41 -37.5 -73.5t-68.5 -32.5z" />
    <glyph glyph-name="odieresis" unicode="&#xf6;" horiz-adv-x="475" 
d="M318 205q0 60 -7 99t-25.5 57.5t-50.5 18.5q-40 0 -59.5 -37t-19.5 -127q0 -61 7.5 -100t26 -57.5t50.5 -18.5q39 0 58.5 37t19.5 128zM33 206q0 81 28 130.5t76 72t107 22.5q64 0 107.5 -25t66.5 -73t23 -119q0 -82 -27.5 -131t-75 -71t-107.5 -22q-64 0 -108 24.5
t-67 72.5t-23 119zM208 540q0 -27 -15.5 -42.5t-40.5 -15.5q-26 0 -41.5 15.5t-15.5 42.5q0 26 16 41.5t41 15.5t40.5 -15.5t15.5 -41.5zM378 540q0 -27 -15 -42.5t-40 -15.5q-26 0 -41.5 15.5t-15.5 42.5q0 26 15.5 41.5t41.5 15.5q25 0 40 -15.5t15 -41.5z" />
    <glyph glyph-name="divide" unicode="&#xf7;" horiz-adv-x="435" 
d="M48 210v69h339v-69h-339zM277 109q0 -24 -16 -39t-43 -15t-43.5 15t-16.5 39q0 25 16.5 39.5t43.5 14.5t43 -14.5t16 -39.5zM277 379q0 -25 -16 -40t-43 -15t-43.5 15t-16.5 40t16.5 39.5t43.5 14.5t43 -14.5t16 -39.5z" />
    <glyph glyph-name="oslash" unicode="&#xf8;" horiz-adv-x="475" 
d="M231 -10q-64 0 -108 24t-67 72.5t-23 119.5q0 81 28 130.5t76 72t107 22.5q64 0 107.5 -25t66.5 -73.5t23 -119.5q0 -81 -27.5 -130t-75 -71t-107.5 -22zM134 -78l-49 26l40 82l16 16l152 339l5 19l43 87l49 -25l-41 -83l-16 -15l-151 -340l-5 -19zM240 38
q43 0 65.5 37.5t22.5 128.5q0 62 -9 101t-29.5 57.5t-54.5 18.5q-43 0 -65.5 -37t-22.5 -129q0 -61 9 -100t29 -58t55 -19z" />
    <glyph glyph-name="ugrave" unicode="&#xf9;" horiz-adv-x="520" 
d="M357 68q-26 -35 -60 -55.5t-90 -20.5q-66 0 -98 35.5t-32 110.5v195q0 17 -17 22l-41 9v48q35 9 78 13.5t78 4.5l15 -14v-262q0 -55 15.5 -76t50.5 -21q24 0 46 9t42 26zM499 7q-13 -4 -37 -9t-45 -5q-39 0 -60.5 20.5t-28.5 57.5v263q0 18 -17 21l-46 10v48
q37 8 81 12.5t81 4.5l15 -14v-338q0 -12 5 -16.5t14 -5.5l38 -5v-44zM335 500l-32 -37q-34 20 -66 43t-58.5 47.5t-44.5 46.5l65 60z" />
    <glyph glyph-name="uacute" unicode="&#xfa;" horiz-adv-x="520" 
d="M357 68q-26 -35 -60 -55.5t-90 -20.5q-66 0 -98 35.5t-32 110.5v195q0 17 -17 22l-41 9v48q35 9 78 13.5t78 4.5l15 -14v-262q0 -55 15.5 -76t50.5 -21q24 0 46 9t42 26zM499 7q-13 -4 -37 -9t-45 -5q-39 0 -60.5 20.5t-28.5 57.5v263q0 18 -17 21l-46 10v48
q37 8 81 12.5t81 4.5l15 -14v-338q0 -12 5 -16.5t14 -5.5l38 -5v-44zM188 498l140 162l65 -60q-17 -22 -45 -46.5t-62 -47.5t-68 -43z" />
    <glyph glyph-name="ucircumflex" unicode="&#xfb;" horiz-adv-x="520" 
d="M357 68q-26 -35 -60 -55.5t-90 -20.5q-66 0 -98 35.5t-32 110.5v195q0 17 -17 22l-41 9v48q35 9 78 13.5t78 4.5l15 -14v-262q0 -55 15.5 -76t50.5 -21q24 0 46 9t42 26zM499 7q-13 -4 -37 -9t-45 -5q-39 0 -60.5 20.5t-28.5 57.5v263q0 18 -17 21l-46 10v48
q37 8 81 12.5t81 4.5l15 -14v-338q0 -12 5 -16.5t14 -5.5l38 -5v-44zM105 499l106 142l73 7l118 -146l-38 -36l-116 95l-107 -96z" />
    <glyph glyph-name="udieresis" unicode="&#xfc;" horiz-adv-x="520" 
d="M357 68q-26 -35 -60 -55.5t-90 -20.5q-66 0 -98 35.5t-32 110.5v195q0 17 -17 22l-41 9v48q35 9 78 13.5t78 4.5l15 -14v-262q0 -55 15.5 -76t50.5 -21q24 0 46 9t42 26zM499 7q-13 -4 -37 -9t-45 -5q-39 0 -60.5 20.5t-28.5 57.5v263q0 18 -17 21l-46 10v48
q37 8 81 12.5t81 4.5l15 -14v-338q0 -12 5 -16.5t14 -5.5l38 -5v-44zM224 540q0 -27 -15.5 -42.5t-40.5 -15.5q-26 0 -41.5 15.5t-15.5 42.5q0 26 16 41.5t41 15.5t40.5 -15.5t15.5 -41.5zM394 540q0 -27 -15 -42.5t-40 -15.5q-26 0 -41.5 15.5t-15.5 42.5q0 26 15.5 41.5
t41.5 15.5q25 0 40 -15.5t15 -41.5z" />
    <glyph glyph-name="yacute" unicode="&#xfd;" horiz-adv-x="467" 
d="M18 -123q50 7 88.5 16.5t66.5 28.5t49.5 53t38.5 89l92 298l-54 11v48h163v-46l-29 -9q-8 -3 -13 -7t-8 -13l-121 -356q-31 -90 -72.5 -134t-105.5 -44q-24 0 -49 2.5t-46 6.5v56zM260 0h-73l-130 347q-6 15 -22 19l-28 9v46h227v-48l-56 -11l107 -315zM185 498l140 162
l65 -60q-17 -22 -45 -46.5t-62 -47.5t-68 -43z" />
    <glyph glyph-name="thorn" unicode="&#xfe;" horiz-adv-x="482" 
d="M228 -8q-18 0 -38 3t-38 9l7 60q12 -14 30.5 -19t39.5 -5q30 0 52 16t34.5 54t13.5 103q1 80 -21 114.5t-66 34.5q-26 0 -47.5 -9t-31.5 -21l-12 22q23 33 56.5 55t83.5 22q67 0 112.5 -47.5t45.5 -150.5q0 -118 -59.5 -179.5t-161.5 -61.5zM176 640v-745q0 -19 18 -21
l58 -8v-46h-249v46l42 8q18 3 18 21v663q0 18 -18 21l-50 8v45q36 10 82.5 16t83.5 7z" />
    <glyph glyph-name="ydieresis" unicode="&#xff;" horiz-adv-x="467" 
d="M18 -123q50 7 88.5 16.5t66.5 28.5t49.5 53t38.5 89l92 298l-54 11v48h163v-46l-29 -9q-8 -3 -13 -7t-8 -13l-121 -356q-31 -90 -72.5 -134t-105.5 -44q-24 0 -49 2.5t-46 6.5v56zM260 0h-73l-130 347q-6 15 -22 19l-28 9v46h227v-48l-56 -11l107 -315zM221 540
q0 -27 -15.5 -42.5t-40.5 -15.5q-26 0 -41.5 15.5t-15.5 42.5q0 26 16 41.5t41 15.5t40.5 -15.5t15.5 -41.5zM391 540q0 -27 -15 -42.5t-40 -15.5q-26 0 -41.5 15.5t-15.5 42.5q0 26 15.5 41.5t41.5 15.5q25 0 40 -15.5t15 -41.5z" />
    <glyph glyph-name="Amacron" unicode="&#x100;" horiz-adv-x="577" 
d="M148 225h233l20 -56h-269zM515 77q4 -14 21 -18l44 -12v-47h-254v47l71 13l-151 467h30l-145 -467l70 -13v-47h-205v47l48 12q15 4 20 18l168 497h112zM155 708h268v-68h-268v68z" />
    <glyph glyph-name="amacron" unicode="&#x101;" horiz-adv-x="450" 
d="M147 -8q-53 0 -86 28t-33 76q0 41 23 67t60 39.5t78 15.5l96 6v-44l-69 -6q-38 -1 -54.5 -19t-16.5 -46q0 -26 11.5 -39t37.5 -13t50.5 11.5t38.5 29.5l10 -25q-20 -38 -58 -59.5t-88 -21.5zM40 333q17 46 62 71.5t114 25.5q84 0 122 -39t38 -118v-195q0 -20 20 -22
l37 -5v-44q-13 -4 -36.5 -9t-43.5 -5q-36 0 -58.5 17t-28.5 56v202q0 48 -21.5 67t-61.5 19q-34 0 -63 -10.5t-54 -33.5zM87 568h259v-68h-259v68z" />
    <glyph glyph-name="Abreve" unicode="&#x102;" horiz-adv-x="577" 
d="M148 225h233l20 -56h-269zM515 77q4 -14 21 -18l44 -12v-47h-254v47l71 13l-151 467h30l-145 -467l70 -13v-47h-205v47l48 12q15 4 20 18l168 497h112zM288 617q-58 0 -98 33.5t-49 81.5l46 24q19 -32 46 -46.5t59 -14.5q30 0 57.5 14t47.5 47l41 -24q-13 -49 -53 -82
t-97 -33z" />
    <glyph glyph-name="abreve" unicode="&#x103;" horiz-adv-x="450" 
d="M147 -8q-53 0 -86 28t-33 76q0 41 23 67t60 39.5t78 15.5l96 6v-44l-69 -6q-38 -1 -54.5 -19t-16.5 -46q0 -26 11.5 -39t37.5 -13t50.5 11.5t38.5 29.5l10 -25q-20 -38 -58 -59.5t-88 -21.5zM40 333q17 46 62 71.5t114 25.5q84 0 122 -39t38 -118v-195q0 -20 20 -22
l37 -5v-44q-13 -4 -36.5 -9t-43.5 -5q-36 0 -58.5 17t-28.5 56v202q0 48 -21.5 67t-61.5 19q-34 0 -63 -10.5t-54 -33.5zM214 479q-56 0 -95.5 34t-47.5 84l47 24q17 -33 42.5 -49t57.5 -16q31 0 57.5 15.5t46.5 49.5l41 -24q-12 -52 -52 -85t-97 -33z" />
    <glyph glyph-name="Aogonek" unicode="&#x104;" horiz-adv-x="577" 
d="M-4 0v47l48 12q15 4 20 18l168 497h112l171 -497q4 -14 21 -18l44 -12v-47h-254v47l71 13l-151 467h30l-145 -467l70 -13v-47h-205zM454 -188q-41 0 -69.5 18.5t-28.5 55.5q0 39 31 68.5t72 43.5v7l89 -1q-44 -12 -72.5 -37.5t-28.5 -53.5q0 -20 14 -29t35 -9q22 0 43 9
l18 -45q-21 -13 -49 -20t-54 -7zM132 169l16 56h233l20 -56h-269z" />
    <glyph glyph-name="aogonek" unicode="&#x105;" horiz-adv-x="450" 
d="M353 -7q-36 0 -58.5 17t-28.5 56v202q0 48 -21.5 67t-61.5 19q-34 0 -63 -10.5t-54 -33.5l-26 23q17 46 62 71.5t114 25.5q84 0 122 -39t38 -118v-195q0 -20 20 -22l37 -5v-44q-13 -4 -36.5 -9t-43.5 -5zM325 -188q-42 0 -70 18.5t-28 55.5q0 38 30.5 66.5t68.5 43.5v6
l90 2q-44 -12 -71.5 -37.5t-27.5 -53.5q0 -20 13.5 -29t34.5 -9q11 0 22 2.5t22 6.5l16 -45q-20 -13 -47.5 -20t-52.5 -7zM147 -8q-53 0 -86 28t-33 76q0 41 23 67t60 39.5t78 15.5l96 6v-44l-69 -6q-38 -1 -54.5 -19t-16.5 -46q0 -26 11.5 -39t37.5 -13t50.5 11.5
t38.5 29.5l10 -25q-20 -38 -58 -59.5t-88 -21.5z" />
    <glyph glyph-name="Cacute" unicode="&#x106;" horiz-adv-x="528" 
d="M298 -9q-132 0 -196 73.5t-64 209.5q0 105 34.5 173t97 101t147.5 33q41 0 86.5 -7.5t84.5 -21.5q2 -35 0.5 -74.5t-8.5 -81.5h-70l-19 90q-3 8 -7 15t-13 13q-11 7 -29 12t-38 5q-62 0 -97 -56.5t-35 -186.5q0 -78 13.5 -133t43.5 -84t77 -29q20 0 39 5t33 17
q5 5 9 10.5t7 16.5l25 81l69 -6q2 -32 0.5 -69t-7.5 -75q-36 -13 -86 -22t-97 -9zM235 611l-20 40l186 122l51 -74q-25 -18 -62.5 -34t-78 -30t-76.5 -24z" />
    <glyph glyph-name="cacute" unicode="&#x107;" horiz-adv-x="413" 
d="M33 204q0 71 26 121.5t72.5 78t109.5 27.5q38 0 75 -9t61 -22q2 -34 -0.5 -69t-7.5 -67h-56l-19 69q-4 12 -7 19t-8 12q-7 6 -18 10t-25 4q-35 0 -58 -36.5t-23 -119.5q0 -81 25.5 -121t79.5 -40q32 0 57 12t39 26l26 -21q-14 -39 -55.5 -63.5t-103.5 -24.5
q-65 0 -107 28t-62.5 76.5t-20.5 109.5zM163 498l140 162l65 -60q-17 -22 -45 -46.5t-62 -47.5t-68 -43z" />
    <glyph glyph-name="Ccircumflex" unicode="&#x108;" horiz-adv-x="528" 
d="M298 -9q-132 0 -196 73.5t-64 209.5q0 105 34.5 173t97 101t147.5 33q41 0 86.5 -7.5t84.5 -21.5q2 -35 0.5 -74.5t-8.5 -81.5h-70l-19 90q-3 8 -7 15t-13 13q-11 7 -29 12t-38 5q-62 0 -97 -56.5t-35 -186.5q0 -78 13.5 -133t43.5 -84t77 -29q20 0 39 5t33 17
q5 5 9 10.5t7 16.5l25 81l69 -6q2 -32 0.5 -69t-7.5 -75q-36 -13 -86 -22t-97 -9zM151 643l112 116l75 4l121 -117l-33 -38l-126 74l-118 -75z" />
    <glyph glyph-name="ccircumflex" unicode="&#x109;" horiz-adv-x="413" 
d="M33 204q0 71 26 121.5t72.5 78t109.5 27.5q38 0 75 -9t61 -22q2 -34 -0.5 -69t-7.5 -67h-56l-19 69q-4 12 -7 19t-8 12q-7 6 -18 10t-25 4q-35 0 -58 -36.5t-23 -119.5q0 -81 25.5 -121t79.5 -40q32 0 57 12t39 26l26 -21q-14 -39 -55.5 -63.5t-103.5 -24.5
q-65 0 -107 28t-62.5 76.5t-20.5 109.5zM80 499l106 142l73 7l118 -146l-38 -36l-116 95l-107 -96z" />
    <glyph glyph-name="Cdotaccent" unicode="&#x10a;" horiz-adv-x="528" 
d="M298 -9q-132 0 -196 73.5t-64 209.5q0 105 34.5 173t97 101t147.5 33q41 0 86.5 -7.5t84.5 -21.5q2 -35 0.5 -74.5t-8.5 -81.5h-70l-19 90q-3 8 -7 15t-13 13q-11 7 -29 12t-38 5q-62 0 -97 -56.5t-35 -186.5q0 -78 13.5 -133t43.5 -84t77 -29q20 0 39 5t33 17
q5 5 9 10.5t7 16.5l25 81l69 -6q2 -32 0.5 -69t-7.5 -75q-36 -13 -86 -22t-97 -9zM372 686q0 -29 -18 -45.5t-49 -16.5q-30 0 -48.5 16.5t-18.5 45.5q0 28 18.5 45t48.5 17q31 0 49 -17t18 -45z" />
    <glyph glyph-name="cdotaccent" unicode="&#x10b;" horiz-adv-x="413" 
d="M33 204q0 71 26 121.5t72.5 78t109.5 27.5q38 0 75 -9t61 -22q2 -34 -0.5 -69t-7.5 -67h-56l-19 69q-4 12 -7 19t-8 12q-7 6 -18 10t-25 4q-35 0 -58 -36.5t-23 -119.5q0 -81 25.5 -121t79.5 -40q32 0 57 12t39 26l26 -21q-14 -39 -55.5 -63.5t-103.5 -24.5
q-65 0 -107 28t-62.5 76.5t-20.5 109.5zM302 544q0 -28 -18 -45t-47 -17q-30 0 -48 17t-18 45t18 44.5t48 16.5q29 0 47 -16.5t18 -44.5z" />
    <glyph glyph-name="Ccaron" unicode="&#x10c;" horiz-adv-x="528" 
d="M298 -9q-132 0 -196 73.5t-64 209.5q0 105 34.5 173t97 101t147.5 33q41 0 86.5 -7.5t84.5 -21.5q2 -35 0.5 -74.5t-8.5 -81.5h-70l-19 90q-3 8 -7 15t-13 13q-11 7 -29 12t-38 5q-62 0 -97 -56.5t-35 -186.5q0 -78 13.5 -133t43.5 -84t77 -29q20 0 39 5t33 17
q5 5 9 10.5t7 16.5l25 81l69 -6q2 -32 0.5 -69t-7.5 -75q-36 -13 -86 -22t-97 -9zM459 733l-113 -117l-74 -4l-121 118l33 38l126 -75l117 76z" />
    <glyph glyph-name="ccaron" unicode="&#x10d;" horiz-adv-x="413" 
d="M33 204q0 71 26 121.5t72.5 78t109.5 27.5q38 0 75 -9t61 -22q2 -34 -0.5 -69t-7.5 -67h-56l-19 69q-4 12 -7 19t-8 12q-7 6 -18 10t-25 4q-35 0 -58 -36.5t-23 -119.5q0 -81 25.5 -121t79.5 -40q32 0 57 12t39 26l26 -21q-14 -39 -55.5 -63.5t-103.5 -24.5
q-65 0 -107 28t-62.5 76.5t-20.5 109.5zM382 627l-107 -141l-73 -7l-117 146l38 35l115 -95l108 96z" />
    <glyph glyph-name="Dcaron" unicode="&#x10e;" horiz-adv-x="612" 
d="M168 572q36 0 67 2t63 2q140 0 208 -66.5t68 -204.5q0 -153 -76 -233t-209 -78q-16 1 -38.5 2t-44 2.5t-37.5 1.5h-134v47l59 11q16 3 16 19v416q0 15 -16 18l-59 12v49h133zM229 54q11 -4 29.5 -6t34.5 -2q48 1 81.5 24t51.5 75.5t18 140.5q0 117 -37 179t-121 62
q-21 0 -36 -2.5l-21 -3.5v-467zM450 733l-113 -117l-74 -4l-121 118l33 38l126 -75l117 76z" />
    <glyph glyph-name="dcaron" unicode="&#x10f;" horiz-adv-x="500" 
d="M198 -8q-47 0 -84 21.5t-58.5 67t-21.5 118.5q0 76 25.5 127.5t73.5 78t115 26.5q23 0 46.5 -4t36.5 -9l-12 -59q-8 8 -27 14t-39 6q-29 0 -51 -15t-35 -51.5t-13 -99.5q0 -58 10 -92t29.5 -49t44.5 -15q23 0 46.5 8.5t39.5 23.5l13 -18q-21 -34 -56 -56.5t-83 -22.5z
M422 639v-561q0 -12 5 -16.5t14 -5.5l38 -5v-44q-13 -4 -37 -9t-45 -5q-39 0 -60.5 20.5t-28.5 57.5v487q0 18 -17 21l-51 8v45q37 10 83 16t83 7zM469 488l15 205l88 -10q-7 -51 -22 -105.5t-33 -99.5z" />
    <glyph glyph-name="Dcroat" unicode="&#x110;" horiz-adv-x="613" 
d="M40 319h294v-56h-294v56zM299 576q139 0 207 -66.5t68 -204.5q0 -153 -75.5 -233t-208.5 -78q-17 1 -39 2t-44 2.5t-37 1.5h-134v47l58 11q16 3 16 19v416q0 15 -15 18l-59 12v49h132q37 0 68 2t63 2zM293 46q48 1 82 24t52 75.5t18 140.5q0 117 -37.5 179t-121.5 62
q-20 0 -35.5 -2.5t-21.5 -3.5v-467q12 -4 30 -6t34 -2z" />
    <glyph glyph-name="dcroat" unicode="&#x111;" horiz-adv-x="500" 
d="M179 523h295v-50h-295v50zM198 -8q-47 0 -84 21t-58.5 64.5t-21.5 113.5q0 74 25.5 123.5t73.5 74.5t115 25q23 0 46.5 -4t36.5 -9l-12 -59q-8 9 -27 15t-39 6q-29 0 -51 -14.5t-35 -48.5t-13 -94q0 -55 10 -87.5t29.5 -47t44.5 -14.5q23 0 46.5 8.5t39.5 23.5l13 -18
q-21 -34 -56 -56.5t-83 -22.5zM422 639v-561q0 -12 5 -16.5t14 -5.5l38 -5v-44q-13 -4 -37 -9t-45 -5q-39 0 -60.5 20.5t-28.5 57.5v487q0 18 -17 21l-51 8v45q37 10 83 16t83 7z" />
    <glyph glyph-name="Emacron" unicode="&#x112;" horiz-adv-x="522" 
d="M405 422l-18 68q-6 17 -21 23q-11 3 -29 5.5t-37 2.5h-71v-200l163 6v-69l-163 4v-208h88q20 0 40 2t31 6q8 4 12 9t7 15l30 86l57 -9q0 -41 -4 -81t-11 -82h-444v47l57 11q18 3 18 21v411q0 18 -18 21l-57 12v49h426q4 -37 4 -74t-3 -76h-57zM136 708h268v-68h-268v68z
" />
    <glyph glyph-name="emacron" unicode="&#x113;" horiz-adv-x="430" 
d="M34 206q0 108 53 166.5t149 58.5q80 0 120 -40t40 -105q0 -14 -1 -29.5t-4 -28.5h-278v45h177q1 5 1 9v10q0 39 -16 64.5t-49 25.5q-35 0 -55.5 -34t-20.5 -121q0 -59 11.5 -95.5t35.5 -53.5t62 -17q31 0 60 12t48 36l27 -19q-14 -48 -59 -74t-110 -26q-66 0 -108 27
t-62.5 75.5t-20.5 113.5zM94 568h259v-68h-259v68z" />
    <glyph glyph-name="Ebreve" unicode="&#x114;" horiz-adv-x="522" 
d="M405 422l-18 68q-6 17 -21 23q-11 3 -29 5.5t-37 2.5h-71v-200l163 6v-69l-163 4v-208h88q20 0 40 2t31 6q8 4 12 9t7 15l30 86l57 -9q0 -41 -4 -81t-11 -82h-444v47l57 11q18 3 18 21v411q0 18 -18 21l-57 12v49h426q4 -37 4 -74t-3 -76h-57zM269 617q-58 0 -98 33.5
t-49 81.5l46 24q19 -32 46 -46.5t59 -14.5q30 0 57.5 14t47.5 47l41 -24q-13 -49 -53 -82t-97 -33z" />
    <glyph glyph-name="ebreve" unicode="&#x115;" horiz-adv-x="430" 
d="M34 206q0 108 53 166.5t149 58.5q80 0 120 -40t40 -105q0 -14 -1 -29.5t-4 -28.5h-278v45h177q1 5 1 9v10q0 39 -16 64.5t-49 25.5q-35 0 -55.5 -34t-20.5 -121q0 -59 11.5 -95.5t35.5 -53.5t62 -17q31 0 60 12t48 36l27 -19q-14 -48 -59 -74t-110 -26q-66 0 -108 27
t-62.5 75.5t-20.5 113.5zM221 479q-56 0 -95.5 34t-47.5 84l47 24q17 -33 42.5 -49t57.5 -16q31 0 57.5 15.5t46.5 49.5l41 -24q-12 -52 -52 -85t-97 -33z" />
    <glyph glyph-name="Edotaccent" unicode="&#x116;" horiz-adv-x="522" 
d="M405 422l-18 68q-6 17 -21 23q-11 3 -29 5.5t-37 2.5h-71v-200l163 6v-69l-163 4v-208h88q20 0 40 2t31 6q8 4 12 9t7 15l30 86l57 -9q0 -41 -4 -81t-11 -82h-444v47l57 11q18 3 18 21v411q0 18 -18 21l-57 12v49h426q4 -37 4 -74t-3 -76h-57zM337 686q0 -29 -18 -45.5
t-49 -16.5q-30 0 -48.5 16.5t-18.5 45.5q0 28 18.5 45t48.5 17q31 0 49 -17t18 -45z" />
    <glyph glyph-name="edotaccent" unicode="&#x117;" horiz-adv-x="430" 
d="M34 206q0 108 53 166.5t149 58.5q80 0 120 -40t40 -105q0 -14 -1 -29.5t-4 -28.5h-278v45h177q1 5 1 9v10q0 39 -16 64.5t-49 25.5q-35 0 -55.5 -34t-20.5 -121q0 -59 11.5 -95.5t35.5 -53.5t62 -17q31 0 60 12t48 36l27 -19q-14 -48 -59 -74t-110 -26q-66 0 -108 27
t-62.5 75.5t-20.5 113.5zM298 544q0 -28 -18 -45t-47 -17q-30 0 -48 17t-18 45t18 44.5t48 16.5q29 0 47 -16.5t18 -44.5z" />
    <glyph glyph-name="Eogonek" unicode="&#x118;" horiz-adv-x="522" 
d="M35 0v47l57 11q18 3 18 21v411q0 18 -18 21l-57 12v49h426q4 -37 4 -74t-3 -76h-57l-18 68q-6 17 -21 23q-11 3 -29 5.5t-37 2.5h-71v-200l163 6v-69l-163 4v-208h88q20 0 40 2t31 6q8 3 12 8.5t7 15.5l30 86l57 -9q0 -41 -4 -81t-11 -82h-444zM384 -188q-41 0 -69.5 19
t-28.5 55q0 39 31 68t74 44v7l88 -5q-29 -7 -52 -20.5t-36.5 -31t-13.5 -35.5q0 -20 14 -29t35 -9q10 0 21 2.5t22 6.5l18 -45q-21 -13 -48.5 -20t-54.5 -7z" />
    <glyph glyph-name="eogonek" unicode="&#x119;" horiz-adv-x="430" 
d="M258 -10v6l88 28q-39 -32 -59 -57.5t-20 -51.5q0 -21 13.5 -30.5t33.5 -9.5q11 0 22.5 2.5t22.5 6.5l17 -45q-20 -13 -47.5 -20t-53.5 -7q-40 0 -68.5 18.5t-28.5 55.5q0 26 13 46t31.5 34.5t35.5 23.5zM236 431q80 0 120 -39.5t40 -104.5q0 -13 -1 -29.5t-4 -29.5h-278
v45h177q1 5 1 9v11q0 39 -16 64t-49 25q-35 0 -55.5 -35t-20.5 -121q0 -59 11.5 -95t35.5 -53t62 -17q31 0 60 12t48 36l28 -21q-6 -17 -18 -33.5t-30 -30.5q-20 -15 -51 -24.5t-71 -9.5q-66 0 -108 26.5t-62.5 74.5t-20.5 112q0 111 53 169.5t149 58.5z" />
    <glyph glyph-name="Ecaron" unicode="&#x11a;" horiz-adv-x="522" 
d="M405 422l-18 68q-6 17 -21 23q-11 3 -29 5.5t-37 2.5h-71v-200l163 6v-69l-163 4v-208h88q20 0 40 2t31 6q8 4 12 9t7 15l30 86l57 -9q0 -41 -4 -81t-11 -82h-444v47l57 11q18 3 18 21v411q0 18 -18 21l-57 12v49h426q4 -37 4 -74t-3 -76h-57zM424 733l-113 -117l-74 -4
l-121 118l33 38l126 -75l117 76z" />
    <glyph glyph-name="ecaron" unicode="&#x11b;" horiz-adv-x="430" 
d="M34 206q0 108 53 166.5t149 58.5q80 0 120 -40t40 -105q0 -14 -1 -29.5t-4 -28.5h-278v45h177q1 5 1 9v10q0 39 -16 64.5t-49 25.5q-35 0 -55.5 -34t-20.5 -121q0 -59 11.5 -95.5t35.5 -53.5t62 -17q31 0 60 12t48 36l27 -19q-14 -48 -59 -74t-110 -26q-66 0 -108 27
t-62.5 75.5t-20.5 113.5zM378 627l-107 -141l-73 -7l-117 146l38 35l115 -95l108 96z" />
    <glyph glyph-name="Gcircumflex" unicode="&#x11c;" horiz-adv-x="580" 
d="M276 -9q-78 0 -130.5 34.5t-80 99.5t-27.5 154q0 103 34.5 170t98.5 99.5t154 32.5q48 0 95 -9t84 -25q2 -35 -0.5 -71t-6.5 -72h-72l-19 80q-3 11 -7 17t-12 11q-11 8 -28.5 13.5t-41.5 5.5q-44 0 -76 -26t-48.5 -81.5t-16.5 -143.5q0 -69 12.5 -119.5t42.5 -78
t82 -27.5q41 0 71.5 16.5t49.5 47.5l19 -39q-24 -39 -67.5 -64t-109.5 -25zM491 -5l-69 57h-21v180l-80 8v52h233v-52l-39 -6v-226zM167 643l112 116l75 4l121 -117l-33 -38l-126 74l-118 -75z" />
    <glyph glyph-name="gcircumflex" unicode="&#x11d;" horiz-adv-x="478" 
d="M451 -36q0 -49 -30 -86t-84.5 -57t-128.5 -20q-95 0 -138 32.5t-43 82.5q0 46 31.5 70t82.5 36l34 -3q-16 -12 -28 -32.5t-12 -51.5q0 -35 20.5 -57.5t72.5 -22.5q49 0 78.5 22.5t29.5 65.5q0 28 -15 42t-54 14h-81q-66 0 -95 21.5t-29 58.5q0 35 23 56t57 31l32 -8
q-16 -10 -23 -21.5t-7 -24.5q0 -20 18 -28t62 -8h79q72 0 110 -28t38 -84zM398 291q0 -67 -45 -108t-139 -41q-62 0 -100.5 17.5t-56 49t-17.5 71.5q0 49 22.5 82.5t65 51t100.5 17.5q80 0 125 -35t45 -105zM154 288q0 -51 17 -74.5t51 -23.5t49.5 23.5t15.5 72.5
q0 52 -16 75t-50 23q-21 0 -36 -9.5t-23 -30.5t-8 -56zM370 345l-28 22q16 29 38.5 46.5t46.5 17.5q10 0 20.5 -2.5t18.5 -4.5v-79h-96zM74 499l106 142l73 7l118 -146l-38 -36l-116 95l-107 -96z" />
    <glyph glyph-name="Gbreve" unicode="&#x11e;" horiz-adv-x="580" 
d="M276 -9q-78 0 -130.5 34.5t-80 99.5t-27.5 154q0 103 34.5 170t98.5 99.5t154 32.5q48 0 95 -9t84 -25q2 -35 -0.5 -71t-6.5 -72h-72l-19 80q-3 11 -7 17t-12 11q-11 8 -28.5 13.5t-41.5 5.5q-44 0 -76 -26t-48.5 -81.5t-16.5 -143.5q0 -69 12.5 -119.5t42.5 -78
t82 -27.5q41 0 71.5 16.5t49.5 47.5l19 -39q-24 -39 -67.5 -64t-109.5 -25zM491 -5l-69 57h-21v180l-80 8v52h233v-52l-39 -6v-226zM320 617q-58 0 -98 33.5t-49 81.5l46 24q19 -32 46 -46.5t59 -14.5q30 0 57.5 14t47.5 47l41 -24q-13 -49 -53 -82t-97 -33z" />
    <glyph glyph-name="gbreve" unicode="&#x11f;" horiz-adv-x="478" 
d="M451 -36q0 -49 -30 -86t-84.5 -57t-128.5 -20q-95 0 -138 32.5t-43 82.5q0 46 31.5 70t82.5 36l34 -3q-16 -12 -28 -32.5t-12 -51.5q0 -35 20.5 -57.5t72.5 -22.5q49 0 78.5 22.5t29.5 65.5q0 28 -15 42t-54 14h-81q-66 0 -95 21.5t-29 58.5q0 35 23 56t57 31l32 -8
q-16 -10 -23 -21.5t-7 -24.5q0 -20 18 -28t62 -8h79q72 0 110 -28t38 -84zM398 291q0 -67 -45 -108t-139 -41q-62 0 -100.5 17.5t-56 49t-17.5 71.5q0 49 22.5 82.5t65 51t100.5 17.5q80 0 125 -35t45 -105zM154 288q0 -51 17 -74.5t51 -23.5t49.5 23.5t15.5 72.5
q0 52 -16 75t-50 23q-21 0 -36 -9.5t-23 -30.5t-8 -56zM370 345l-28 22q16 29 38.5 46.5t46.5 17.5q10 0 20.5 -2.5t18.5 -4.5v-79h-96zM219 479q-56 0 -95.5 34t-47.5 84l47 24q17 -33 42.5 -49t57.5 -16q31 0 57.5 15.5t46.5 49.5l41 -24q-12 -52 -52 -85t-97 -33z" />
    <glyph glyph-name="Gdotaccent" unicode="&#x120;" horiz-adv-x="580" 
d="M276 -9q-78 0 -130.5 34.5t-80 99.5t-27.5 154q0 103 34.5 170t98.5 99.5t154 32.5q48 0 95 -9t84 -25q2 -35 -0.5 -71t-6.5 -72h-72l-19 80q-3 11 -7 17t-12 11q-11 8 -28.5 13.5t-41.5 5.5q-44 0 -76 -26t-48.5 -81.5t-16.5 -143.5q0 -69 12.5 -119.5t42.5 -78
t82 -27.5q41 0 71.5 16.5t49.5 47.5l19 -39q-24 -39 -67.5 -64t-109.5 -25zM491 -5l-69 57h-21v180l-80 8v52h233v-52l-39 -6v-226zM388 686q0 -29 -18 -45.5t-49 -16.5q-30 0 -48.5 16.5t-18.5 45.5q0 28 18.5 45t48.5 17q31 0 49 -17t18 -45z" />
    <glyph glyph-name="gdotaccent" unicode="&#x121;" horiz-adv-x="478" 
d="M451 -36q0 -49 -30 -86t-84.5 -57t-128.5 -20q-95 0 -138 32.5t-43 82.5q0 46 31.5 70t82.5 36l34 -3q-16 -12 -28 -32.5t-12 -51.5q0 -35 20.5 -57.5t72.5 -22.5q49 0 78.5 22.5t29.5 65.5q0 28 -15 42t-54 14h-81q-66 0 -95 21.5t-29 58.5q0 35 23 56t57 31l32 -8
q-16 -10 -23 -21.5t-7 -24.5q0 -20 18 -28t62 -8h79q72 0 110 -28t38 -84zM398 291q0 -67 -45 -108t-139 -41q-62 0 -100.5 17.5t-56 49t-17.5 71.5q0 49 22.5 82.5t65 51t100.5 17.5q80 0 125 -35t45 -105zM154 288q0 -51 17 -74.5t51 -23.5t49.5 23.5t15.5 72.5
q0 52 -16 75t-50 23q-21 0 -36 -9.5t-23 -30.5t-8 -56zM370 345l-28 22q16 29 38.5 46.5t46.5 17.5q10 0 20.5 -2.5t18.5 -4.5v-79h-96zM296 544q0 -28 -18 -45t-47 -17q-30 0 -48 17t-18 45t18 44.5t48 16.5q29 0 47 -16.5t18 -44.5z" />
    <glyph glyph-name="Gcommaaccent" unicode="&#x122;" horiz-adv-x="580" 
d="M276 -9q-78 0 -130.5 34.5t-80 99.5t-27.5 154q0 103 34.5 170t98.5 99.5t154 32.5q48 0 95 -9t84 -25q2 -35 -0.5 -71t-6.5 -72h-72l-19 80q-3 11 -7 17t-12 11q-11 8 -28.5 13.5t-41.5 5.5q-44 0 -76 -26t-48.5 -81.5t-16.5 -143.5q0 -69 12.5 -119.5t42.5 -78
t82 -27.5q41 0 71.5 16.5t49.5 47.5l19 -39q-24 -39 -67.5 -64t-109.5 -25zM491 -5l-69 57h-21v180l-80 8v52h233v-52l-39 -6v-226zM356 -111q-1 -37 -26.5 -65t-60.5 -44l-25 27q13 10 23.5 22.5t10.5 25.5q0 11 -6 16.5t-10 9.5q-7 5 -13.5 13t-6.5 23q0 18 14.5 31.5
t35.5 13.5q27 0 45.5 -20.5t18.5 -52.5z" />
    <glyph glyph-name="gcommaaccent" unicode="&#x123;" horiz-adv-x="478" 
d="M451 -36q0 -49 -30 -86t-84.5 -57t-128.5 -20q-95 0 -138 32.5t-43 82.5q0 46 31.5 70t82.5 36l34 -3q-16 -12 -28 -32.5t-12 -51.5q0 -35 20.5 -57.5t72.5 -22.5q49 0 78.5 22.5t29.5 65.5q0 28 -15 42t-54 14h-81q-66 0 -95 21.5t-29 58.5q0 35 23 56t57 31l32 -8
q-16 -10 -23 -21.5t-7 -24.5q0 -20 18 -28t62 -8h79q72 0 110 -28t38 -84zM398 291q0 -67 -45 -108t-139 -41q-62 0 -100.5 17.5t-56 49t-17.5 71.5q0 49 22.5 82.5t65 51t100.5 17.5q80 0 125 -35t45 -105zM154 288q0 -51 17 -74.5t51 -23.5t49.5 23.5t15.5 72.5
q0 52 -16 75t-50 23q-21 0 -36 -9.5t-23 -30.5t-8 -56zM370 345l-28 22q16 29 38.5 46.5t46.5 17.5q10 0 20.5 -2.5t18.5 -4.5v-79h-96zM165 554q1 37 26.5 65t60.5 45l25 -28q-13 -10 -23.5 -22.5t-10.5 -24.5t5.5 -17.5t10.5 -8.5q7 -5 13 -13.5t6 -22.5q0 -20 -14 -33
t-35 -13q-28 0 -46.5 20.5t-17.5 52.5z" />
    <glyph glyph-name="Hcircumflex" unicode="&#x124;" horiz-adv-x="679" 
d="M645 523l-58 -12q-17 -3 -17 -21v-411q0 -18 17 -21l58 -11v-47h-255v47l43 11q18 5 18 21v182h-222v-182q0 -18 17 -21l48 -11v-47h-259v47l57 11q18 3 18 21v411q0 18 -18 21l-57 12v49h259v-49l-49 -12q-16 -4 -16 -21v-169h222v169q0 16 -17 21l-45 12v49h256v-49z
M188 643l112 116l75 4l121 -117l-33 -38l-126 74l-118 -75z" />
    <glyph glyph-name="hcircumflex" unicode="&#x125;" horiz-adv-x="528" 
d="M21 0v47l40 7q19 3 19 21v486q0 18 -18 21l-49 8v45q36 10 82 14.5t82 5.5l16 -16v-563q0 -17 18 -22l29 -7v-47h-219zM293 0v47l29 7q8 3 13 7.5t5 14.5v183q0 54 -15.5 78t-53.5 24q-26 0 -52.5 -10.5t-47.5 -30.5l1 35q28 40 68 58t87 18q73 0 99.5 -41.5t26.5 -116.5
v-197q0 -19 18 -22l41 -7v-47h-219zM7 714l112 116l75 4l121 -117l-33 -38l-126 74l-118 -75z" />
    <glyph glyph-name="Hbar" unicode="&#x126;" horiz-adv-x="680" 
d="M39 428h602v-48h-602v48zM645 523l-58 -12q-17 -2 -17 -21v-411q0 -18 17 -21l58 -11v-47h-255v47l44 11q17 3 17 21v162h-222v-162q0 -18 17 -21l48 -11v-47h-258v47l56 11q18 3 18 21v411q0 19 -17 21l-57 12v49h258v-49l-48 -12q-17 -3 -17 -21v-189h222v188
q0 17 -17 22l-44 12v49h255v-49z" />
    <glyph glyph-name="hbar" unicode="&#x127;" horiz-adv-x="528" 
d="M18 523h296v-50h-296v50zM21 0v47l40 7q19 3 19 21v486q0 18 -18 21l-49 8v45q36 10 82 14.5t82 5.5l16 -16v-563q0 -17 18 -22l29 -7v-47h-219zM293 0v47l29 7q8 3 13 7.5t5 14.5v166q0 54 -15.5 78t-53.5 24q-26 0 -52.5 -10.5t-47.5 -30.5l1 35q28 40 68 57.5t87 17.5
q73 0 99.5 -41t26.5 -116v-180q0 -19 18 -22l41 -7v-47h-219z" />
    <glyph glyph-name="Itilde" unicode="&#x128;" horiz-adv-x="337" 
d="M303 523l-57 -12q-17 -3 -17 -21v-410q0 -19 17 -22l57 -11v-47h-268v47l57 11q18 3 18 21v411q0 18 -18 21l-57 12v49h268v-49zM222 620q-25 0 -45 11.5t-36.5 23t-33.5 11.5q-18 0 -32 -13t-25 -30l-34 19q9 39 36.5 70t63.5 31q25 0 45 -12t37 -23.5t33 -11.5
q18 0 32 13t25 31l35 -19q-10 -40 -37 -70.5t-64 -30.5z" />
    <glyph glyph-name="itilde" unicode="&#x129;" horiz-adv-x="283" 
d="M204 76q0 -19 18 -22l41 -7v-47h-232v47l41 7q18 3 18 22v255q0 19 -17 22l-46 8v48q36 11 80.5 15.5t80.5 5.5l16 -15v-339zM176 478q-24 0 -42 12t-33 24.5t-31 12.5q-17 0 -29.5 -13.5t-23.5 -30.5l-35 17q7 27 20.5 51t34 38.5t46.5 14.5q24 0 42 -12t33.5 -24
t31.5 -12t29 13t23 31l36 -18q-7 -27 -20.5 -51t-34 -38.5t-47.5 -14.5z" />
    <glyph glyph-name="Imacron" unicode="&#x12a;" horiz-adv-x="337" 
d="M303 523l-57 -12q-17 -3 -17 -21v-410q0 -19 17 -22l57 -11v-47h-268v47l57 11q18 3 18 21v411q0 18 -18 21l-57 12v49h268v-49zM37 708h264v-68h-264v68z" />
    <glyph glyph-name="imacron" unicode="&#x12b;" horiz-adv-x="283" 
d="M204 76q0 -19 18 -22l41 -7v-47h-232v47l41 7q18 3 18 22v255q0 19 -17 22l-46 8v48q36 11 80.5 15.5t80.5 5.5l16 -15v-339zM13 568h238v-68h-238v68z" />
    <glyph glyph-name="Ibreve" unicode="&#x12c;" horiz-adv-x="337" 
d="M303 523l-57 -12q-17 -3 -17 -21v-410q0 -19 17 -22l57 -11v-47h-268v47l57 11q18 3 18 21v411q0 18 -18 21l-57 12v49h268v-49zM168 617q-58 0 -98 33.5t-49 81.5l46 24q19 -32 46 -46.5t59 -14.5q30 0 57.5 14t47.5 47l41 -24q-13 -49 -53 -82t-97 -33z" />
    <glyph glyph-name="ibreve" unicode="&#x12d;" horiz-adv-x="283" 
d="M204 76q0 -19 18 -22l41 -7v-47h-232v47l41 7q18 3 18 22v255q0 19 -17 22l-46 8v48q36 11 80.5 15.5t80.5 5.5l16 -15v-339zM129 479q-53 0 -89.5 34t-46.5 84l47 22q16 -33 40 -48.5t53 -15.5t53.5 15t42.5 49l42 -22q-14 -52 -50.5 -85t-91.5 -33z" />
    <glyph glyph-name="Iogonek" unicode="&#x12e;" horiz-adv-x="337" 
d="M164 -188q-41 0 -69.5 18.5t-28.5 55.5q0 39 30 68.5t69 43.5v7l90 -1q-44 -12 -71 -37.5t-27 -53.5q0 -20 13.5 -29t33.5 -9q23 0 45 9l17 -45q-20 -13 -48 -20t-54 -7zM303 523l-57 -12q-17 -3 -17 -21v-410q0 -19 17 -22l57 -11v-47h-268v47l57 11q18 3 18 21v411
q0 18 -18 21l-57 12v49h268v-49z" />
    <glyph glyph-name="iogonek" unicode="&#x12f;" horiz-adv-x="284" 
d="M204 76q0 -19 18 -22l41 -7v-47h-231v47l40 7q18 3 18 22v255q0 19 -17 22l-46 8v48q37 11 81 15.5t81 5.5l15 -15v-339zM141 -188q-42 0 -70.5 18.5t-28.5 55.5q0 39 31 68.5t71 43.5v7l89 -1q-43 -12 -71 -37.5t-28 -53.5q0 -20 13.5 -29t34.5 -9q10 0 21.5 2.5
t22.5 6.5l17 -45q-20 -13 -47.5 -20t-54.5 -7zM206 544q0 -28 -18 -45t-47 -17q-30 0 -48 17t-18 45t18 44.5t48 16.5q29 0 47 -16.5t18 -44.5z" />
    <glyph glyph-name="Idotaccent" unicode="&#x130;" horiz-adv-x="337" 
d="M303 523l-57 -12q-17 -3 -17 -21v-410q0 -19 17 -22l57 -11v-47h-268v47l57 11q18 3 18 21v411q0 18 -18 21l-57 12v49h268v-49zM236 686q0 -29 -18 -45.5t-49 -16.5q-30 0 -48.5 16.5t-18.5 45.5q0 28 18.5 45t48.5 17q31 0 49 -17t18 -45z" />
    <glyph glyph-name="idotless" unicode="&#x131;" horiz-adv-x="283" 
d="M204 76q0 -19 18 -22l41 -7v-47h-232v47l41 7q18 3 18 22v255q0 19 -17 22l-46 8v48q36 11 80.5 15.5t80.5 5.5l16 -15v-339z" />
    <glyph glyph-name="IJ" unicode="&#x132;" horiz-adv-x="662" 
d="M303 523l-57 -12q-17 -3 -17 -21v-410q0 -19 17 -22l57 -11v-47h-268v47l57 11q18 3 18 21v411q0 18 -18 21l-57 12v49h268v-49zM581 511q-17 -3 -17 -21v-353q0 -63 -8.5 -108.5t-31 -77.5t-63.5 -55.5t-106 -43.5l-22 48q47 28 71 55t32.5 65.5t8.5 100.5v369
q0 18 -18 21l-57 12v49h261v-49z" />
    <glyph glyph-name="ij" unicode="&#x133;" horiz-adv-x="543" 
d="M204 76q0 -19 18 -22l41 -7v-47h-231v47l40 7q18 3 18 22v255q0 19 -17 22l-46 8v48q37 11 81 15.5t81 5.5l15 -15v-339zM206 544q0 -28 -18 -45t-48 -17t-48 17t-18 45t18 44.5t48 16.5t48 -16.5t18 -44.5zM479 415v-376q0 -47 -6.5 -79t-19.5 -53.5t-34 -38.5
q-27 -23 -63.5 -37.5t-75.5 -25.5l-22 48q43 24 66.5 48t33 55.5t9.5 77.5v297q0 19 -17 22l-47 8v48q36 11 80.5 15.5t80.5 5.5zM480 544q0 -28 -18 -45t-47 -17q-30 0 -48 17t-18 45t18 44.5t48 16.5q29 0 47 -16.5t18 -44.5z" />
    <glyph glyph-name="Jcircumflex" unicode="&#x134;" horiz-adv-x="324" 
d="M244 511q-17 -3 -17 -21v-353q0 -63 -8.5 -108.5t-31 -77.5t-63.5 -55.5t-106 -43.5l-22 48q47 28 71 55t32.5 65.5t8.5 100.5v369q0 18 -18 21l-57 12v49h261v-49zM10 643l112 116l75 4l121 -117l-33 -38l-126 74l-118 -75z" />
    <glyph glyph-name="jcircumflex" unicode="&#x135;" horiz-adv-x="259" 
d="M195 415v-376q0 -47 -6.5 -79t-19.5 -53.5t-34 -38.5q-27 -23 -63.5 -37.5t-75.5 -25.5l-22 48q43 24 66.5 48t33 55.5t9.5 77.5v297q0 19 -17 22l-47 8v48q36 11 80.5 15.5t80.5 5.5zM-12 497l92 142l73 7l104 -146l-38 -34l-102 96l-94 -96z" />
    <glyph glyph-name="Kcommaaccent" unicode="&#x136;" horiz-adv-x="599" 
d="M35 0v47l57 11q18 3 18 21v411q0 18 -18 21l-57 12v49h268v-49l-57 -12q-18 -3 -18 -21v-413q0 -16 19 -20l57 -10v-47h-269zM210 169v79l219 263l-65 12v49h215v-49l-56 -12q-15 -3 -23 -11l-177 -201zM450 0q-15 0 -29 20.5t-31 54.5l-52 105q-19 38 -32.5 61t-27.5 42
l73 85q28 -29 47.5 -59t45.5 -76l84 -150q5 -10 11 -17t19 -10l36 -9v-47h-144zM391 -111q-1 -37 -26.5 -65t-60.5 -44l-25 27q13 10 23.5 22.5t10.5 25.5q0 11 -6 16.5t-10 9.5q-7 5 -13.5 13t-6.5 23q0 18 14.5 31.5t35.5 13.5q27 0 45.5 -20.5t18.5 -52.5z" />
    <glyph glyph-name="kcommaaccent" unicode="&#x137;" horiz-adv-x="509" 
d="M21 0v47l41 7q18 3 18 22v482q0 18 -18 21l-49 8v45q36 10 81.5 16t82.5 7l16 -15v-564q0 -19 18 -22l40 -7v-47h-230zM362 0q-18 0 -29.5 20t-24.5 48l-35 75q-9 19 -18.5 36.5t-20.5 31.5l75 71q18 -19 31.5 -38.5t28.5 -48.5l64 -116q5 -11 10.5 -15t14.5 -6l42 -11
v-47h-138zM176 125l-5 61l189 203l3 -29l-95 16v45h211v-45l-42 -10q-14 -4 -21.5 -6.5t-15.5 -9.5zM339 -111q-1 -37 -26.5 -65t-60.5 -44l-25 27q13 10 23.5 22.5t10.5 25.5q0 11 -6 16.5t-10 9.5q-7 5 -13.5 13t-6.5 23q0 18 14.5 31.5t35.5 13.5q27 0 45.5 -20.5
t18.5 -52.5z" />
    <glyph glyph-name="kgreenlandic" unicode="&#x138;" horiz-adv-x="505" 
d="M17 0v47l41 7q18 3 18 22v257q0 19 -17 21l-46 9v48q37 10 81 15t80 5l15 -14v-341q0 -19 18 -22l40 -7v-47h-230zM358 0q-17 0 -29 20t-25 48l-35 75q-9 19 -18.5 36.5t-20.5 31.5l75 71q18 -19 31.5 -38.5t28.5 -48.5l64 -116q5 -11 10.5 -15t15.5 -6l41 -11v-47h-138z
M173 125l-6 61l190 203l2 -29l-94 16v45h210v-45l-42 -10q-14 -4 -21 -6.5t-16 -9.5z" />
    <glyph glyph-name="Lacute" unicode="&#x139;" horiz-adv-x="509" 
d="M431 198l60 -8q0 -44 -2.5 -92.5t-12.5 -97.5h-441v47l57 11q18 3 18 21v412q0 18 -18 21l-57 11v49h287v-49l-76 -12q-17 -4 -17 -21v-435h76q24 0 42 2t29 7q16 6 21 23zM141 611l-20 40l186 122l51 -74q-25 -18 -62.5 -34t-78 -30t-76.5 -24z" />
    <glyph glyph-name="lacute" unicode="&#x13a;" horiz-adv-x="277" 
d="M195 76q0 -19 18 -22l47 -7v-47h-243v47l47 7q18 3 18 21v483q0 18 -18 21l-50 8v45q37 10 83 16t83 7l15 -16v-563zM60 687l-20 40l186 122l51 -74q-25 -18 -62.5 -34t-78 -30t-76.5 -24z" />
    <glyph glyph-name="Lcommaaccent" unicode="&#x13b;" horiz-adv-x="509" 
d="M431 198l60 -8q0 -44 -2.5 -92.5t-12.5 -97.5h-441v47l57 11q18 3 18 21v412q0 18 -18 21l-57 11v49h287v-49l-76 -12q-17 -4 -17 -21v-435h76q24 0 42 2t29 7q16 6 21 23zM330 -111q-1 -37 -26.5 -65t-60.5 -44l-25 27q13 10 23.5 22.5t10.5 25.5q0 11 -6 16.5t-10 9.5
q-7 5 -13.5 13t-6.5 23q0 18 14.5 31.5t35.5 13.5q27 0 45.5 -20.5t18.5 -52.5z" />
    <glyph glyph-name="lcommaaccent" unicode="&#x13c;" horiz-adv-x="277" 
d="M195 76q0 -19 18 -22l47 -7v-47h-243v47l47 7q18 3 18 21v483q0 18 -18 21l-50 8v45q37 10 83 16t83 7l15 -16v-563zM196 -111q-1 -37 -26.5 -65t-60.5 -44l-25 27q13 10 23.5 22.5t10.5 25.5q0 11 -6 16.5t-10 9.5q-7 5 -13.5 13t-6.5 23q0 18 14.5 31.5t35.5 13.5
q27 0 45.5 -20.5t18.5 -52.5z" />
    <glyph glyph-name="Lcaron" unicode="&#x13d;" horiz-adv-x="509" 
d="M431 198l60 -8q0 -44 -2.5 -92.5t-12.5 -97.5h-441v47l57 11q18 3 18 21v412q0 18 -18 21l-57 11v49h287v-49l-76 -12q-17 -4 -17 -21v-435h76q24 0 42 2t29 7q16 6 21 23zM355 411l15 205l88 -10q-7 -51 -22 -105.5t-33 -99.5z" />
    <glyph glyph-name="lcaron" unicode="&#x13e;" horiz-adv-x="277" 
d="M195 76q0 -19 18 -22l47 -7v-47h-243v47l47 7q18 3 18 21v483q0 18 -18 21l-50 8v45q37 10 83 16t83 7l15 -16v-563zM242 488l15 205l88 -10q-7 -51 -22 -105.5t-33 -99.5z" />
    <glyph glyph-name="Ldot" unicode="&#x13f;" horiz-adv-x="509" 
d="M431 198l60 -8q0 -44 -2.5 -92.5t-12.5 -97.5h-441v47l57 11q18 3 18 21v412q0 18 -18 21l-57 11v49h287v-49l-76 -12q-17 -4 -17 -21v-435h76q24 0 42 2t29 7q16 6 21 23zM498 327q0 -28 -18.5 -45t-48.5 -17t-48 17t-18 45q0 29 18 45.5t48 16.5t48.5 -16.5t18.5 -45.5
z" />
    <glyph glyph-name="ldot" unicode="&#x140;" horiz-adv-x="347" 
d="M195 76q0 -19 18 -22l47 -7v-47h-243v47l47 7q18 3 18 21v483q0 18 -18 21l-50 8v45q37 10 83 16t83 7l15 -16v-563zM313 213q-31 0 -49 16.5t-18 45.5q0 28 18 45t49 17q30 0 48.5 -17t18.5 -45q0 -29 -18.5 -45.5t-48.5 -16.5z" />
    <glyph glyph-name="Lslash" unicode="&#x141;" horiz-adv-x="510" 
d="M34 250l132 51h13l199 83v-61l-199 -80h-13l-132 -53v60zM432 198l59 -8q0 -44 -2 -92.5t-12 -97.5h-441v47l56 11q19 3 19 21v412q0 17 -18 21l-57 11v49h286v-49l-75 -12q-17 -4 -17 -21v-435h76q24 0 42 2t28 7q16 6 22 23z" />
    <glyph glyph-name="lslash" unicode="&#x142;" horiz-adv-x="314" 
d="M21 296l124 55h21l125 62v-63l-125 -57h-21l-124 -59v62zM213 76q0 -19 18 -22l47 -7v-47h-243v47l47 7q17 3 17 21v483q0 18 -17 21l-50 8v45q36 10 82 16t84 7l15 -16v-563z" />
    <glyph glyph-name="Nacute" unicode="&#x143;" horiz-adv-x="654" 
d="M573 511q-18 -3 -18 -21v-490h-106l-297 479l26 3v-403q0 -18 18 -21l66 -11v-47h-227v47l57 11q18 3 18 21v411q0 18 -18 21l-57 12v49h196l281 -451l-25 -3v372q0 18 -18 21l-60 12v49h216v-49zM259 611l-20 40l186 122l51 -74q-25 -18 -62.5 -34t-78 -30t-76.5 -24z
" />
    <glyph glyph-name="nacute" unicode="&#x144;" horiz-adv-x="539" 
d="M302 0v47l30 7q9 2 13.5 7t4.5 15v182q0 55 -15.5 79t-52.5 24q-27 0 -53 -10.5t-48 -30.5l1 35q29 40 68.5 58t86.5 18q73 0 99.5 -41.5t26.5 -117.5v-196q0 -19 18 -22l41 -7v-47h-220zM31 0v47l42 7q17 3 17 22v255q0 19 -17 22l-46 8v48q35 10 74 15t74 6l17 -15
l12 -74v-265q0 -18 17 -22l30 -7v-47h-220zM207 498l140 162l65 -60q-17 -22 -45 -46.5t-62 -47.5t-68 -43z" />
    <glyph glyph-name="Ncommaaccent" unicode="&#x145;" horiz-adv-x="654" 
d="M573 511q-18 -3 -18 -21v-490h-106l-297 479l26 3v-403q0 -18 18 -21l66 -11v-47h-227v47l57 11q18 3 18 21v411q0 18 -18 21l-57 12v49h196l281 -451l-25 -3v372q0 18 -18 21l-60 12v49h216v-49zM400 -111q-1 -37 -26.5 -65t-60.5 -44l-25 27q13 10 23.5 22.5t10.5 25.5
q0 11 -6 16.5t-10 9.5q-7 5 -13.5 13t-6.5 23q0 18 14.5 31.5t35.5 13.5q27 0 45.5 -20.5t18.5 -52.5z" />
    <glyph glyph-name="ncommaaccent" unicode="&#x146;" horiz-adv-x="539" 
d="M302 0v47l30 7q9 2 13.5 7t4.5 15v182q0 55 -15.5 79t-52.5 24q-27 0 -53 -10.5t-48 -30.5l1 35q29 40 68.5 58t86.5 18q73 0 99.5 -41.5t26.5 -117.5v-196q0 -19 18 -22l41 -7v-47h-220zM31 0v47l42 7q17 3 17 22v255q0 19 -17 22l-46 8v48q35 10 74 15t74 6l17 -15
l12 -74v-265q0 -18 17 -22l30 -7v-47h-220zM338 -111q-1 -37 -26.5 -65t-60.5 -44l-25 27q13 10 23.5 22.5t10.5 25.5q0 11 -6 16.5t-10 9.5q-7 5 -13.5 13t-6.5 23q0 18 14.5 31.5t35.5 13.5q27 0 45.5 -20.5t18.5 -52.5z" />
    <glyph glyph-name="Ncaron" unicode="&#x147;" horiz-adv-x="654" 
d="M573 511q-18 -3 -18 -21v-490h-106l-297 479l26 3v-403q0 -18 18 -21l66 -11v-47h-227v47l57 11q18 3 18 21v411q0 18 -18 21l-57 12v49h196l281 -451l-25 -3v372q0 18 -18 21l-60 12v49h216v-49zM483 733l-113 -117l-74 -4l-121 118l33 38l126 -75l117 76z" />
    <glyph glyph-name="ncaron" unicode="&#x148;" horiz-adv-x="539" 
d="M302 0v47l30 7q9 2 13.5 7t4.5 15v182q0 55 -15.5 79t-52.5 24q-27 0 -53 -10.5t-48 -30.5l1 35q29 40 68.5 58t86.5 18q73 0 99.5 -41.5t26.5 -117.5v-196q0 -19 18 -22l41 -7v-47h-220zM31 0v47l42 7q17 3 17 22v255q0 19 -17 22l-46 8v48q35 10 74 15t74 6l17 -15
l12 -74v-265q0 -18 17 -22l30 -7v-47h-220zM426 627l-107 -141l-73 -7l-117 146l38 35l115 -95l108 96z" />
    <glyph glyph-name="napostrophe" unicode="&#x149;" horiz-adv-x="657" 
d="M420 0v47l30 7q8 2 12.5 7t4.5 15v182q0 55 -15.5 79t-52.5 24q-26 0 -52 -10.5t-48 -30.5l1 35q29 40 68 58t86 18q74 0 100.5 -41.5t26.5 -117.5v-196q0 -19 18 -22l41 -7v-47h-220zM149 0v47l42 7q17 3 17 22v255q0 19 -17 22l-46 8v48q35 10 74 15t74 6l17 -15
l12 -74v-265q0 -18 17 -22l29 -7v-47h-219zM39 428l-22 30q22 15 36.5 35.5t14.5 38.5q0 10 -4 15t-11 10q-9 7 -16 18t-7 26q0 24 17.5 39.5t40.5 15.5q26 0 45.5 -21t19.5 -57q0 -47 -30.5 -86.5t-83.5 -63.5z" />
    <glyph glyph-name="Eng" unicode="&#x14a;" horiz-adv-x="654" 
d="M387 -188q-20 0 -34.5 2t-30.5 5l-3 52q21 2 46.5 9.5t44.5 19.5q26 16 44.5 46.5t24.5 88.5l11 -74l-338 518l26 3v-402q0 -19 18 -22l66 -11v-47h-227v47l57 11q18 3 18 21v411q0 18 -18 21l-57 12v49h196l281 -441l-25 -13v372q0 18 -18 21l-60 12v49h216v-49l-52 -12
q-18 -3 -18 -21v-456q0 -66 -15 -116t-52 -78t-101 -28z" />
    <glyph glyph-name="eng" unicode="&#x14b;" horiz-adv-x="523" 
d="M305 -188q-13 0 -28 1t-28 3l-3 48q19 4 41 10t36 22q14 14 20 43t6 81v239q0 54 -15.5 78t-53.5 24q-26 0 -51.5 -10.5t-47.5 -30.5l1 35q29 40 69 58t86 18q74 0 100.5 -41t26.5 -117v-265q0 -94 -36.5 -145t-122.5 -51zM31 0v47l42 7q17 3 17 22v255q0 19 -17 22
l-46 8v48q35 10 74 15t74 6l17 -15l12 -73v-266q0 -10 4.5 -14.5t12.5 -7.5l30 -7v-47h-220z" />
    <glyph glyph-name="Omacron" unicode="&#x14c;" horiz-adv-x="582" 
d="M281 -9q-124 0 -183.5 76t-59.5 209q0 97 31 165t89.5 104t141.5 36q125 0 184.5 -76.5t59.5 -208.5q0 -97 -30.5 -165t-89.5 -104t-143 -36zM292 529q-60 0 -92 -58.5t-32 -187.5q0 -125 30.5 -183t90.5 -58t92 59t32 189q0 125 -30 182t-91 57zM157 708h268v-68h-268
v68z" />
    <glyph glyph-name="omacron" unicode="&#x14d;" horiz-adv-x="475" 
d="M318 205q0 60 -7 99t-25.5 57.5t-50.5 18.5q-40 0 -59.5 -37t-19.5 -127q0 -61 7.5 -100t26 -57.5t50.5 -18.5q39 0 58.5 37t19.5 128zM33 206q0 81 28 130.5t76 72t107 22.5q64 0 107.5 -25t66.5 -73t23 -119q0 -82 -27.5 -131t-75 -71t-107.5 -22q-64 0 -108 24.5
t-67 72.5t-23 119zM107 568h259v-68h-259v68z" />
    <glyph glyph-name="Obreve" unicode="&#x14e;" horiz-adv-x="582" 
d="M281 -9q-124 0 -183.5 76t-59.5 209q0 97 31 165t89.5 104t141.5 36q125 0 184.5 -76.5t59.5 -208.5q0 -97 -30.5 -165t-89.5 -104t-143 -36zM292 529q-60 0 -92 -58.5t-32 -187.5q0 -125 30.5 -183t90.5 -58t92 59t32 189q0 125 -30 182t-91 57zM290 617q-58 0 -98 33.5
t-49 81.5l46 24q19 -32 46 -46.5t59 -14.5q30 0 57.5 14t47.5 47l41 -24q-13 -49 -53 -82t-97 -33z" />
    <glyph glyph-name="obreve" unicode="&#x14f;" horiz-adv-x="475" 
d="M318 205q0 60 -7 99t-25.5 57.5t-50.5 18.5q-40 0 -59.5 -37t-19.5 -127q0 -61 7.5 -100t26 -57.5t50.5 -18.5q39 0 58.5 37t19.5 128zM33 206q0 81 28 130.5t76 72t107 22.5q64 0 107.5 -25t66.5 -73t23 -119q0 -82 -27.5 -131t-75 -71t-107.5 -22q-64 0 -108 24.5
t-67 72.5t-23 119zM234 479q-56 0 -95.5 34t-47.5 84l47 24q17 -33 42.5 -49t57.5 -16q31 0 57.5 15.5t46.5 49.5l41 -24q-12 -52 -52 -85t-97 -33z" />
    <glyph glyph-name="Ohungarumlaut" unicode="&#x150;" horiz-adv-x="582" 
d="M281 -9q-124 0 -183.5 76t-59.5 209q0 97 31 165t89.5 104t141.5 36q125 0 184.5 -76.5t59.5 -208.5q0 -97 -30.5 -165t-89.5 -104t-143 -36zM292 529q-60 0 -92 -58.5t-32 -187.5q0 -125 30.5 -183t90.5 -58t92 59t32 189q0 125 -30 182t-91 57zM156 635l110 142l68 -53
q-18 -21 -43 -42.5t-52 -42t-49 -36.5zM324 637l121 140l64 -59q-19 -18 -46 -39.5t-55.5 -41.5t-52.5 -34z" />
    <glyph glyph-name="ohungarumlaut" unicode="&#x151;" horiz-adv-x="475" 
d="M318 205q0 60 -7 99t-25.5 57.5t-50.5 18.5q-40 0 -59.5 -37t-19.5 -127q0 -61 7.5 -100t26 -57.5t50.5 -18.5q39 0 58.5 37t19.5 128zM33 206q0 81 28 130.5t76 72t107 22.5q64 0 107.5 -25t66.5 -73t23 -119q0 -82 -27.5 -131t-75 -71t-107.5 -22q-64 0 -108 24.5
t-67 72.5t-23 119zM120 491l91 166l73 -42q-14 -24 -35.5 -52.5t-46 -55t-46.5 -45.5zM272 493l101 161l70 -45q-15 -23 -38 -50.5t-49 -53t-49 -43.5z" />
    <glyph glyph-name="OE" unicode="&#x152;" horiz-adv-x="785" 
d="M288 -9q-128 0 -189 74t-61 211q0 144 68.5 224.5t194.5 80.5q38 0 78 -7.5t71 -23.5l-48 -69q-20 28 -47.5 39.5t-54.5 11.5q-66 0 -99 -58.5t-33 -189.5q0 -129 32 -187t97 -58q28 0 55.5 11.5t47.5 42.5l50 -68q-31 -15 -72.5 -24.5t-89.5 -9.5zM373 0v572h350
q4 -37 4.5 -74t-3.5 -76h-56l-19 68q-4 16 -21 23q-11 3 -28.5 5.5t-37.5 2.5h-71v-200l163 6v-69l-163 4v-208h89q20 0 40 2t30 6q13 6 20 24l30 86l56 -9q0 -41 -3.5 -81t-10.5 -82h-369z" />
    <glyph glyph-name="oe" unicode="&#x153;" horiz-adv-x="716" 
d="M229 -10q-62 0 -106 24.5t-67 72.5t-23 120q0 80 28 129t75 72t104 23q84 0 129 -43t52 -125v-102q-7 -60 -32.5 -97.5t-66 -55.5t-93.5 -18zM238 41q41 0 60 37t19 131q0 58 -7.5 96t-25.5 56t-49 18q-40 0 -59.5 -37t-19.5 -131q0 -57 7.5 -95t25.5 -56.5t49 -18.5z
M512 -10q-64 0 -104.5 28t-60 77.5t-19.5 112.5q0 106 51.5 164.5t143.5 58.5q78 0 118.5 -39.5t40.5 -105.5q0 -13 -1 -29t-4 -29h-278v45h178v9v10q0 39 -16 64.5t-49 25.5q-36 0 -56 -35.5t-20 -121.5q0 -60 12.5 -96t37 -52t59.5 -16q31 0 60 12t47 36l28 -19
q-16 -50 -62.5 -75t-105.5 -25z" />
    <glyph glyph-name="Racute" unicode="&#x154;" horiz-adv-x="590" 
d="M35 0v47l57 11q18 3 18 21v412q0 17 -18 20l-57 12v49h131q32 0 61 2t67 2q118 0 168.5 -35.5t50.5 -116.5q0 -48 -14.5 -78.5t-37 -47.5t-48 -25.5t-47.5 -13.5l-35 -13h-61.5h-57.5v50q12 -2 28.5 -3t32.5 -1h24q39 1 65 31t26 95q0 39 -11 63.5t-34.5 36t-61.5 11.5
q-15 0 -29 -1.5t-24 -2.5v-448q0 -16 19 -20l57 -10v-47h-269zM438 0q-16 0 -29 21.5t-28 56.5l-37 91q-15 38 -31 62t-34 31l73 17q44 -13 71 -35.5t48 -67.5l44 -95q6 -13 12 -18t17 -7l36 -9v-47h-142zM213 611l-20 40l186 122l51 -74q-25 -18 -62.5 -34t-78 -30
t-76.5 -24z" />
    <glyph glyph-name="racute" unicode="&#x155;" horiz-adv-x="403" 
d="M179 309q16 35 39 62.5t50.5 43.5t57.5 16q12 0 29 -3t27 -8q3 -31 0 -73t-11 -80h-50l-13 47q-3 13 -9.5 17.5t-18.5 4.5q-20 0 -45 -11t-47 -37zM204 311v-235q0 -19 19 -22l65 -7v-47h-257v47l41 7q18 3 18 22v255q0 20 -17 23l-46 8v48q33 9 71 14t70 6l18 -14z
M154 498l140 162l65 -60q-17 -22 -45 -46.5t-62 -47.5t-68 -43z" />
    <glyph glyph-name="Rcommaaccent" unicode="&#x156;" horiz-adv-x="590" 
d="M35 0v47l57 11q18 3 18 21v412q0 17 -18 20l-57 12v49h131q32 0 61 2t67 2q118 0 168.5 -35.5t50.5 -116.5q0 -48 -14.5 -78.5t-37 -47.5t-48 -25.5t-47.5 -13.5l-35 -13h-61.5h-57.5v50q12 -2 28.5 -3t32.5 -1h24q39 1 65 31t26 95q0 39 -11 63.5t-34.5 36t-61.5 11.5
q-15 0 -29 -1.5t-24 -2.5v-448q0 -16 19 -20l57 -10v-47h-269zM438 0q-16 0 -29 21.5t-28 56.5l-37 91q-15 38 -31 62t-34 31l73 17q44 -13 71 -35.5t48 -67.5l44 -95q6 -13 12 -18t17 -7l36 -9v-47h-142zM379 -111q-1 -37 -26.5 -65t-60.5 -44l-25 27q13 10 23.5 22.5
t10.5 25.5q0 11 -6 16.5t-10 9.5q-7 5 -13.5 13t-6.5 23q0 18 14.5 31.5t35.5 13.5q27 0 45.5 -20.5t18.5 -52.5z" />
    <glyph glyph-name="rcommaaccent" unicode="&#x157;" horiz-adv-x="403" 
d="M179 309q16 35 39 62.5t50.5 43.5t57.5 16q12 0 29 -3t27 -8q3 -31 0 -73t-11 -80h-50l-13 47q-3 13 -9.5 17.5t-18.5 4.5q-20 0 -45 -11t-47 -37zM204 311v-235q0 -19 19 -22l65 -7v-47h-257v47l41 7q18 3 18 22v255q0 20 -17 23l-46 8v48q33 9 71 14t70 6l18 -14z
M218 -111q-1 -37 -26.5 -65t-60.5 -44l-25 27q13 10 23.5 22.5t10.5 25.5q0 11 -6 16.5t-10 9.5q-7 5 -13.5 13t-6.5 23q0 18 14.5 31.5t35.5 13.5q27 0 45.5 -20.5t18.5 -52.5z" />
    <glyph glyph-name="Rcaron" unicode="&#x158;" horiz-adv-x="590" 
d="M35 0v47l57 11q18 3 18 21v412q0 17 -18 20l-57 12v49h131q32 0 61 2t67 2q118 0 168.5 -35.5t50.5 -116.5q0 -48 -14.5 -78.5t-37 -47.5t-48 -25.5t-47.5 -13.5l-35 -13h-61.5h-57.5v50q12 -2 28.5 -3t32.5 -1h24q39 1 65 31t26 95q0 39 -11 63.5t-34.5 36t-61.5 11.5
q-15 0 -29 -1.5t-24 -2.5v-448q0 -16 19 -20l57 -10v-47h-269zM438 0q-16 0 -29 21.5t-28 56.5l-37 91q-15 38 -31 62t-34 31l73 17q44 -13 71 -35.5t48 -67.5l44 -95q6 -13 12 -18t17 -7l36 -9v-47h-142zM437 733l-113 -117l-74 -4l-121 118l33 38l126 -75l117 76z" />
    <glyph glyph-name="rcaron" unicode="&#x159;" horiz-adv-x="403" 
d="M179 309q16 35 39 62.5t50.5 43.5t57.5 16q12 0 29 -3t27 -8q3 -31 0 -73t-11 -80h-50l-13 47q-3 13 -9.5 17.5t-18.5 4.5q-20 0 -45 -11t-47 -37zM204 311v-235q0 -19 19 -22l65 -7v-47h-257v47l41 7q18 3 18 22v255q0 20 -17 23l-46 8v48q33 9 71 14t70 6l18 -14z
M373 627l-107 -141l-73 -7l-117 146l38 35l115 -95l108 96z" />
    <glyph glyph-name="Sacute" unicode="&#x15a;" horiz-adv-x="476" 
d="M441 161q0 -41 -21 -80t-67 -64.5t-122 -25.5q-57 0 -105.5 13.5t-81.5 30.5q-2 38 0.5 79.5t8.5 74.5h68l14 -91q1 -8 4.5 -14t10.5 -13q12 -12 34.5 -22t50.5 -10q42 0 64.5 22t22.5 60q0 32 -16.5 54t-44 39t-62.5 34q-38 19 -72 40t-55.5 52.5t-21.5 79.5
q0 69 50 115t149 46q43 0 85.5 -8t74.5 -22q3 -36 0.5 -73.5t-7.5 -71.5h-67l-14 80q-2 10 -5.5 17t-10.5 12q-11 8 -28.5 13.5t-36.5 5.5q-37 0 -57.5 -20t-20.5 -53q0 -30 14.5 -50t43 -36t67.5 -36q41 -20 76 -44t56.5 -56.5t21.5 -77.5zM174 611l-20 40l186 122l51 -74
q-25 -18 -62.5 -34t-78 -30t-76.5 -24z" />
    <glyph glyph-name="sacute" unicode="&#x15b;" horiz-adv-x="401" 
d="M41 22q-4 29 -3 59t5 57h58l15 -54q5 -21 17 -29q8 -6 24 -12t38 -6q30 0 46.5 15.5t16.5 39.5q0 21 -14.5 34.5t-39.5 25.5t-58 27q-45 22 -74 49t-29 76q0 58 42.5 92.5t123.5 34.5q35 0 72.5 -7t63.5 -18q2 -26 0.5 -55t-6.5 -56h-54l-15 51q-3 10 -6.5 16t-11.5 11
q-10 5 -21 8.5t-24 3.5q-26 1 -42 -12.5t-16 -38.5q0 -21 12.5 -34.5t32.5 -23.5t44 -20q34 -14 64.5 -31t49 -42.5t18.5 -64.5q0 -63 -49.5 -95.5t-126.5 -32.5q-45 0 -84.5 10t-68.5 22zM132 498l140 162l65 -60q-17 -22 -45 -46.5t-62 -47.5t-68 -43z" />
    <glyph glyph-name="Scircumflex" unicode="&#x15c;" horiz-adv-x="476" 
d="M441 161q0 -41 -21 -80t-67 -64.5t-122 -25.5q-57 0 -105.5 13.5t-81.5 30.5q-2 38 0.5 79.5t8.5 74.5h68l14 -91q1 -8 4.5 -14t10.5 -13q12 -12 34.5 -22t50.5 -10q42 0 64.5 22t22.5 60q0 32 -16.5 54t-44 39t-62.5 34q-38 19 -72 40t-55.5 52.5t-21.5 79.5
q0 69 50 115t149 46q43 0 85.5 -8t74.5 -22q3 -36 0.5 -73.5t-7.5 -71.5h-67l-14 80q-2 10 -5.5 17t-10.5 12q-11 8 -28.5 13.5t-36.5 5.5q-37 0 -57.5 -20t-20.5 -53q0 -30 14.5 -50t43 -36t67.5 -36q41 -20 76 -44t56.5 -56.5t21.5 -77.5zM90 643l112 116l75 4l121 -117
l-33 -38l-126 74l-118 -75z" />
    <glyph glyph-name="scircumflex" unicode="&#x15d;" horiz-adv-x="401" 
d="M41 22q-4 29 -3 59t5 57h58l15 -54q5 -21 17 -29q8 -6 24 -12t38 -6q30 0 46.5 15.5t16.5 39.5q0 21 -14.5 34.5t-39.5 25.5t-58 27q-45 22 -74 49t-29 76q0 58 42.5 92.5t123.5 34.5q35 0 72.5 -7t63.5 -18q2 -26 0.5 -55t-6.5 -56h-54l-15 51q-3 10 -6.5 16t-11.5 11
q-10 5 -21 8.5t-24 3.5q-26 1 -42 -12.5t-16 -38.5q0 -21 12.5 -34.5t32.5 -23.5t44 -20q34 -14 64.5 -31t49 -42.5t18.5 -64.5q0 -63 -49.5 -95.5t-126.5 -32.5q-45 0 -84.5 10t-68.5 22zM49 499l106 142l73 7l118 -146l-38 -36l-116 95l-107 -96z" />
    <glyph glyph-name="Scedilla" unicode="&#x15e;" horiz-adv-x="476" 
d="M441 161q0 -41 -21 -80t-67 -64.5t-122 -25.5q-57 0 -105.5 13.5t-81.5 30.5q-2 38 0.5 79.5t8.5 74.5h68l14 -91q1 -8 4.5 -14t10.5 -13q12 -12 34.5 -22t50.5 -10q42 0 64.5 22t22.5 60q0 32 -16.5 54t-44 39t-62.5 34q-38 19 -72 40t-55.5 52.5t-21.5 79.5
q0 69 50 115t149 46q43 0 85.5 -8t74.5 -22q3 -36 0.5 -73.5t-7.5 -71.5h-67l-14 80q-2 10 -5.5 17t-10.5 12q-11 8 -28.5 13.5t-36.5 5.5q-37 0 -57.5 -20t-20.5 -53q0 -30 14.5 -50t43 -36t67.5 -36q41 -20 76 -44t56.5 -56.5t21.5 -77.5zM245 19l-15 -51h6h7
q30 -2 49 -19.5t19 -46.5q0 -42 -39 -67.5t-100 -25.5h-11t-10 1l-6 39q37 3 56.5 16.5t19.5 32.5q0 17 -13 25t-32 9l29 87h40z" />
    <glyph glyph-name="scedilla" unicode="&#x15f;" horiz-adv-x="401" 
d="M41 22q-4 29 -3 59t5 57h58l15 -54q5 -21 17 -29q8 -6 24 -12t38 -6q30 0 46.5 15.5t16.5 39.5q0 21 -14.5 34.5t-39.5 25.5t-58 27q-45 22 -74 49t-29 76q0 58 42.5 92.5t123.5 34.5q35 0 72.5 -7t63.5 -18q2 -26 0.5 -55t-6.5 -56h-54l-15 51q-3 10 -6.5 16t-11.5 11
q-10 5 -21 8.5t-24 3.5q-26 1 -42 -12.5t-16 -38.5q0 -21 12.5 -34.5t32.5 -23.5t44 -20q34 -14 64.5 -31t49 -42.5t18.5 -64.5q0 -63 -49.5 -95.5t-126.5 -32.5q-45 0 -84.5 10t-68.5 22zM211 19l-15 -51h6h7q30 -2 49 -19.5t19 -46.5q0 -42 -39 -67.5t-100 -25.5h-11
t-10 1l-6 39q37 3 56.5 16.5t19.5 32.5q0 17 -13 25t-32 9l29 87h40z" />
    <glyph glyph-name="Scaron" unicode="&#x160;" horiz-adv-x="476" 
d="M441 161q0 -41 -21 -80t-67 -64.5t-122 -25.5q-57 0 -105.5 13.5t-81.5 30.5q-2 38 0.5 79.5t8.5 74.5h68l14 -91q1 -8 4.5 -14t10.5 -13q12 -12 34.5 -22t50.5 -10q42 0 64.5 22t22.5 60q0 32 -16.5 54t-44 39t-62.5 34q-38 19 -72 40t-55.5 52.5t-21.5 79.5
q0 69 50 115t149 46q43 0 85.5 -8t74.5 -22q3 -36 0.5 -73.5t-7.5 -71.5h-67l-14 80q-2 10 -5.5 17t-10.5 12q-11 8 -28.5 13.5t-36.5 5.5q-37 0 -57.5 -20t-20.5 -53q0 -30 14.5 -50t43 -36t67.5 -36q41 -20 76 -44t56.5 -56.5t21.5 -77.5zM398 733l-113 -117l-74 -4
l-121 118l33 38l126 -75l117 76z" />
    <glyph glyph-name="scaron" unicode="&#x161;" horiz-adv-x="401" 
d="M41 22q-4 29 -3 59t5 57h58l15 -54q5 -21 17 -29q8 -6 24 -12t38 -6q30 0 46.5 15.5t16.5 39.5q0 21 -14.5 34.5t-39.5 25.5t-58 27q-45 22 -74 49t-29 76q0 58 42.5 92.5t123.5 34.5q35 0 72.5 -7t63.5 -18q2 -26 0.5 -55t-6.5 -56h-54l-15 51q-3 10 -6.5 16t-11.5 11
q-10 5 -21 8.5t-24 3.5q-26 1 -42 -12.5t-16 -38.5q0 -21 12.5 -34.5t32.5 -23.5t44 -20q34 -14 64.5 -31t49 -42.5t18.5 -64.5q0 -63 -49.5 -95.5t-126.5 -32.5q-45 0 -84.5 10t-68.5 22zM351 627l-107 -141l-73 -7l-117 146l38 35l115 -95l108 96z" />
    <glyph glyph-name="Tcedilla" unicode="&#x162;" horiz-adv-x="571" 
d="M123 0v47l86 14q18 3 18 20v440h-35q-18 0 -33.5 -2t-25.5 -5q-15 -6 -18 -21l-28 -118h-59q-6 53 -6.5 99t5.5 98h518q5 -52 4 -98.5t-5 -98.5h-59l-30 119q-1 7 -5.5 12t-12.5 8q-20 7 -58 7h-34v-440q0 -17 18 -20l85 -14v-47h-325zM307 19l-15 -51h6h7
q30 -2 49 -19.5t19 -46.5q0 -42 -39 -67.5t-100 -25.5h-11t-10 1l-6 39q37 3 56.5 16.5t19.5 32.5q0 17 -13 25t-32 9l29 87h40z" />
    <glyph glyph-name="tcedilla" unicode="&#x163;" horiz-adv-x="341" 
d="M77 357l-58 9v44l46 8q10 2 14.5 6.5t7.5 13.5l36 106h64l3 -123h121v-62h-119v-215q0 -44 13 -59.5t39 -15.5q17 0 35 6t32 20l24 -26q-18 -38 -55 -56.5t-84 -18.5q-36 0 -62.5 10.5t-41.5 37t-15 74.5v241zM199 19l-15 -51h6h7q30 -2 49 -19.5t19 -46.5
q0 -42 -39 -67.5t-100 -25.5h-11t-10 1l-6 39q37 3 56.5 16.5t19.5 32.5q0 17 -13 25t-32 9l29 87h40z" />
    <glyph glyph-name="Tcaron" unicode="&#x164;" horiz-adv-x="571" 
d="M123 0v47l86 14q18 3 18 20v440h-35q-18 0 -33.5 -2t-25.5 -5q-15 -6 -18 -21l-28 -118h-59q-6 53 -6.5 99t5.5 98h518q5 -52 4 -98.5t-5 -98.5h-59l-30 119q-1 7 -5.5 12t-12.5 8q-20 7 -58 7h-34v-440q0 -17 18 -20l85 -14v-47h-325zM440 733l-113 -117l-74 -4
l-121 118l33 38l126 -75l117 76z" />
    <glyph glyph-name="tcaron" unicode="&#x165;" horiz-adv-x="341" 
d="M77 357l-58 9v44l46 8q10 2 14.5 6.5t7.5 13.5l36 106h64l3 -123h121v-62h-119v-215q0 -44 13 -59.5t39 -15.5q17 0 35 6t32 20l24 -26q-18 -38 -55 -56.5t-84 -18.5q-36 0 -62.5 10.5t-41.5 37t-15 74.5v241zM237 488l15 205l88 -10q-7 -51 -22 -105.5t-33 -99.5z" />
    <glyph glyph-name="Tbar" unicode="&#x166;" horiz-adv-x="574" 
d="M137 280h300v-55h-300v55zM124 0v47l86 14q18 3 18 20v440h-35q-18 0 -33.5 -2t-24.5 -5q-15 -6 -18 -21l-29 -118h-59q-5 53 -6 99t5 98h518q5 -52 4.5 -98.5t-5.5 -98.5h-59l-30 119q-1 7 -5.5 12t-11.5 8q-21 7 -58 7h-34v-440q0 -17 18 -20l85 -14v-47h-326z" />
    <glyph glyph-name="tbar" unicode="&#x167;" horiz-adv-x="342" 
d="M23 268h285v-54h-285v54zM78 355l-58 9v47l45 8q17 3 23 20l36 105h63l4 -123h121v-64h-120v-213q0 -44 13.5 -59.5t39.5 -15.5q17 0 34.5 6t32.5 20l24 -26q-18 -38 -55 -56.5t-85 -18.5q-35 0 -61.5 10.5t-41.5 37t-15 74.5v239z" />
    <glyph glyph-name="Utilde" unicode="&#x168;" horiz-adv-x="625" 
d="M592 572v-49l-41 -11q-17 -4 -17 -21v-281q0 -79 -27 -127t-76 -70t-117 -22q-115 0 -170.5 53.5t-55.5 171.5v275q0 16 -17 21l-38 11v49h255v-49l-60 -12q-18 -4 -18 -22v-284q0 -54 13 -91t40.5 -55t69.5 -18q70 0 97.5 44t27.5 119v286q0 18 -17 21l-61 12v49h212z
M377 619q-28 0 -49.5 12t-39.5 24.5t-37 12.5t-33.5 -14t-26.5 -31l-34 19q7 26 22 49.5t37 38t49 14.5q28 0 49.5 -12.5t40 -24.5t36.5 -12t33 13.5t27 31.5l35 -19q-7 -26 -22.5 -49.5t-37 -38t-49.5 -14.5z" />
    <glyph glyph-name="utilde" unicode="&#x169;" horiz-adv-x="520" 
d="M357 68q-26 -35 -60 -55.5t-90 -20.5q-66 0 -98 35.5t-32 110.5v195q0 17 -17 22l-41 9v48q35 9 78 13.5t78 4.5l15 -14v-262q0 -55 15.5 -76t50.5 -21q24 0 46 9t42 26zM499 7q-13 -4 -37 -9t-45 -5q-39 0 -60.5 20.5t-28.5 57.5v263q0 18 -17 21l-46 10v48
q37 8 81 12.5t81 4.5l15 -14v-338q0 -12 5 -16.5t14 -5.5l38 -5v-44zM306 476q-26 0 -46.5 13t-38 26t-35.5 13t-32.5 -14.5t-24.5 -33.5l-34 20q10 41 36.5 73t67.5 32q27 0 47.5 -13t38 -25.5t35.5 -12.5t32 14t25 33l35 -19q-11 -41 -37.5 -73.5t-68.5 -32.5z" />
    <glyph glyph-name="Umacron" unicode="&#x16a;" horiz-adv-x="625" 
d="M592 572v-49l-41 -11q-17 -4 -17 -21v-281q0 -79 -27 -127t-76 -70t-117 -22q-115 0 -170.5 53.5t-55.5 171.5v275q0 16 -17 21l-38 11v49h255v-49l-60 -12q-18 -4 -18 -22v-284q0 -54 13 -91t40.5 -55t69.5 -18q70 0 97.5 44t27.5 119v286q0 18 -17 21l-61 12v49h212z
M187 708h268v-68h-268v68z" />
    <glyph glyph-name="umacron" unicode="&#x16b;" horiz-adv-x="520" 
d="M357 68q-26 -35 -60 -55.5t-90 -20.5q-66 0 -98 35.5t-32 110.5v195q0 17 -17 22l-41 9v48q35 9 78 13.5t78 4.5l15 -14v-262q0 -55 15.5 -76t50.5 -21q24 0 46 9t42 26zM499 7q-13 -4 -37 -9t-45 -5q-39 0 -60.5 20.5t-28.5 57.5v263q0 18 -17 21l-46 10v48
q37 8 81 12.5t81 4.5l15 -14v-338q0 -12 5 -16.5t14 -5.5l38 -5v-44zM123 568h259v-68h-259v68z" />
    <glyph glyph-name="Ubreve" unicode="&#x16c;" horiz-adv-x="625" 
d="M592 572v-49l-41 -11q-17 -4 -17 -21v-281q0 -79 -27 -127t-76 -70t-117 -22q-115 0 -170.5 53.5t-55.5 171.5v275q0 16 -17 21l-38 11v49h255v-49l-60 -12q-18 -4 -18 -22v-284q0 -54 13 -91t40.5 -55t69.5 -18q70 0 97.5 44t27.5 119v286q0 18 -17 21l-61 12v49h212z
M320 617q-58 0 -98 33.5t-49 81.5l46 24q19 -32 46 -46.5t59 -14.5q30 0 57.5 14t47.5 47l41 -24q-13 -49 -53 -82t-97 -33z" />
    <glyph glyph-name="ubreve" unicode="&#x16d;" horiz-adv-x="520" 
d="M357 68q-26 -35 -60 -55.5t-90 -20.5q-66 0 -98 35.5t-32 110.5v195q0 17 -17 22l-41 9v48q35 9 78 13.5t78 4.5l15 -14v-262q0 -55 15.5 -76t50.5 -21q24 0 46 9t42 26zM499 7q-13 -4 -37 -9t-45 -5q-39 0 -60.5 20.5t-28.5 57.5v263q0 18 -17 21l-46 10v48
q37 8 81 12.5t81 4.5l15 -14v-338q0 -12 5 -16.5t14 -5.5l38 -5v-44zM250 479q-56 0 -95.5 34t-47.5 84l47 24q17 -33 42.5 -49t57.5 -16q31 0 57.5 15.5t46.5 49.5l41 -24q-12 -52 -52 -85t-97 -33z" />
    <glyph glyph-name="Uring" unicode="&#x16e;" horiz-adv-x="625" 
d="M592 572v-49l-41 -11q-17 -4 -17 -21v-281q0 -79 -27 -127t-76 -70t-117 -22q-115 0 -170.5 53.5t-55.5 171.5v275q0 16 -17 21l-38 11v49h255v-49l-60 -12q-18 -4 -18 -22v-284q0 -54 13 -91t40.5 -55t69.5 -18q70 0 97.5 44t27.5 119v286q0 18 -17 21l-61 12v49h212z
M320 601q-53 0 -82 26t-28 70q1 42 34.5 67t80.5 25q53 0 79.5 -26.5t26.5 -67.5q0 -43 -32.5 -68.5t-78.5 -25.5zM321 648q22 0 34 11.5t12 33.5q0 21 -11 35.5t-35 14.5q-22 0 -33.5 -12t-11.5 -34q0 -20 11 -34.5t34 -14.5z" />
    <glyph glyph-name="uring" unicode="&#x16f;" horiz-adv-x="520" 
d="M357 68q-26 -35 -60 -55.5t-90 -20.5q-66 0 -98 35.5t-32 110.5v195q0 17 -17 22l-41 9v48q35 9 78 13.5t78 4.5l15 -14v-262q0 -55 15.5 -76t50.5 -21q24 0 46 9t42 26zM499 7q-13 -4 -37 -9t-45 -5q-39 0 -60.5 20.5t-28.5 57.5v263q0 18 -17 21l-46 10v48
q37 8 81 12.5t81 4.5l15 -14v-338q0 -12 5 -16.5t14 -5.5l38 -5v-44zM252 471q-52 0 -79.5 25t-26.5 68q0 41 32.5 65t78.5 24q52 0 78 -26t26 -65q0 -42 -32.5 -66.5t-76.5 -24.5zM253 516q21 0 32.5 11t11.5 33q0 20 -10.5 34t-33.5 14q-21 0 -32 -11.5t-11 -33.5
q0 -19 10.5 -33t32.5 -14z" />
    <glyph glyph-name="Uhungarumlaut" unicode="&#x170;" horiz-adv-x="625" 
d="M592 572v-49l-41 -11q-17 -4 -17 -21v-281q0 -79 -27 -127t-76 -70t-117 -22q-115 0 -170.5 53.5t-55.5 171.5v275q0 16 -17 21l-38 11v49h255v-49l-60 -12q-18 -4 -18 -22v-284q0 -54 13 -91t40.5 -55t69.5 -18q70 0 97.5 44t27.5 119v286q0 18 -17 21l-61 12v49h212z
M186 635l110 142l68 -53q-18 -21 -43 -42.5t-52 -42t-49 -36.5zM354 637l121 140l64 -59q-19 -18 -46 -39.5t-55.5 -41.5t-52.5 -34z" />
    <glyph glyph-name="uhungarumlaut" unicode="&#x171;" horiz-adv-x="520" 
d="M357 68q-26 -35 -60 -55.5t-90 -20.5q-66 0 -98 35.5t-32 110.5v195q0 17 -17 22l-41 9v48q35 9 78 13.5t78 4.5l15 -14v-262q0 -55 15.5 -76t50.5 -21q24 0 46 9t42 26zM499 7q-13 -4 -37 -9t-45 -5q-39 0 -60.5 20.5t-28.5 57.5v263q0 18 -17 21l-46 10v48
q37 8 81 12.5t81 4.5l15 -14v-338q0 -12 5 -16.5t14 -5.5l38 -5v-44zM136 491l91 166l73 -42q-14 -24 -35.5 -52.5t-46 -55t-46.5 -45.5zM288 493l101 161l70 -45q-15 -23 -38 -50.5t-49 -53t-49 -43.5z" />
    <glyph glyph-name="Uogonek" unicode="&#x172;" horiz-adv-x="625" 
d="M314 -8q-115 0 -170.5 53.5t-55.5 170.5v275q0 16 -17 21l-38 11v49h255v-49l-60 -12q-18 -4 -18 -22v-284q0 -54 13 -90.5t40.5 -55t69.5 -18.5q70 0 97.5 44t27.5 119v286q0 18 -17 21l-61 12v49h212v-49l-41 -11q-17 -4 -17 -21v-281q0 -68 -20.5 -114t-59.5 -71
q-51 -33 -140 -33zM356 -188q-42 0 -70.5 19t-28.5 55q0 26 14 46.5t36 35t43 23.5v6l104 28q-49 -32 -77.5 -58.5t-28.5 -53.5q0 -20 13 -29t34 -9q11 0 22.5 2.5t22.5 6.5l18 -45q-21 -13 -49 -20t-53 -7z" />
    <glyph glyph-name="uogonek" unicode="&#x173;" horiz-adv-x="520" 
d="M391 -188q-42 0 -70 18.5t-28 55.5q0 38 30.5 66.5t67.5 43.5v6l91 2q-44 -12 -71.5 -37.5t-27.5 -53.5q0 -20 13.5 -29t34.5 -9q22 0 43 9l17 -45q-20 -13 -47.5 -20t-52.5 -7zM207 -8q-66 0 -98 35.5t-32 110.5v195q0 17 -17 22l-41 9v48q35 9 78 13.5t78 4.5l15 -14
v-262q0 -55 15.5 -76t50.5 -21q24 0 46 9t42 26l13 -24q-26 -35 -60 -55.5t-90 -20.5zM417 -7q-39 0 -60.5 20.5t-28.5 57.5v263q0 18 -17 21l-46 10v48q37 8 81 12.5t81 4.5l15 -14v-338q0 -12 5 -16.5t14 -5.5l38 -5v-44q-13 -4 -37 -9t-45 -5z" />
    <glyph glyph-name="Wcircumflex" unicode="&#x174;" horiz-adv-x="835" 
d="M431 395l-109 -397h-107l-152 495q-5 15 -19 18l-47 12v49h250v-49l-66 -14l118 -435h-16l111 396zM372 493q-4 14 -19 18l-34 12v49h243v-49l-72 -14l116 -436h-19l116 436l-66 14v49h198v-49l-49 -12q-7 -1 -12 -5.5t-7 -12.5l-140 -495h-107l-115 399zM266 643
l112 116l75 4l121 -117l-33 -38l-126 74l-118 -75z" />
    <glyph glyph-name="wcircumflex" unicode="&#x175;" horiz-adv-x="676" 
d="M562 362l-54 11v48h160v-46l-26 -9q-7 -2 -12.5 -6t-7.5 -12l-106 -354h-51zM235 -6h-71l-113 355q-5 13 -19 17l-26 9v46h206v-48l-52 -11l89 -320zM335 421h74l103 -378l-14 -49h-72l-111 372zM256 -6h-54l112 427h58zM204 499l106 142l73 7l118 -146l-38 -36l-116 95
l-107 -96z" />
    <glyph glyph-name="Ycircumflex" unicode="&#x176;" horiz-adv-x="544" 
d="M232 192l-172 304q-7 12 -22 16l-45 11v49h259v-49l-60 -14l129 -248h-34l121 248l-66 14v49h198v-49l-43 -10q-7 -2 -12.5 -6t-8.5 -10l-154 -305h-90zM127 0v47l70 14q18 3 18 20v156h122v-156q0 -17 18 -20l69 -14v-47h-297zM127 643l112 116l75 4l121 -117l-33 -38
l-126 74l-118 -75z" />
    <glyph glyph-name="ycircumflex" unicode="&#x177;" horiz-adv-x="467" 
d="M18 -123q50 7 88.5 16.5t66.5 28.5t49.5 53t38.5 89l92 298l-54 11v48h163v-46l-29 -9q-8 -3 -13 -7t-8 -13l-121 -356q-31 -90 -72.5 -134t-105.5 -44q-24 0 -49 2.5t-46 6.5v56zM260 0h-73l-130 347q-6 15 -22 19l-28 9v46h227v-48l-56 -11l107 -315zM102 499l106 142
l73 7l118 -146l-38 -36l-116 95l-107 -96z" />
    <glyph glyph-name="Ydieresis" unicode="&#x178;" horiz-adv-x="544" 
d="M232 192l-172 304q-7 12 -22 16l-45 11v49h259v-49l-60 -14l129 -248h-34l121 248l-66 14v49h198v-49l-43 -10q-7 -2 -12.5 -6t-8.5 -10l-154 -305h-90zM127 0v47l70 14q18 3 18 20v156h122v-156q0 -17 18 -20l69 -14v-47h-297zM242 677q0 -26 -15 -42t-41 -16t-41 16
t-15 42t15 41.5t41 15.5t41 -15.5t15 -41.5zM432 677q0 -26 -15 -42t-41 -16t-41 16t-15 42t15 41.5t41 15.5t41 -15.5t15 -41.5z" />
    <glyph glyph-name="Zacute" unicode="&#x179;" horiz-adv-x="512" 
d="M44 0l-24 41l321 494l16 -14h-111q-23 0 -41 -2t-29 -6q-16 -6 -22 -22l-30 -99h-66q-2 45 1 91.5t10 88.5h387l18 -42l-318 -494l-22 19h148q24 0 41.5 2t29.5 6q15 6 20 23l35 103l64 -8q1 -25 -0.5 -57t-5 -64.5t-8.5 -59.5h-414zM201 611l-20 40l186 122l51 -74
q-25 -18 -62.5 -34t-78 -30t-76.5 -24z" />
    <glyph glyph-name="zacute" unicode="&#x17a;" horiz-adv-x="430" 
d="M272 387l7 -14h-76q-14 0 -29.5 -0.5t-27.5 -2.5q-9 -2 -15 -6t-8 -14l-17 -71h-53q-4 35 -5.5 72t1.5 70h329l19 -43l-244 -343l-7 13h75q18 0 36.5 1t32.5 4q9 2 15 5.5t8 11.5l25 78l52 -6q3 -35 2 -71t-5 -71h-343l-20 42zM148 498l140 162l65 -60q-17 -22 -45 -46.5
t-62 -47.5t-68 -43z" />
    <glyph glyph-name="Zdotaccent" unicode="&#x17b;" horiz-adv-x="512" 
d="M44 0l-24 41l321 494l16 -14h-111q-23 0 -41 -2t-29 -6q-16 -6 -22 -22l-30 -99h-66q-2 45 1 91.5t10 88.5h387l18 -42l-318 -494l-22 19h148q24 0 41.5 2t29.5 6q15 6 20 23l35 103l64 -8q1 -25 -0.5 -57t-5 -64.5t-8.5 -59.5h-414zM338 686q0 -29 -18 -45.5t-49 -16.5
q-30 0 -48.5 16.5t-18.5 45.5q0 28 18.5 45t48.5 17q31 0 49 -17t18 -45z" />
    <glyph glyph-name="zdotaccent" unicode="&#x17c;" horiz-adv-x="430" 
d="M272 387l7 -14h-76q-14 0 -29.5 -0.5t-27.5 -2.5q-9 -2 -15 -6t-8 -14l-17 -71h-53q-4 35 -5.5 72t1.5 70h329l19 -43l-244 -343l-7 13h75q18 0 36.5 1t32.5 4q9 2 15 5.5t8 11.5l25 78l52 -6q3 -35 2 -71t-5 -71h-343l-20 42zM287 544q0 -28 -18 -45t-47 -17
q-30 0 -48 17t-18 45t18 44.5t48 16.5q29 0 47 -16.5t18 -44.5z" />
    <glyph glyph-name="Zcaron" unicode="&#x17d;" horiz-adv-x="512" 
d="M44 0l-24 41l321 494l16 -14h-111q-23 0 -41 -2t-29 -6q-16 -6 -22 -22l-30 -99h-66q-2 45 1 91.5t10 88.5h387l18 -42l-318 -494l-22 19h148q24 0 41.5 2t29.5 6q15 6 20 23l35 103l64 -8q1 -25 -0.5 -57t-5 -64.5t-8.5 -59.5h-414zM425 733l-113 -117l-74 -4l-121 118
l33 38l126 -75l117 76z" />
    <glyph glyph-name="zcaron" unicode="&#x17e;" horiz-adv-x="430" 
d="M272 387l7 -14h-76q-14 0 -29.5 -0.5t-27.5 -2.5q-9 -2 -15 -6t-8 -14l-17 -71h-53q-4 35 -5.5 72t1.5 70h329l19 -43l-244 -343l-7 13h75q18 0 36.5 1t32.5 4q9 2 15 5.5t8 11.5l25 78l52 -6q3 -35 2 -71t-5 -71h-343l-20 42zM367 627l-107 -141l-73 -7l-117 146l38 35
l115 -95l108 96z" />
    <glyph glyph-name="Schwa" unicode="&#x18f;" horiz-adv-x="564" 
d="M264 -10q-67 0 -117.5 24.5t-79 74t-28.5 124.5q0 23 2.5 43l3.5 28l404 -1l-2 -55h-279q-1 -9 -2 -20.5t-1 -23.5q0 -40 11 -72t35 -50.5t61 -18.5q66 0 95 60t29 163q0 82 -16 140.5t-48.5 91t-80.5 32.5q-24 0 -41.5 -6.5t-29.5 -16.5q-9 -8 -11.5 -14.5t-4.5 -13.5
l-18 -91h-69q-9 35 -13 76t-4 72q39 20 91 32.5t108 12.5q131 0 199 -76.5t68 -215.5q0 -96 -32 -162.5t-90.5 -101.5t-139.5 -35z" />
    <glyph glyph-name="florin" unicode="&#x192;" horiz-adv-x="422" 
d="M141 -119q-23 -26 -57.5 -45.5t-75.5 -31.5l-26 47q30 21 49.5 43t30 49t16 62.5t10.5 83.5l11 127l-64 11v44l70 12l3 21q4 41 23.5 78.5t49.5 66.5t66.5 45.5t74.5 16.5q21 0 44.5 -5t41.5 -17q-2 -36 -8 -69t-14 -66h-58l-7 56q-1 7 -2.5 12.5t-6.5 9.5q-6 5 -12.5 7
t-13.5 2q-27 0 -43 -20.5t-21 -70.5l-6 -68h111v-64h-115l-12 -130q-5 -63 -14 -103t-20.5 -64t-24.5 -40z" />
    <glyph glyph-name="Ohorn" unicode="&#x1a0;" horiz-adv-x="582" 
d="M38 275q0 97 31 165t89.5 104.5t141.5 36.5q120 0 182 -77t62 -209q0 -96 -30.5 -164t-89.5 -104t-143 -36q-124 0 -183.5 76t-59.5 208zM168 283q0 -125 30.5 -183t90.5 -58t92 59t32 189q0 124 -30 181t-91 57q-60 0 -92 -58t-32 -187zM429 490l-129 91q53 0 88 -10.5
t62 -10.5q17 0 25 9.5t8 25.5q0 19 -14 38.5t-30 34.5l52 54q31 -18 54.5 -41.5t23.5 -52.5q0 -39 -33.5 -72t-106.5 -66z" />
    <glyph glyph-name="ohorn" unicode="&#x1a1;" horiz-adv-x="485" 
d="M244 431q64 0 107.5 -25t66.5 -73t23 -118q0 -82 -27.5 -131t-75 -71t-107.5 -22q-64 0 -108 24.5t-67 72.5t-23 119q0 81 28 130t76 71.5t107 22.5zM235 380q-40 0 -59.5 -37t-19.5 -127q0 -60 7.5 -99t26 -57.5t50.5 -18.5q39 0 58.5 37t19.5 128q0 60 -7 98.5
t-25.5 57t-50.5 18.5zM359 345l-115 86q30 -1 53 -5t42 -7.5t37 -3.5q16 0 25 8.5t9 26.5q0 19 -14 37.5t-30 33.5l52 51q31 -18 52 -41t21 -52q0 -26 -14 -48t-43 -42.5t-75 -43.5z" />
    <glyph glyph-name="Uhorn" unicode="&#x1af;" horiz-adv-x="629" 
d="M33 523v49h255v-49l-60 -12q-18 -4 -18 -22v-284q0 -54 13 -90.5t40.5 -55t69.5 -18.5q70 0 97.5 44t27.5 119v286q0 18 -17 21l-61 12v49h155q33 0 33 29q0 18 -14.5 39t-30.5 36l52 54q31 -18 54.5 -42t23.5 -53q0 -40 -31 -72.5t-88 -64.5v-288q0 -79 -27 -127
t-76 -69.5t-117 -21.5q-115 0 -170.5 53.5t-55.5 170.5v275q0 16 -17 21z" />
    <glyph glyph-name="uhorn" unicode="&#x1b0;" horiz-adv-x="530" 
d="M537 486q0 -36 -26 -65t-80 -60l11 18v-301q0 -12 5 -16.5t14 -5.5l38 -5v-44q-13 -4 -37 -9t-45 -5q-31 0 -51 13t-30 37q-22 -24 -53 -37.5t-76 -13.5q-66 0 -98 35.5t-32 110.5v195q0 17 -17 22l-41 9v48q35 9 78 13.5t78 4.5l15 -14v-262q0 -55 15.5 -76t50.5 -21
q19 0 37.5 5.5t34.5 18.5v253q0 18 -17 21l-46 10v48q36 5 79 9t78 6q17 1 25.5 7.5t8.5 20.5q0 19 -14 38t-30 34l52 50q31 -18 52 -41t21 -51z" />
    <glyph glyph-name="DZcaron" unicode="&#x1c4;" horiz-adv-x="1115" 
d="M168 572q36 0 67 2t63 2q140 0 208 -66.5t68 -204.5q0 -153 -76 -233t-209 -78q-16 1 -38.5 2t-44 2.5t-37.5 1.5h-134v47l59 11q16 3 16 19v416q0 15 -16 18l-59 12v49h133zM229 54q11 -4 29.5 -6t34.5 -2q48 1 81.5 24t51.5 75.5t18 140.5q0 117 -37 179t-121 62
q-21 0 -36 -2.5l-21 -3.5v-467zM648 0l-24 41l321 494l16 -14h-111q-23 0 -41 -2t-29 -6q-16 -6 -22 -22l-30 -99h-66q-2 45 1 91.5t10 88.5h387l18 -42l-318 -494l-22 19h148q24 0 41.5 2t29.5 6q15 6 20 23l35 103l64 -8q1 -25 -0.5 -57t-5 -64.5t-8.5 -59.5h-414z
M1029 733l-113 -117l-74 -4l-121 118l33 38l126 -75l117 76z" />
    <glyph glyph-name="Dzcaron" unicode="&#x1c5;" horiz-adv-x="1042" 
d="M168 572q36 0 67 2t63 2q140 0 208 -66.5t68 -204.5q0 -153 -76 -233t-209 -78q-16 1 -38.5 2t-44 2.5t-37.5 1.5h-134v47l59 11q16 3 16 19v416q0 15 -16 18l-59 12v49h133zM229 54q11 -4 29.5 -6t34.5 -2q48 1 81.5 24t51.5 75.5t18 140.5q0 117 -37 179t-121 62
q-21 0 -36 -2.5l-21 -3.5v-467zM884 387l7 -14h-76q-14 0 -29.5 -0.5t-27.5 -2.5q-9 -2 -15 -6t-8 -14l-17 -71h-53q-4 35 -5.5 72t1.5 70h329l19 -43l-244 -343l-7 13h75q18 0 36.5 1t32.5 4q9 2 15 5.5t8 11.5l25 78l52 -6q3 -35 2 -71t-5 -71h-343l-20 42zM978 627
l-107 -141l-73 -7l-117 146l38 35l115 -95l108 96z" />
    <glyph glyph-name="dzcaron" unicode="&#x1c6;" horiz-adv-x="932" 
d="M198 -8q-47 0 -84 21.5t-58.5 67t-21.5 118.5q0 76 25.5 127.5t73.5 78t115 26.5q23 0 46.5 -4t36.5 -9l-12 -59q-8 8 -27 14t-39 6q-29 0 -51 -15t-35 -51.5t-13 -99.5q0 -58 10 -92t29.5 -49t44.5 -15q23 0 46.5 8.5t39.5 23.5l13 -18q-21 -34 -56 -56.5t-83 -22.5z
M422 639v-561q0 -12 5 -16.5t14 -5.5l38 -5v-44q-13 -4 -37 -9t-45 -5q-39 0 -60.5 20.5t-28.5 57.5v487q0 18 -17 21l-51 8v45q37 10 83 16t83 7zM775 387l7 -14h-76q-14 0 -29.5 -0.5t-27.5 -2.5q-9 -2 -15 -6t-8 -14l-17 -71h-53q-4 35 -5.5 72t1.5 70h329l19 -43
l-244 -343l-7 13h75q18 0 36.5 1t32.5 4q9 2 15 5.5t8 11.5l25 78l52 -6q3 -35 2 -71t-5 -71h-343l-20 42zM869 627l-107 -141l-73 -7l-117 146l38 35l115 -95l108 96z" />
    <glyph glyph-name="LJ" unicode="&#x1c7;" horiz-adv-x="832" 
d="M431 198l60 -8q0 -44 -2.5 -92.5t-12.5 -97.5h-441v47l57 11q18 3 18 21v412q0 18 -18 21l-57 11v49h287v-49l-76 -12q-17 -4 -17 -21v-435h76q24 0 42 2t29 7q16 6 21 23zM752 511q-17 -3 -17 -21v-353q0 -63 -8.5 -108.5t-31 -77.5t-63.5 -55.5t-106 -43.5l-22 48
q47 28 71 55t32.5 65.5t8.5 100.5v369q0 18 -18 21l-57 12v49h261v-49z" />
    <glyph glyph-name="Lj" unicode="&#x1c8;" horiz-adv-x="763" 
d="M431 198l60 -8q0 -44 -2.5 -92.5t-12.5 -97.5h-441v47l57 11q18 3 18 21v412q0 18 -18 21l-57 11v49h287v-49l-76 -12q-17 -4 -17 -21v-435h76q24 0 42 2t29 7q16 6 21 23zM699 415v-376q0 -47 -6.5 -79t-19.5 -53.5t-34 -38.5q-27 -23 -63.5 -37.5t-75.5 -25.5l-22 48
q43 24 66.5 48t33 55.5t9.5 77.5v297q0 19 -17 22l-47 8v48q36 11 80.5 15.5t80.5 5.5zM700 544q0 -28 -18 -45t-47 -17q-30 0 -48 17t-18 45t18 44.5t48 16.5q29 0 47 -16.5t18 -44.5z" />
    <glyph glyph-name="lj" unicode="&#x1c9;" horiz-adv-x="536" 
d="M195 76q0 -19 18 -22l47 -7v-47h-243v47l47 7q18 3 18 21v483q0 18 -18 21l-50 8v45q37 10 83 16t83 7l15 -16v-563zM472 415v-376q0 -47 -6.5 -79t-19.5 -53.5t-34 -38.5q-27 -23 -63.5 -37.5t-75.5 -25.5l-22 48q43 24 66.5 48t33 55.5t9.5 77.5v297q0 19 -17 22l-47 8
v48q36 11 80.5 15.5t80.5 5.5zM473 544q0 -28 -18 -45t-47 -17q-30 0 -48 17t-18 45t18 44.5t48 16.5q29 0 47 -16.5t18 -44.5z" />
    <glyph glyph-name="NJ" unicode="&#x1ca;" horiz-adv-x="978" 
d="M573 511q-18 -3 -18 -21v-490h-106l-297 479l26 3v-403q0 -18 18 -21l66 -11v-47h-227v47l57 11q18 3 18 21v411q0 18 -18 21l-57 12v49h196l281 -451l-25 -3v372q0 18 -18 21l-60 12v49h216v-49zM898 511q-17 -3 -17 -21v-353q0 -63 -8.5 -108.5t-31 -77.5t-63.5 -55.5
t-106 -43.5l-22 48q47 28 71 55t32.5 65.5t8.5 100.5v369q0 18 -18 21l-57 12v49h261v-49z" />
    <glyph glyph-name="Nj" unicode="&#x1cb;" horiz-adv-x="910" 
d="M573 511q-18 -3 -18 -21v-490h-106l-297 479l26 3v-403q0 -18 18 -21l66 -11v-47h-227v47l57 11q18 3 18 21v411q0 18 -18 21l-57 12v49h196l281 -451l-25 -3v372q0 18 -18 21l-60 12v49h216v-49zM846 415v-376q0 -47 -6.5 -79t-19.5 -53.5t-34 -38.5
q-27 -23 -63.5 -37.5t-75.5 -25.5l-22 48q43 24 66.5 48t33 55.5t9.5 77.5v297q0 19 -17 22l-47 8v48q36 11 80.5 15.5t80.5 5.5zM847 544q0 -28 -18 -45t-47 -17q-30 0 -48 17t-18 45t18 44.5t48 16.5q29 0 47 -16.5t18 -44.5z" />
    <glyph glyph-name="nj" unicode="&#x1cc;" horiz-adv-x="798" 
d="M302 0v47l30 7q9 2 13.5 7t4.5 15v182q0 55 -15.5 79t-52.5 24q-27 0 -53 -10.5t-48 -30.5l1 35q29 40 68.5 58t86.5 18q73 0 99.5 -41.5t26.5 -117.5v-196q0 -19 18 -22l41 -7v-47h-220zM31 0v47l42 7q17 3 17 22v255q0 19 -17 22l-46 8v48q35 10 74 15t74 6l17 -15
l12 -74v-265q0 -18 17 -22l30 -7v-47h-220zM734 415v-376q0 -47 -6.5 -79t-19.5 -53.5t-34 -38.5q-27 -23 -63.5 -37.5t-75.5 -25.5l-22 48q43 24 66.5 48t33 55.5t9.5 77.5v297q0 19 -17 22l-47 8v48q36 11 80.5 15.5t80.5 5.5zM735 544q0 -28 -18 -45t-47 -17
q-30 0 -48 17t-18 45t18 44.5t48 16.5q29 0 47 -16.5t18 -44.5z" />
    <glyph glyph-name="Gcaron" unicode="&#x1e6;" horiz-adv-x="580" 
d="M276 -9q-78 0 -130.5 34.5t-80 99.5t-27.5 154q0 103 34.5 170t98.5 99.5t154 32.5q48 0 95 -9t84 -25q2 -35 -0.5 -71t-6.5 -72h-72l-19 80q-3 11 -7 17t-12 11q-11 8 -28.5 13.5t-41.5 5.5q-44 0 -76 -26t-48.5 -81.5t-16.5 -143.5q0 -69 12.5 -119.5t42.5 -78
t82 -27.5q41 0 71.5 16.5t49.5 47.5l19 -39q-24 -39 -67.5 -64t-109.5 -25zM491 -5l-69 57h-21v180l-80 8v52h233v-52l-39 -6v-226zM475 733l-113 -117l-74 -4l-121 118l33 38l126 -75l117 76z" />
    <glyph glyph-name="gcaron" unicode="&#x1e7;" horiz-adv-x="478" 
d="M451 -36q0 -49 -30 -86t-84.5 -57t-128.5 -20q-95 0 -138 32.5t-43 82.5q0 46 31.5 70t82.5 36l34 -3q-16 -12 -28 -32.5t-12 -51.5q0 -35 20.5 -57.5t72.5 -22.5q49 0 78.5 22.5t29.5 65.5q0 28 -15 42t-54 14h-81q-66 0 -95 21.5t-29 58.5q0 35 23 56t57 31l32 -8
q-16 -10 -23 -21.5t-7 -24.5q0 -20 18 -28t62 -8h79q72 0 110 -28t38 -84zM398 291q0 -67 -45 -108t-139 -41q-62 0 -100.5 17.5t-56 49t-17.5 71.5q0 49 22.5 82.5t65 51t100.5 17.5q80 0 125 -35t45 -105zM154 288q0 -51 17 -74.5t51 -23.5t49.5 23.5t15.5 72.5
q0 52 -16 75t-50 23q-21 0 -36 -9.5t-23 -30.5t-8 -56zM370 345l-28 22q16 29 38.5 46.5t46.5 17.5q10 0 20.5 -2.5t18.5 -4.5v-79h-96zM376 627l-107 -141l-73 -7l-117 146l38 35l115 -95l108 96z" />
    <glyph glyph-name="Oogonek" unicode="&#x1ea;" horiz-adv-x="582" 
d="M395 9q-40 -22 -61 -44.5t-21 -49.5q0 -20 13.5 -29.5t34.5 -9.5q10 0 21.5 2.5t21.5 7.5l18 -45q-21 -13 -48.5 -21t-53.5 -7q-41 1 -69 19t-28 56q0 33 22.5 58t58.5 43v2h-11h-12q-124 0 -183.5 76t-59.5 208q0 97 31 165t89.5 104.5t141.5 36.5q125 0 184.5 -77
t59.5 -209q0 -79 -18.5 -133t-52 -90.5t-78.5 -62.5zM168 283q0 -125 30.5 -183t90.5 -58t92 59t32 189q0 124 -30 181t-91 57q-60 0 -92 -58t-32 -187z" />
    <glyph glyph-name="oogonek" unicode="&#x1eb;" horiz-adv-x="475" 
d="M333 7q-33 -20 -55.5 -43.5t-22.5 -50.5q0 -20 13.5 -29.5t34.5 -9.5q11 0 22 2.5t22 7.5l17 -45q-21 -13 -48.5 -21t-52.5 -7q-42 1 -70 19t-28 56q0 32 22.5 59t58.5 44v2h-7.5h-7.5q-64 0 -108 24t-67 72t-23 119q0 81 28 130.5t76 72t107 22.5q64 0 107.5 -25
t66.5 -73t23 -119q0 -60 -14.5 -99t-38.5 -64t-55 -44zM235 380q-40 0 -59.5 -37t-19.5 -127q0 -60 7.5 -99t26 -57.5t50.5 -18.5q39 0 58.5 36.5t19.5 127.5q0 60 -7 99t-25.5 57.5t-50.5 18.5z" />
    <glyph glyph-name="Aringacute" unicode="&#x1fa;" horiz-adv-x="577" 
d="M148 225h233l20 -56h-269zM515 77q4 -14 21 -18l44 -12v-47h-254v47l71 13l-151 467h30l-145 -467l70 -13v-47h-205v47l48 12q15 4 20 18l168 497h112zM288 601q-53 0 -82 26t-28 70q1 42 34.5 67t80.5 25q53 0 79.5 -26.5t26.5 -67.5q0 -43 -32.5 -68.5t-78.5 -25.5z
M289 648q22 0 34 11.5t12 33.5q0 21 -11 35.5t-35 14.5q-22 0 -33.5 -12t-11.5 -34q0 -20 11 -34.5t34 -14.5zM221 794l-20 40l186 122l51 -74q-25 -18 -62.5 -34t-78 -30t-76.5 -24z" />
    <glyph glyph-name="aringacute" unicode="&#x1fb;" horiz-adv-x="450" 
d="M147 -8q-53 0 -86 28t-33 76q0 41 23 67t60 39.5t78 15.5l96 6v-44l-69 -6q-38 -1 -54.5 -19t-16.5 -46q0 -26 11.5 -39t37.5 -13t50.5 11.5t38.5 29.5l10 -25q-20 -38 -58 -59.5t-88 -21.5zM40 333q17 46 62 71.5t114 25.5q84 0 122 -39t38 -118v-195q0 -20 20 -22
l37 -5v-44q-13 -4 -36.5 -9t-43.5 -5q-36 0 -58.5 17t-28.5 56v202q0 48 -21.5 67t-61.5 19q-34 0 -63 -10.5t-54 -33.5zM216 461q-52 0 -79.5 25t-26.5 68q0 41 32.5 65t78.5 24q52 0 78 -26t26 -65q0 -42 -32.5 -66.5t-76.5 -24.5zM217 506q21 0 32.5 11t11.5 33
q0 20 -10.5 34t-33.5 14q-21 0 -32 -11.5t-11 -33.5q0 -19 10.5 -33t32.5 -14zM152 693l140 162l65 -60q-17 -22 -45 -46.5t-62 -47.5t-68 -43z" />
    <glyph glyph-name="AEacute" unicode="&#x1fc;" horiz-adv-x="773" 
d="M290 0v47l58 11q17 3 17 21v493h346q4 -37 4 -74t-3 -76h-57l-18 68q-5 16 -21 23q-11 3 -28.5 5.5t-37.5 2.5h-71v-203l163 6v-68l-163 4v-206h88q20 0 40 2t31 6q8 4 12 9t7 15l31 86l56 -9q0 -41 -3.5 -81t-10.5 -82h-440zM-5 0v47l53 12q13 3 20 17l212 496h113
l-6 -57h-60l-191 -457l72 -11v-47h-213zM162 205l17 56h230v-56h-247zM271 505l-112 18v49h140zM355 611l-20 40l186 122l51 -74q-25 -18 -62.5 -34t-78 -30t-76.5 -24z" />
    <glyph glyph-name="aeacute" unicode="&#x1fd;" horiz-adv-x="656" 
d="M452 -10q-64 0 -105.5 26.5t-61 74t-19.5 110.5q0 104 50 167t147 63q79 0 119.5 -39.5t40.5 -105.5q0 -13 -1.5 -29t-4.5 -29h-277v45h178v9v9q0 40 -16.5 65.5t-49.5 25.5q-35 0 -55 -35.5t-20 -121.5q0 -60 12.5 -96t37 -52t59.5 -16q31 0 59.5 12t46.5 36l28 -19
q-15 -50 -61.5 -75t-106.5 -25zM266 191v78q0 47 -21.5 66t-63.5 19q-30 0 -60.5 -10.5t-54.5 -33.5l-26 23q11 32 36 53.5t59 32.5t73 11q55 0 87 -21.5t46.5 -60.5t16.5 -93zM151 -8q-58 0 -90.5 28t-32.5 76q0 41 23 67t60.5 39.5t78.5 15.5l97 6v-44l-71 -6
q-39 -2 -55 -19.5t-16 -44.5q0 -26 11.5 -39.5t37.5 -13.5q28 0 56.5 14t50.5 39l14 -24q-21 -44 -64.5 -69t-99.5 -25zM277 498l140 162l65 -60q-17 -22 -45 -46.5t-62 -47.5t-68 -43z" />
    <glyph glyph-name="Oslashacute" unicode="&#x1fe;" horiz-adv-x="582" 
d="M279 -9q-125 0 -184 76t-59 209q0 97 30.5 165t89 104t142.5 36q125 0 184.5 -76.5t59.5 -208.5q0 -97 -30.5 -165.5t-89.5 -104t-143 -35.5zM148 -78l-53 27l47 92l17 16l218 470l6 20l47 95l52 -28l-44 -89l-17 -16l-219 -469l-5 -21zM287 41q63 0 96.5 58t33.5 191
q0 128 -31.5 184t-95.5 56t-97 -57.5t-33 -189.5q0 -128 31.5 -185t95.5 -57zM221 611l-20 40l186 122l51 -74q-25 -18 -62.5 -34t-78 -30t-76.5 -24z" />
    <glyph glyph-name="oslashacute" unicode="&#x1ff;" horiz-adv-x="475" 
d="M231 -10q-64 0 -108 24t-67 72.5t-23 119.5q0 81 28 130.5t76 72t107 22.5q64 0 107.5 -25t66.5 -73.5t23 -119.5q0 -81 -27.5 -130t-75 -71t-107.5 -22zM134 -78l-49 26l40 82l16 16l152 339l5 19l43 87l49 -25l-41 -83l-16 -15l-151 -340l-5 -19zM240 38
q43 0 65.5 37.5t22.5 128.5q0 62 -9 101t-29.5 57.5t-54.5 18.5q-43 0 -65.5 -37t-22.5 -129q0 -61 9 -100t29 -58t55 -19zM172 495l140 162l65 -60q-17 -22 -45 -46.5t-62 -47.5t-68 -43z" />
    <glyph glyph-name="Adblgrave" unicode="&#x200;" horiz-adv-x="577" 
d="M148 225h233l20 -56h-269zM515 77q4 -14 21 -18l44 -12v-47h-254v47l71 13l-151 467h30l-145 -467l70 -13v-47h-205v47l48 12q15 4 20 18l168 497h112zM423 635l-34 -32q-23 16 -50 36.5t-51.5 42t-42.5 42.5l68 53zM254 637l-30 -34q-25 14 -53.5 34t-55 41.5
t-45.5 39.5l63 59z" />
    <glyph glyph-name="adblgrave" unicode="&#x201;" horiz-adv-x="450" 
d="M147 -8q-53 0 -86 28t-33 76q0 41 23 67t60 39.5t78 15.5l96 6v-44l-69 -6q-38 -1 -54.5 -19t-16.5 -46q0 -26 11.5 -39t37.5 -13t50.5 11.5t38.5 29.5l10 -25q-20 -38 -58 -59.5t-88 -21.5zM40 333q17 46 62 71.5t114 25.5q84 0 122 -39t38 -118v-195q0 -20 20 -22
l37 -5v-44q-13 -4 -36.5 -9t-43.5 -5q-36 0 -58.5 17t-28.5 56v202q0 48 -21.5 67t-61.5 19q-34 0 -63 -10.5t-54 -33.5zM330 491l-36 -28q-23 18 -47 44.5t-45.5 55.5t-35.5 52l73 42zM178 493l-35 -30q-23 17 -49 43t-49 53.5t-38 50.5l70 45z" />
    <glyph glyph-name="Ainvertedbreve" unicode="&#x202;" horiz-adv-x="577" 
d="M148 225h233l20 -56h-269zM515 77q4 -14 21 -18l44 -12v-47h-254v47l71 13l-151 467h30l-145 -467l70 -13v-47h-205v47l48 12q15 4 20 18l168 497h112zM290 751q59 0 98.5 -34t49.5 -81l-47 -24q-18 32 -45 46.5t-59 14.5q-31 0 -58.5 -14t-47.5 -47l-40 24
q13 49 52.5 82t96.5 33z" />
    <glyph glyph-name="ainvertedbreve" unicode="&#x203;" horiz-adv-x="450" 
d="M147 -8q-53 0 -86 28t-33 76q0 41 23 67t60 39.5t78 15.5l96 6v-44l-69 -6q-38 -1 -54.5 -19t-16.5 -46q0 -26 11.5 -39t37.5 -13t50.5 11.5t38.5 29.5l10 -25q-20 -38 -58 -59.5t-88 -21.5zM40 333q17 46 62 71.5t114 25.5q84 0 122 -39t38 -118v-195q0 -20 20 -22
l37 -5v-44q-13 -4 -36.5 -9t-43.5 -5q-36 0 -58.5 17t-28.5 56v202q0 48 -21.5 67t-61.5 19q-34 0 -63 -10.5t-54 -33.5zM220 617q57 0 96 -34t47 -84l-47 -24q-17 33 -42.5 48.5t-57.5 15.5q-31 0 -57.5 -15t-45.5 -49l-42 24q12 52 52 85t97 33z" />
    <glyph glyph-name="Edblgrave" unicode="&#x204;" horiz-adv-x="522" 
d="M405 422l-18 68q-6 17 -21 23q-11 3 -29 5.5t-37 2.5h-71v-200l163 6v-69l-163 4v-208h88q20 0 40 2t31 6q8 4 12 9t7 15l30 86l57 -9q0 -41 -4 -81t-11 -82h-444v47l57 11q18 3 18 21v411q0 18 -18 21l-57 12v49h426q4 -37 4 -74t-3 -76h-57zM404 635l-34 -32
q-23 16 -50 36.5t-51.5 42t-42.5 42.5l68 53zM235 637l-30 -34q-25 14 -53.5 34t-55 41.5t-45.5 39.5l63 59z" />
    <glyph glyph-name="edblgrave" unicode="&#x205;" horiz-adv-x="430" 
d="M34 206q0 108 53 166.5t149 58.5q80 0 120 -40t40 -105q0 -14 -1 -29.5t-4 -28.5h-278v45h177q1 5 1 9v10q0 39 -16 64.5t-49 25.5q-35 0 -55.5 -34t-20.5 -121q0 -59 11.5 -95.5t35.5 -53.5t62 -17q31 0 60 12t48 36l27 -19q-14 -48 -59 -74t-110 -26q-66 0 -108 27
t-62.5 75.5t-20.5 113.5zM337 491l-36 -28q-23 18 -47 44.5t-45.5 55.5t-35.5 52l73 42zM185 493l-35 -30q-23 17 -49 43t-49 53.5t-38 50.5l70 45z" />
    <glyph glyph-name="Einvertedbreve" unicode="&#x206;" horiz-adv-x="522" 
d="M405 422l-18 68q-6 17 -21 23q-11 3 -29 5.5t-37 2.5h-71v-200l163 6v-69l-163 4v-208h88q20 0 40 2t31 6q8 4 12 9t7 15l30 86l57 -9q0 -41 -4 -81t-11 -82h-444v47l57 11q18 3 18 21v411q0 18 -18 21l-57 12v49h426q4 -37 4 -74t-3 -76h-57zM271 751q59 0 98.5 -34
t49.5 -81l-47 -24q-18 32 -45 46.5t-59 14.5q-31 0 -58.5 -14t-47.5 -47l-40 24q13 49 52.5 82t96.5 33z" />
    <glyph glyph-name="einvertedbreve" unicode="&#x207;" horiz-adv-x="430" 
d="M34 206q0 108 53 166.5t149 58.5q80 0 120 -40t40 -105q0 -14 -1 -29.5t-4 -28.5h-278v45h177q1 5 1 9v10q0 39 -16 64.5t-49 25.5q-35 0 -55.5 -34t-20.5 -121q0 -59 11.5 -95.5t35.5 -53.5t62 -17q31 0 60 12t48 36l27 -19q-14 -48 -59 -74t-110 -26q-66 0 -108 27
t-62.5 75.5t-20.5 113.5zM227 617q57 0 96 -34t47 -84l-47 -24q-17 33 -42.5 48.5t-57.5 15.5q-31 0 -57.5 -15t-45.5 -49l-42 24q12 52 52 85t97 33z" />
    <glyph glyph-name="Idblgrave" unicode="&#x208;" horiz-adv-x="337" 
d="M303 523l-57 -12q-17 -3 -17 -21v-410q0 -19 17 -22l57 -11v-47h-268v47l57 11q18 3 18 21v411q0 18 -18 21l-57 12v49h268v-49zM295 635l-32 -32q-23 16 -50 36.5t-52 42t-42 42.5l66 53zM140 637l-29 -34q-24 14 -52.5 34t-55 41.5t-46.5 39.5l62 59z" />
    <glyph glyph-name="idblgrave" unicode="&#x209;" horiz-adv-x="283" 
d="M204 76q0 -19 18 -22l41 -7v-47h-232v47l41 7q18 3 18 22v255q0 19 -17 22l-46 8v48q36 11 80.5 15.5t80.5 5.5l16 -15v-339zM245 491l-36 -28q-23 18 -47 44.5t-45.5 55.5t-35.5 52l73 42zM93 493l-35 -30q-23 17 -49 43t-49 53.5t-38 50.5l70 45z" />
    <glyph glyph-name="Iinvertedbreve" unicode="&#x20a;" horiz-adv-x="337" 
d="M303 523l-57 -12q-17 -3 -17 -21v-410q0 -19 17 -22l57 -11v-47h-268v47l57 11q18 3 18 21v411q0 18 -18 21l-57 12v49h268v-49zM170 751q59 0 98.5 -34t49.5 -81l-47 -24q-18 32 -45 46.5t-59 14.5q-31 0 -58.5 -14t-47.5 -47l-40 24q13 49 52.5 82t96.5 33z" />
    <glyph glyph-name="iinvertedbreve" unicode="&#x20b;" horiz-adv-x="283" 
d="M204 76q0 -19 18 -22l41 -7v-47h-232v47l41 7q18 3 18 22v255q0 19 -17 22l-46 8v48q36 11 80.5 15.5t80.5 5.5l16 -15v-339zM135 617q52 0 86.5 -36t39.5 -85l-48 -21q-11 29 -31 46.5t-51 17.5q-30 0 -51.5 -17t-33.5 -47l-43 21q7 50 43 85.5t89 35.5z" />
    <glyph glyph-name="Odblgrave" unicode="&#x20c;" horiz-adv-x="582" 
d="M281 -9q-124 0 -183.5 76t-59.5 209q0 97 31 165t89.5 104t141.5 36q125 0 184.5 -76.5t59.5 -208.5q0 -97 -30.5 -165t-89.5 -104t-143 -36zM292 529q-60 0 -92 -58.5t-32 -187.5q0 -125 30.5 -183t90.5 -58t92 59t32 189q0 125 -30 182t-91 57zM425 635l-34 -32
q-23 16 -50 36.5t-51.5 42t-42.5 42.5l68 53zM256 637l-30 -34q-25 14 -53.5 34t-55 41.5t-45.5 39.5l63 59z" />
    <glyph glyph-name="odblgrave" unicode="&#x20d;" horiz-adv-x="475" 
d="M318 205q0 60 -7 99t-25.5 57.5t-50.5 18.5q-40 0 -59.5 -37t-19.5 -127q0 -61 7.5 -100t26 -57.5t50.5 -18.5q39 0 58.5 37t19.5 128zM33 206q0 81 28 130.5t76 72t107 22.5q64 0 107.5 -25t66.5 -73t23 -119q0 -82 -27.5 -131t-75 -71t-107.5 -22q-64 0 -108 24.5
t-67 72.5t-23 119zM350 491l-36 -28q-23 18 -47 44.5t-45.5 55.5t-35.5 52l73 42zM198 493l-35 -30q-23 17 -49 43t-49 53.5t-38 50.5l70 45z" />
    <glyph glyph-name="Oinvertedbreve" unicode="&#x20e;" horiz-adv-x="582" 
d="M281 -9q-124 0 -183.5 76t-59.5 209q0 97 31 165t89.5 104t141.5 36q125 0 184.5 -76.5t59.5 -208.5q0 -97 -30.5 -165t-89.5 -104t-143 -36zM292 529q-60 0 -92 -58.5t-32 -187.5q0 -125 30.5 -183t90.5 -58t92 59t32 189q0 125 -30 182t-91 57zM292 751q59 0 98.5 -34
t49.5 -81l-47 -24q-18 32 -45 46.5t-59 14.5q-31 0 -58.5 -14t-47.5 -47l-40 24q13 49 52.5 82t96.5 33z" />
    <glyph glyph-name="oinvertedbreve" unicode="&#x20f;" horiz-adv-x="475" 
d="M318 205q0 60 -7 99t-25.5 57.5t-50.5 18.5q-40 0 -59.5 -37t-19.5 -127q0 -61 7.5 -100t26 -57.5t50.5 -18.5q39 0 58.5 37t19.5 128zM33 206q0 81 28 130.5t76 72t107 22.5q64 0 107.5 -25t66.5 -73t23 -119q0 -82 -27.5 -131t-75 -71t-107.5 -22q-64 0 -108 24.5
t-67 72.5t-23 119zM240 617q57 0 96 -34t47 -84l-47 -24q-17 33 -42.5 48.5t-57.5 15.5q-31 0 -57.5 -15t-45.5 -49l-42 24q12 52 52 85t97 33z" />
    <glyph glyph-name="Rdblgrave" unicode="&#x210;" horiz-adv-x="590" 
d="M35 0v47l57 11q18 3 18 21v412q0 17 -18 20l-57 12v49h131q32 0 61 2t67 2q118 0 168.5 -35.5t50.5 -116.5q0 -48 -14.5 -78.5t-37 -47.5t-48 -25.5t-47.5 -13.5l-35 -13h-61.5h-57.5v50q12 -2 28.5 -3t32.5 -1h24q39 1 65 31t26 95q0 39 -11 63.5t-34.5 36t-61.5 11.5
q-15 0 -29 -1.5t-24 -2.5v-448q0 -16 19 -20l57 -10v-47h-269zM438 0q-16 0 -29 21.5t-28 56.5l-37 91q-15 38 -31 62t-34 31l73 17q44 -13 71 -35.5t48 -67.5l44 -95q6 -13 12 -18t17 -7l36 -9v-47h-142zM417 635l-34 -32q-23 16 -50 36.5t-51.5 42t-42.5 42.5l68 53z
M248 637l-30 -34q-25 14 -53.5 34t-55 41.5t-45.5 39.5l63 59z" />
    <glyph glyph-name="rdblgrave" unicode="&#x211;" horiz-adv-x="403" 
d="M179 309q16 35 39 62.5t50.5 43.5t57.5 16q12 0 29 -3t27 -8q3 -31 0 -73t-11 -80h-50l-13 47q-3 13 -9.5 17.5t-18.5 4.5q-20 0 -45 -11t-47 -37zM204 311v-235q0 -19 19 -22l65 -7v-47h-257v47l41 7q18 3 18 22v255q0 20 -17 23l-46 8v48q33 9 71 14t70 6l18 -14z
M332 491l-36 -28q-23 18 -47 44.5t-45.5 55.5t-35.5 52l73 42zM180 493l-35 -30q-23 17 -49 43t-49 53.5t-38 50.5l70 45z" />
    <glyph glyph-name="Rinvertedbreve" unicode="&#x212;" horiz-adv-x="590" 
d="M35 0v47l57 11q18 3 18 21v412q0 17 -18 20l-57 12v49h131q32 0 61 2t67 2q118 0 168.5 -35.5t50.5 -116.5q0 -48 -14.5 -78.5t-37 -47.5t-48 -25.5t-47.5 -13.5l-35 -13h-61.5h-57.5v50q12 -2 28.5 -3t32.5 -1h24q39 1 65 31t26 95q0 39 -11 63.5t-34.5 36t-61.5 11.5
q-15 0 -29 -1.5t-24 -2.5v-448q0 -16 19 -20l57 -10v-47h-269zM438 0q-16 0 -29 21.5t-28 56.5l-37 91q-15 38 -31 62t-34 31l73 17q44 -13 71 -35.5t48 -67.5l44 -95q6 -13 12 -18t17 -7l36 -9v-47h-142zM284 751q59 0 98.5 -34t49.5 -81l-47 -24q-18 32 -45 46.5t-59 14.5
q-31 0 -58.5 -14t-47.5 -47l-40 24q13 49 52.5 82t96.5 33z" />
    <glyph glyph-name="rinvertedbreve" unicode="&#x213;" horiz-adv-x="403" 
d="M179 309q16 35 39 62.5t50.5 43.5t57.5 16q12 0 29 -3t27 -8q3 -31 0 -73t-11 -80h-50l-13 47q-3 13 -9.5 17.5t-18.5 4.5q-20 0 -45 -11t-47 -37zM204 311v-235q0 -19 19 -22l65 -7v-47h-257v47l41 7q18 3 18 22v255q0 20 -17 23l-46 8v48q33 9 71 14t70 6l18 -14z
M222 617q57 0 96 -34t47 -84l-47 -24q-17 33 -42.5 48.5t-57.5 15.5q-31 0 -57.5 -15t-45.5 -49l-42 24q12 52 52 85t97 33z" />
    <glyph glyph-name="Udblgrave" unicode="&#x214;" horiz-adv-x="625" 
d="M592 572v-49l-41 -11q-17 -4 -17 -21v-281q0 -79 -27 -127t-76 -70t-117 -22q-115 0 -170.5 53.5t-55.5 171.5v275q0 16 -17 21l-38 11v49h255v-49l-60 -12q-18 -4 -18 -22v-284q0 -54 13 -91t40.5 -55t69.5 -18q70 0 97.5 44t27.5 119v286q0 18 -17 21l-61 12v49h212z
M455 635l-34 -32q-23 16 -50 36.5t-51.5 42t-42.5 42.5l68 53zM286 637l-30 -34q-25 14 -53.5 34t-55 41.5t-45.5 39.5l63 59z" />
    <glyph glyph-name="udblgrave" unicode="&#x215;" horiz-adv-x="520" 
d="M357 68q-26 -35 -60 -55.5t-90 -20.5q-66 0 -98 35.5t-32 110.5v195q0 17 -17 22l-41 9v48q35 9 78 13.5t78 4.5l15 -14v-262q0 -55 15.5 -76t50.5 -21q24 0 46 9t42 26zM499 7q-13 -4 -37 -9t-45 -5q-39 0 -60.5 20.5t-28.5 57.5v263q0 18 -17 21l-46 10v48
q37 8 81 12.5t81 4.5l15 -14v-338q0 -12 5 -16.5t14 -5.5l38 -5v-44zM366 491l-36 -28q-23 18 -47 44.5t-45.5 55.5t-35.5 52l73 42zM214 493l-35 -30q-23 17 -49 43t-49 53.5t-38 50.5l70 45z" />
    <glyph glyph-name="Uinvertedbreve" unicode="&#x216;" horiz-adv-x="625" 
d="M592 572v-49l-41 -11q-17 -4 -17 -21v-281q0 -79 -27 -127t-76 -70t-117 -22q-115 0 -170.5 53.5t-55.5 171.5v275q0 16 -17 21l-38 11v49h255v-49l-60 -12q-18 -4 -18 -22v-284q0 -54 13 -91t40.5 -55t69.5 -18q70 0 97.5 44t27.5 119v286q0 18 -17 21l-61 12v49h212z
M322 751q59 0 98.5 -34t49.5 -81l-47 -24q-18 32 -45 46.5t-59 14.5q-31 0 -58.5 -14t-47.5 -47l-40 24q13 49 52.5 82t96.5 33z" />
    <glyph glyph-name="uinvertedbreve" unicode="&#x217;" horiz-adv-x="520" 
d="M357 68q-26 -35 -60 -55.5t-90 -20.5q-66 0 -98 35.5t-32 110.5v195q0 17 -17 22l-41 9v48q35 9 78 13.5t78 4.5l15 -14v-262q0 -55 15.5 -76t50.5 -21q24 0 46 9t42 26zM499 7q-13 -4 -37 -9t-45 -5q-39 0 -60.5 20.5t-28.5 57.5v263q0 18 -17 21l-46 10v48
q37 8 81 12.5t81 4.5l15 -14v-338q0 -12 5 -16.5t14 -5.5l38 -5v-44zM256 617q57 0 96 -34t47 -84l-47 -24q-17 33 -42.5 48.5t-57.5 15.5q-31 0 -57.5 -15t-45.5 -49l-42 24q12 52 52 85t97 33z" />
    <glyph glyph-name="Scommaaccent" unicode="&#x218;" horiz-adv-x="476" 
d="M441 161q0 -41 -21 -80t-67 -64.5t-122 -25.5q-57 0 -105.5 13.5t-81.5 30.5q-2 38 0.5 79.5t8.5 74.5h68l14 -91q1 -8 4.5 -14t10.5 -13q12 -12 34.5 -22t50.5 -10q42 0 64.5 22t22.5 60q0 32 -16.5 54t-44 39t-62.5 34q-38 19 -72 40t-55.5 52.5t-21.5 79.5
q0 69 50 115t149 46q43 0 85.5 -8t74.5 -22q3 -36 0.5 -73.5t-7.5 -71.5h-67l-14 80q-2 10 -5.5 17t-10.5 12q-11 8 -28.5 13.5t-36.5 5.5q-37 0 -57.5 -20t-20.5 -53q0 -30 14.5 -50t43 -36t67.5 -36q41 -20 76 -44t56.5 -56.5t21.5 -77.5zM285 -111q-1 -37 -26.5 -65
t-60.5 -44l-25 27q13 10 23.5 22.5t10.5 25.5q0 11 -6 16.5t-10 9.5q-7 5 -13.5 13t-6.5 23q0 18 14.5 31.5t35.5 13.5q27 0 45.5 -20.5t18.5 -52.5z" />
    <glyph glyph-name="scommaaccent" unicode="&#x219;" horiz-adv-x="401" 
d="M41 22q-4 29 -3 59t5 57h58l15 -54q5 -21 17 -29q8 -6 24 -12t38 -6q30 0 46.5 15.5t16.5 39.5q0 21 -14.5 34.5t-39.5 25.5t-58 27q-45 22 -74 49t-29 76q0 58 42.5 92.5t123.5 34.5q35 0 72.5 -7t63.5 -18q2 -26 0.5 -55t-6.5 -56h-54l-15 51q-3 10 -6.5 16t-11.5 11
q-10 5 -21 8.5t-24 3.5q-26 1 -42 -12.5t-16 -38.5q0 -21 12.5 -34.5t32.5 -23.5t44 -20q34 -14 64.5 -31t49 -42.5t18.5 -64.5q0 -63 -49.5 -95.5t-126.5 -32.5q-45 0 -84.5 10t-68.5 22zM251 -111q-1 -37 -26.5 -65t-60.5 -44l-25 27q13 10 23.5 22.5t10.5 25.5
q0 11 -6 16.5t-10 9.5q-7 5 -13.5 13t-6.5 23q0 18 14.5 31.5t35.5 13.5q27 0 45.5 -20.5t18.5 -52.5z" />
    <glyph glyph-name="Tcommaaccent" unicode="&#x21a;" horiz-adv-x="571" 
d="M123 0v47l86 14q18 3 18 20v440h-35q-18 0 -33.5 -2t-25.5 -5q-15 -6 -18 -21l-28 -118h-59q-6 53 -6.5 99t5.5 98h518q5 -52 4 -98.5t-5 -98.5h-59l-30 119q-1 7 -5.5 12t-12.5 8q-20 7 -58 7h-34v-440q0 -17 18 -20l85 -14v-47h-325zM347 -111q-1 -37 -26.5 -65
t-60.5 -44l-25 27q13 10 23.5 22.5t10.5 25.5q0 11 -6 16.5t-10 9.5q-7 5 -13.5 13t-6.5 23q0 18 14.5 31.5t35.5 13.5q27 0 45.5 -20.5t18.5 -52.5z" />
    <glyph glyph-name="tcommaaccent" unicode="&#x21b;" horiz-adv-x="341" 
d="M77 357l-58 9v44l46 8q10 2 14.5 6.5t7.5 13.5l36 106h64l3 -123h121v-62h-119v-215q0 -44 13 -59.5t39 -15.5q17 0 35 6t32 20l24 -26q-18 -38 -55 -56.5t-84 -18.5q-36 0 -62.5 10.5t-41.5 37t-15 74.5v241zM239 -111q-1 -37 -26.5 -65t-60.5 -44l-25 27
q13 10 23.5 22.5t10.5 25.5q0 11 -6 16.5t-10 9.5q-7 5 -13.5 13t-6.5 23q0 18 14.5 31.5t35.5 13.5q27 0 45.5 -20.5t18.5 -52.5z" />
    <glyph glyph-name="Odieresismacron" unicode="&#x22a;" horiz-adv-x="582" 
d="M281 -9q-124 0 -183.5 76t-59.5 209q0 97 31 165t89.5 104t141.5 36q125 0 184.5 -76.5t59.5 -208.5q0 -97 -30.5 -165t-89.5 -104t-143 -36zM292 529q-60 0 -92 -58.5t-32 -187.5q0 -125 30.5 -183t90.5 -58t92 59t32 189q0 125 -30 182t-91 57zM196 613q-26 0 -41 16
t-15 40q0 25 15 41t41 16t41 -16t15 -41q0 -24 -15 -40t-41 -16zM386 613q-26 0 -41 16t-15 40q0 25 15 41t41 16t41 -16t15 -41q0 -24 -15 -40t-41 -16zM157 830h268v-65h-268v65z" />
    <glyph glyph-name="odieresismacron" unicode="&#x22b;" horiz-adv-x="475" 
d="M318 205q0 60 -7 99t-25.5 57.5t-50.5 18.5q-40 0 -59.5 -37t-19.5 -127q0 -61 7.5 -100t26 -57.5t50.5 -18.5q39 0 58.5 37t19.5 128zM33 206q0 81 28 130.5t76 72t107 22.5q64 0 107.5 -25t66.5 -73t23 -119q0 -82 -27.5 -131t-75 -71t-107.5 -22q-64 0 -108 24.5
t-67 72.5t-23 119zM154 472q-26 0 -41 15t-15 40q0 24 15 39.5t41 15.5q23 0 38.5 -15.5t15.5 -39.5q0 -25 -15.5 -40t-38.5 -15zM321 472q-25 0 -40 15t-15 40q0 24 15 39.5t40 15.5t40 -15.5t15 -39.5q0 -25 -15 -40t-40 -15zM107 685h259v-63h-259v63z" />
    <glyph glyph-name="Otildemacron" unicode="&#x22c;" horiz-adv-x="582" 
d="M281 -9q-124 0 -183.5 76t-59.5 209q0 97 31 165t89.5 104t141.5 36q125 0 184.5 -76.5t59.5 -208.5q0 -97 -30.5 -165t-89.5 -104t-143 -36zM292 529q-60 0 -92 -58.5t-32 -187.5q0 -125 30.5 -183t90.5 -58t92 59t32 189q0 125 -30 182t-91 57zM348 612
q-28 0 -49.5 12.5t-39.5 24.5t-37 12t-33.5 -13.5t-26.5 -31.5l-35 19q11 40 39.5 69t69.5 29q28 0 49.5 -12.5t40 -24.5t36.5 -12t32.5 13.5t27.5 31.5l34 -19q-10 -40 -38.5 -69t-69.5 -29zM157 834h268v-65h-268v65z" />
    <glyph glyph-name="otildemacron" unicode="&#x22d;" horiz-adv-x="475" 
d="M318 205q0 60 -7 99t-25.5 57.5t-50.5 18.5q-40 0 -59.5 -37t-19.5 -127q0 -61 7.5 -100t26 -57.5t50.5 -18.5q39 0 58.5 37t19.5 128zM33 206q0 81 28 130.5t76 72t107 22.5q64 0 107.5 -25t66.5 -73t23 -119q0 -82 -27.5 -131t-75 -71t-107.5 -22q-64 0 -108 24.5
t-67 72.5t-23 119zM290 468q-26 0 -46.5 13t-38 25.5t-35.5 12.5t-32.5 -14t-24.5 -33l-34 20q10 41 36.5 70.5t67.5 29.5q27 0 47.5 -13t38 -25.5t35.5 -12.5t32 14t25 33l35 -20q-11 -40 -37.5 -70t-68.5 -30zM107 697h259v-64h-259v64z" />
    <glyph glyph-name="Odotaccentmacron" unicode="&#x230;" horiz-adv-x="582" 
d="M281 -9q-124 0 -183.5 76t-59.5 209q0 97 31 165t89.5 104t141.5 36q125 0 184.5 -76.5t59.5 -208.5q0 -97 -30.5 -165t-89.5 -104t-143 -36zM292 529q-60 0 -92 -58.5t-32 -187.5q0 -125 30.5 -183t90.5 -58t92 59t32 189q0 125 -30 182t-91 57zM291 614q-28 0 -46 16
t-18 43t18 43.5t46 16.5q29 0 46.5 -16.5t17.5 -43.5t-17.5 -43t-46.5 -16zM157 830h268v-65h-268v65z" />
    <glyph glyph-name="odotaccentmacron" unicode="&#x231;" horiz-adv-x="475" 
d="M318 205q0 60 -7 99t-25.5 57.5t-50.5 18.5q-40 0 -59.5 -37t-19.5 -127q0 -61 7.5 -100t26 -57.5t50.5 -18.5q39 0 58.5 37t19.5 128zM33 206q0 81 28 130.5t76 72t107 22.5q64 0 107.5 -25t66.5 -73t23 -119q0 -82 -27.5 -131t-75 -71t-107.5 -22q-64 0 -108 24.5
t-67 72.5t-23 119zM238 467q-28 0 -46 16.5t-18 42.5q0 27 17.5 43t45.5 16t45.5 -16t17.5 -43q0 -26 -17.5 -42.5t-44.5 -16.5zM107 685h259v-63h-259v63z" />
    <glyph glyph-name="Ymacron" unicode="&#x232;" horiz-adv-x="544" 
d="M232 192l-172 304q-7 12 -22 16l-45 11v49h259v-49l-60 -14l129 -248h-34l121 248l-66 14v49h198v-49l-43 -10q-7 -2 -12.5 -6t-8.5 -10l-154 -305h-90zM127 0v47l70 14q18 3 18 20v156h122v-156q0 -17 18 -20l69 -14v-47h-297zM147 708h268v-68h-268v68z" />
    <glyph glyph-name="ymacron" unicode="&#x233;" horiz-adv-x="467" 
d="M18 -123q50 7 88.5 16.5t66.5 28.5t49.5 53t38.5 89l92 298l-54 11v48h163v-46l-29 -9q-8 -3 -13 -7t-8 -13l-121 -356q-31 -90 -72.5 -134t-105.5 -44q-24 0 -49 2.5t-46 6.5v56zM260 0h-73l-130 347q-6 15 -22 19l-28 9v46h227v-48l-56 -11l107 -315zM120 568h259v-68
h-259v68z" />
    <glyph glyph-name="jdotless" unicode="&#x237;" horiz-adv-x="259" 
d="M195 415v-376q0 -47 -6.5 -79t-19.5 -53.5t-34 -38.5q-27 -23 -63.5 -37.5t-75.5 -25.5l-22 48q43 24 66.5 48t33 55.5t9.5 77.5v297q0 19 -17 22l-47 8v48q36 11 80.5 15.5t80.5 5.5z" />
    <glyph glyph-name="schwa" unicode="&#x259;" horiz-adv-x="429" 
d="M197 -10q-78 0 -121.5 41t-43.5 121q0 18 1.5 35.5t4.5 30.5h284l1 -45h-182q-1 -7 -2 -16t-1 -19q0 -52 17.5 -75.5t48.5 -23.5q22 0 38.5 12.5t26 43.5t9.5 89q0 63 -12 101.5t-37 56t-63 17.5q-30 0 -55 -9.5t-43 -25.5l-27 25q22 40 64.5 61t97.5 21q62 0 104.5 -26
t65 -76t22.5 -120q0 -71 -24 -120t-68.5 -74t-105.5 -25z" />
    <glyph glyph-name="primemod" unicode="&#x2b9;" horiz-adv-x="191" 
d="M95 348l84 224h-105l-37 -224h58z" />
    <glyph glyph-name="doubleprimemod" unicode="&#x2ba;" horiz-adv-x="343" 
d="M248 348l84 224h-105l-37 -224h58zM95 348l84 224h-105l-37 -224h58z" />
    <glyph glyph-name="commaturnedmod" unicode="&#x2bb;" horiz-adv-x="188" 
d="M144 657l23 -30q-24 -23 -40.5 -43t-16.5 -38q0 -14 5.5 -18t14.5 -9q9 -7 17.5 -18.5t8.5 -30.5q0 -23 -16 -38t-40 -15q-28 0 -47 21.5t-19 61.5q0 35 16.5 64.5t41.5 53t52 39.5z" />
    <glyph glyph-name="apostrophemodifier" unicode="&#x2bc;" horiz-adv-x="178" 
d="M153 578q0 -47 -30.5 -86.5t-83.5 -63.5l-22 30q22 15 36.5 35.5t14.5 38.5q0 10 -4 15t-11 10q-9 7 -16 18t-7 26q0 24 17.5 39.5t40.5 15.5q26 0 45.5 -21t19.5 -57z" />
    <glyph glyph-name="ringhalfright" unicode="&#x2be;" horiz-adv-x="268" 
d="M55 636q10 2 20.5 3.5t23.5 1.5q56 0 92.5 -28t36.5 -89q0 -43 -19 -69t-49.5 -37.5t-63.5 -11.5q-22 0 -41 5v45q7 -2 12 -2.5t10 -0.5q30 0 47.5 15.5t17.5 47.5q0 30 -18 42t-44 12h-12t-13 -1v67z" />
    <glyph glyph-name="ringhalfleft" unicode="&#x2bf;" horiz-adv-x="268" 
d="M213 411q-10 -3 -20.5 -4t-22.5 -1q-57 0 -93.5 27.5t-36.5 89.5q0 42 19.5 68t49.5 38t63 12q22 0 41 -5v-45q-7 2 -12 2h-10q-30 0 -47.5 -15t-17.5 -47q0 -30 18 -42.5t44 -12.5q6 0 12 0.5t13 1.5v-67z" />
    <glyph glyph-name="circumflex" unicode="&#x2c6;" horiz-adv-x="364" 
d="M34 499l106 142l73 7l118 -146l-38 -36l-116 95l-107 -96z" />
    <glyph glyph-name="caron" unicode="&#x2c7;" horiz-adv-x="364" 
d="M336 627l-107 -141l-73 -7l-117 146l38 35l115 -95l108 96z" />
    <glyph glyph-name="verticallinemod" unicode="&#x2c8;" horiz-adv-x="199" 
d="M58 395h83l3 256h-89z" />
    <glyph glyph-name="firsttonechinese" unicode="&#x2c9;" horiz-adv-x="364" 
d="M52 568h259v-68h-259v68z" />
    <glyph glyph-name="secondtonechinese" unicode="&#x2ca;" 
d="M-65 498l140 162l65 -60q-17 -22 -45 -46.5t-62 -47.5t-68 -43z" />
    <glyph glyph-name="fourthtonechinese" unicode="&#x2cb;" 
d="M82 500l-32 -37q-34 20 -66 43t-58.5 47.5t-44.5 46.5l65 60z" />
    <glyph glyph-name="verticallinelowmod" unicode="&#x2cc;" horiz-adv-x="199" 
d="M58 -173h83l3 256h-89z" />
    <glyph glyph-name="breve" unicode="&#x2d8;" horiz-adv-x="364" 
d="M179 479q-56 0 -95.5 34t-47.5 84l47 24q17 -33 42.5 -49t57.5 -16q31 0 57.5 15.5t46.5 49.5l41 -24q-12 -52 -52 -85t-97 -33z" />
    <glyph glyph-name="dotaccent" unicode="&#x2d9;" horiz-adv-x="364" 
d="M256 544q0 -28 -18 -45t-47 -17q-30 0 -48 17t-18 45t18 44.5t48 16.5q29 0 47 -16.5t18 -44.5z" />
    <glyph glyph-name="ring" unicode="&#x2da;" horiz-adv-x="364" 
d="M181 471q-52 0 -79.5 25t-26.5 68q0 41 32.5 65t78.5 24q52 0 78 -26t26 -65q0 -42 -32.5 -66.5t-76.5 -24.5zM182 516q21 0 32.5 11t11.5 33q0 20 -10.5 34t-33.5 14q-21 0 -32 -11.5t-11 -33.5q0 -19 10.5 -33t32.5 -14z" />
    <glyph glyph-name="ogonek" unicode="&#x2db;" horiz-adv-x="364" 
d="M244 -161q-20 -13 -47.5 -20t-53.5 -7q-41 0 -69 18.5t-28 55.5q0 38 31.5 68t77.5 47l34 12l45 -9q-43 -12 -71 -37.5t-28 -53.5q0 -20 14 -29t35 -9q10 0 21 2.5t22 6.5z" />
    <glyph glyph-name="tilde" unicode="&#x2dc;" horiz-adv-x="364" 
d="M235 476q-26 0 -46.5 13t-38 26t-35.5 13t-32.5 -14.5t-24.5 -33.5l-34 20q10 41 36.5 73t67.5 32q27 0 47.5 -13t38 -25.5t35.5 -12.5t32 14t25 33l35 -19q-11 -41 -37.5 -73.5t-68.5 -32.5z" />
    <glyph glyph-name="hungarumlaut" unicode="&#x2dd;" horiz-adv-x="364" 
d="M65 491l91 166l73 -42q-14 -24 -35.5 -52.5t-46 -55t-46.5 -45.5zM217 493l101 161l70 -45q-15 -23 -38 -50.5t-49 -53t-49 -43.5z" />
    <glyph glyph-name="gravecomb" unicode="&#x300;" 
d="M82 500l-32 -37q-34 20 -66 43t-58.5 47.5t-44.5 46.5l65 60z" />
    <glyph glyph-name="acutecomb" unicode="&#x301;" 
d="M-65 498l140 162l65 -60q-17 -22 -45 -46.5t-62 -47.5t-68 -43z" />
    <glyph glyph-name="circumflexcomb" unicode="&#x302;" 
d="M-148 499l106 142l73 7l118 -146l-38 -36l-116 95l-107 -96z" />
    <glyph glyph-name="tildecomb" unicode="&#x303;" 
d="M53 476q-26 0 -46.5 13t-38 26t-35.5 13t-32.5 -14.5t-24.5 -33.5l-34 20q10 41 36.5 73t67.5 32q27 0 47.5 -13t38 -25.5t35.5 -12.5t32 14t25 33l35 -19q-11 -41 -37.5 -73.5t-68.5 -32.5z" />
    <glyph glyph-name="macroncomb" unicode="&#x304;" 
d="M-130 568h259v-68h-259v68z" />
    <glyph glyph-name="brevecomb" unicode="&#x306;" 
d="M-3 479q-56 0 -95.5 34t-47.5 84l47 24q17 -33 42.5 -49t57.5 -16q31 0 57.5 15.5t46.5 49.5l41 -24q-12 -52 -52 -85t-97 -33z" />
    <glyph glyph-name="dotaccentcomb" unicode="&#x307;" 
d="M74 544q0 -28 -18 -45t-47 -17q-30 0 -48 17t-18 45t18 44.5t48 16.5q29 0 47 -16.5t18 -44.5z" />
    <glyph glyph-name="dieresiscomb" unicode="&#x308;" 
d="M-29 540q0 -27 -15.5 -42.5t-40.5 -15.5q-26 0 -41.5 15.5t-15.5 42.5q0 26 16 41.5t41 15.5t40.5 -15.5t15.5 -41.5zM141 540q0 -27 -15 -42.5t-40 -15.5q-26 0 -41.5 15.5t-15.5 42.5q0 26 15.5 41.5t41.5 15.5q25 0 40 -15.5t15 -41.5z" />
    <glyph glyph-name="hookabovecomb" unicode="&#x309;" 
d="M100 581q0 -23 -12.5 -41.5t-43.5 -34.5q-14 -8 -17.5 -12t-3.5 -7t0.5 -7t1.5 -8l-37 -12q-9 10 -16 22t-7 23q-1 10 8 19.5t26 20.5q9 5 15 11t6 14q0 18 -22 18q-13 0 -29 -6.5t-31 -15.5l-24 48q20 17 46 27t54 10q41 0 63.5 -18.5t22.5 -50.5z" />
    <glyph glyph-name="ringcomb" unicode="&#x30a;" 
d="M-1 471q-52 0 -79.5 25t-26.5 68q0 41 32.5 65t78.5 24q52 0 78 -26t26 -65q0 -42 -32.5 -66.5t-76.5 -24.5zM0 516q21 0 32.5 11t11.5 33q0 20 -10.5 34t-33.5 14q-21 0 -32 -11.5t-11 -33.5q0 -19 10.5 -33t32.5 -14z" />
    <glyph glyph-name="hungarumlautcomb" unicode="&#x30b;" 
d="M-117 491l91 166l73 -42q-14 -24 -35.5 -52.5t-46 -55t-46.5 -45.5zM35 493l101 161l70 -45q-15 -23 -38 -50.5t-49 -53t-49 -43.5z" />
    <glyph glyph-name="caroncomb" unicode="&#x30c;" 
d="M154 627l-107 -141l-73 -7l-117 146l38 35l115 -95l108 96z" />
    <glyph glyph-name="dblgravecomb" unicode="&#x30f;" 
d="M113 491l-36 -28q-23 18 -47 44.5t-45.5 55.5t-35.5 52l73 42zM-39 493l-35 -30q-23 17 -49 43t-49 53.5t-38 50.5l70 45z" />
    <glyph glyph-name="breveinvertedcomb" unicode="&#x311;" 
d="M3 617q57 0 96 -34t47 -84l-47 -24q-17 33 -42.5 48.5t-57.5 15.5q-31 0 -57.5 -15t-45.5 -49l-42 24q12 52 52 85t97 33z" />
    <glyph glyph-name="horncomb" unicode="&#x31b;" 
d="M-29 347v70q5 -1 9 -1h8q17 0 25.5 8.5t8.5 26.5q0 19 -14 38t-30 34l52 50q31 -18 52 -41t21 -51q0 -26 -13.5 -48.5t-43 -43t-75.5 -42.5z" />
    <glyph glyph-name="dotbelowcomb" unicode="&#x323;" 
d="M0 -170q-30 0 -48 17t-18 44q0 28 18 44.5t48 16.5q29 0 47 -16.5t18 -44.5q0 -27 -18 -44t-47 -17z" />
    <glyph glyph-name="dieresisbelowcomb" unicode="&#x324;" 
d="M-85 -165q-26 0 -41.5 15.5t-15.5 41.5q0 27 16 42.5t41 15.5t40.5 -15.5t15.5 -42.5q0 -26 -15.5 -41.5t-40.5 -15.5zM86 -165q-26 0 -41.5 15.5t-15.5 41.5q0 27 15.5 42.5t41.5 15.5q25 0 40 -15.5t15 -42.5q0 -26 -15 -41.5t-40 -15.5z" />
    <glyph glyph-name="commaaccentcomb" unicode="&#x326;" 
d="M61 -111q-1 -37 -26.5 -65t-60.5 -44l-25 27q13 10 23.5 22.5t10.5 25.5q0 11 -6 16.5t-10 9.5q-7 5 -13.5 13t-6.5 23q0 18 14.5 31.5t35.5 13.5q27 0 45.5 -20.5t18.5 -52.5z" />
    <glyph glyph-name="cedillacomb" unicode="&#x327;" 
d="M21 19l-15 -51h6h7q30 -2 49 -19.5t19 -46.5q0 -42 -39 -67.5t-100 -25.5h-11t-10 1l-6 39q37 3 56.5 16.5t19.5 32.5q0 17 -13 25t-32 9l29 87h40z" />
    <glyph glyph-name="ogonekcomb" unicode="&#x328;" 
d="M62 -161q-20 -13 -47.5 -20t-53.5 -7q-41 0 -69 18.5t-28 55.5q0 38 31.5 68t77.5 47l34 12l45 -9q-43 -12 -71 -37.5t-28 -53.5q0 -20 14 -29t35 -9q10 0 21 2.5t22 6.5z" />
    <glyph glyph-name="brevebelowcomb" unicode="&#x32e;" 
d="M-3 -193q-56 0 -95.5 34.5t-47.5 83.5l47 24q17 -33 42.5 -48.5t57.5 -15.5q31 0 57.5 15t46.5 49l41 -24q-12 -52 -52 -85t-97 -33z" />
    <glyph glyph-name="macronbelowcomb" unicode="&#x331;" 
d="M-130 -81h259v-68h-259v68z" />
    <glyph glyph-name="strokeshortcomb" unicode="&#x335;" 
d="M-144 276h288v-57h-288v57z" />
    <glyph glyph-name="Delta" unicode="&#x394;" horiz-adv-x="545" 
d="M45 0l-22 56l192 518h113l194 -518l-22 -56h-455zM102 73h290l-163 454h30z" />
    <glyph glyph-name="Omega" unicode="&#x3a9;" horiz-adv-x="716" 
d="M51 0q-8 42 -12.5 84.5t-4.5 83.5l57 8l32 -80q3 -9 7 -14.5t13 -8.5q10 -4 29 -7t40 -3l78 -3l-9 -13q-53 22 -95 63.5t-66.5 96.5t-24.5 119q0 79 36 136t97.5 88t138.5 31q73 0 131.5 -28.5t93 -83t33.5 -130.5q0 -66 -25.5 -122.5t-67 -100t-90.5 -67.5l-15 11l76 3
q23 0 41.5 3t28.5 7q8 3 12 7.5t8 15.5l35 80l56 -8q-1 -41 -6.5 -83.5t-14.5 -84.5h-241l-32 62q58 55 81.5 120t23.5 127q0 60 -16 108t-47.5 76.5t-76.5 28.5q-39 0 -68 -22.5t-45 -64.5t-16 -99q0 -67 23.5 -138t84.5 -136l-32 -62h-251z" />
    <glyph glyph-name="mu" unicode="&#x3bc;" horiz-adv-x="519" 
d="M424 -9q-37 0 -60 31.5t-24 95.5h-5l-3 300l88 13l16 -15l-9 -286q-1 -39 10 -52.5t28 -13.5h46v-42q-18 -13 -42 -22t-45 -9zM79 -195l-16 15q1 50 1.5 104.5t1 106t0.5 91.5q0 52 -1.5 98.5t-2.5 94t-2 102.5l92 14l16 -15l-3 -222l-23 -109l23 -248zM230 -9
q-23 0 -46 12.5t-39 41.5t-18 79l38 73q0 -41 12.5 -66t31.5 -35.5t38 -10.5q18 0 36.5 9t33.5 29.5t23 51.5l14 -6q0 -57 -18 -97t-46.5 -60.5t-59.5 -20.5z" />
    <glyph glyph-name="pi" unicode="&#x3c0;" horiz-adv-x="539" 
d="M239 234q-12 -61 -31 -107t-46.5 -81t-65.5 -61l-67 61l1 21q46 21 88.5 75.5t70.5 148.5l18 70h57zM502 46q-25 -25 -60.5 -40.5t-67.5 -15.5q-36 0 -55 21.5t-19 64.5q0 14 2 35t4 39l24 211h70l-9 -233q-1 -31 5.5 -44.5t23.5 -13.5q11 0 29.5 4.5t35.5 13.5zM159 327
q-32 0 -52.5 -14t-38.5 -41l-41 19q17 70 53 100t103 30l324 1l16 -14l-25 -81h-339z" />
    <glyph glyph-name="macronacutecomb" unicode="&#x1dc4;" 
d="M-130 490v64h259v-64h-259zM-48 589l-30 36l126 146l64 -58q-29 -32 -68.5 -63t-91.5 -61z" />
    <glyph glyph-name="macrongravecomb" unicode="&#x1dc6;" 
d="M-130 554h259v-64h-259v64zM85 625l-30 -36q-51 30 -91 61t-69 63l64 58z" />
    <glyph glyph-name="Ccedillaacute" unicode="&#x1e08;" horiz-adv-x="528" 
d="M298 -9q-132 0 -196 73.5t-64 209.5q0 105 34.5 173t97 101t147.5 33q41 0 86.5 -7.5t84.5 -21.5q2 -35 0.5 -74.5t-8.5 -81.5h-70l-19 90q-3 8 -7 15t-13 13q-11 7 -29 12t-38 5q-62 0 -97 -56.5t-35 -186.5q0 -78 13.5 -133t43.5 -84t77 -29q20 0 39 5t33 17
q5 5 9 10.5t7 16.5l25 81l69 -6q2 -32 0.5 -69t-7.5 -75q-36 -13 -86 -22t-97 -9zM312 19l-15 -51h6h7q30 -2 49 -19.5t19 -46.5q0 -42 -39 -67.5t-100 -25.5h-11t-10 1l-6 39q37 3 56.5 16.5t19.5 32.5q0 17 -13 25t-32 9l29 87h40zM235 611l-20 40l186 122l51 -74
q-25 -18 -62.5 -34t-78 -30t-76.5 -24z" />
    <glyph glyph-name="ccedillaacute" unicode="&#x1e09;" horiz-adv-x="413" 
d="M33 204q0 71 26 121.5t72.5 78t109.5 27.5q38 0 75 -9t61 -22q2 -34 -0.5 -69t-7.5 -67h-56l-19 69q-4 12 -7 19t-8 12q-7 6 -18 10t-25 4q-35 0 -58 -36.5t-23 -119.5q0 -81 25.5 -121t79.5 -40q32 0 57 12t39 26l26 -21q-14 -39 -55.5 -63.5t-103.5 -24.5
q-65 0 -107 28t-62.5 76.5t-20.5 109.5zM236 19l-15 -51h6h7q30 -2 49 -19.5t19 -46.5q0 -42 -39 -67.5t-100 -25.5h-11t-10 1l-6 39q37 3 56.5 16.5t19.5 32.5q0 17 -13 25t-32 9l29 87h40zM163 498l140 162l65 -60q-17 -22 -45 -46.5t-62 -47.5t-68 -43z" />
    <glyph glyph-name="Ddotbelow" unicode="&#x1e0c;" horiz-adv-x="612" 
d="M168 572q36 0 67 2t63 2q140 0 208 -66.5t68 -204.5q0 -153 -76 -233t-209 -78q-16 1 -38.5 2t-44 2.5t-37.5 1.5h-134v47l59 11q16 3 16 19v416q0 15 -16 18l-59 12v49h133zM229 54q11 -4 29.5 -6t34.5 -2q48 1 81.5 24t51.5 75.5t18 140.5q0 117 -37 179t-121 62
q-21 0 -36 -2.5l-21 -3.5v-467zM299 -170q-30 0 -48.5 17t-18.5 45t18.5 45t48.5 17q31 0 49 -17t18 -45t-18 -45t-49 -17z" />
    <glyph glyph-name="ddotbelow" unicode="&#x1e0d;" horiz-adv-x="500" 
d="M198 -8q-47 0 -84 21.5t-58.5 67t-21.5 118.5q0 76 25.5 127.5t73.5 78t115 26.5q23 0 46.5 -4t36.5 -9l-12 -59q-8 8 -27 14t-39 6q-29 0 -51 -15t-35 -51.5t-13 -99.5q0 -58 10 -92t29.5 -49t44.5 -15q23 0 46.5 8.5t39.5 23.5l13 -18q-21 -34 -56 -56.5t-83 -22.5z
M422 639v-561q0 -12 5 -16.5t14 -5.5l38 -5v-44q-13 -4 -37 -9t-45 -5q-39 0 -60.5 20.5t-28.5 57.5v487q0 18 -17 21l-51 8v45q37 10 83 16t83 7zM248 -170q-30 0 -48 17t-18 44q0 28 18 44.5t48 16.5q29 0 47 -16.5t18 -44.5q0 -27 -18 -44t-47 -17z" />
    <glyph glyph-name="Dlinebelow" unicode="&#x1e0e;" horiz-adv-x="612" 
d="M168 572q36 0 67 2t63 2q140 0 208 -66.5t68 -204.5q0 -153 -76 -233t-209 -78q-16 1 -38.5 2t-44 2.5t-37.5 1.5h-134v47l59 11q16 3 16 19v416q0 15 -16 18l-59 12v49h133zM229 54q11 -4 29.5 -6t34.5 -2q48 1 81.5 24t51.5 75.5t18 140.5q0 117 -37 179t-121 62
q-21 0 -36 -2.5l-21 -3.5v-467zM165 -81h268v-68h-268v68z" />
    <glyph glyph-name="dlinebelow" unicode="&#x1e0f;" horiz-adv-x="500" 
d="M198 -8q-47 0 -84 21.5t-58.5 67t-21.5 118.5q0 76 25.5 127.5t73.5 78t115 26.5q23 0 46.5 -4t36.5 -9l-12 -59q-8 8 -27 14t-39 6q-29 0 -51 -15t-35 -51.5t-13 -99.5q0 -58 10 -92t29.5 -49t44.5 -15q23 0 46.5 8.5t39.5 23.5l13 -18q-21 -34 -56 -56.5t-83 -22.5z
M422 639v-561q0 -12 5 -16.5t14 -5.5l38 -5v-44q-13 -4 -37 -9t-45 -5q-39 0 -60.5 20.5t-28.5 57.5v487q0 18 -17 21l-51 8v45q37 10 83 16t83 7zM118 -81h259v-68h-259v68z" />
    <glyph glyph-name="Emacrongrave" unicode="&#x1e14;" horiz-adv-x="522" 
d="M405 422l-18 68q-6 17 -21 23q-11 3 -29 5.5t-37 2.5h-71v-200l163 6v-69l-163 4v-208h88q20 0 40 2t31 6q8 4 12 9t7 15l30 86l57 -9q0 -41 -4 -81t-11 -82h-444v47l57 11q18 3 18 21v411q0 18 -18 21l-57 12v49h426q4 -37 4 -74t-3 -76h-57zM136 704h268v-65h-268v65z
M354 747q-53 13 -109.5 32.5t-94.5 44.5l44 71l180 -109z" />
    <glyph glyph-name="emacrongrave" unicode="&#x1e15;" horiz-adv-x="430" 
d="M34 206q0 108 53 166.5t149 58.5q80 0 120 -40t40 -105q0 -14 -1 -29.5t-4 -28.5h-278v45h177q1 5 1 9v10q0 39 -16 64.5t-49 25.5q-35 0 -55.5 -34t-20.5 -121q0 -59 11.5 -95.5t35.5 -53.5t62 -17q31 0 60 12t48 36l27 -19q-14 -48 -59 -74t-110 -26q-66 0 -108 27
t-62.5 75.5t-20.5 113.5zM94 554h259v-64h-259v64zM309 625l-30 -36q-51 30 -91 61t-69 63l64 58z" />
    <glyph glyph-name="Emacronacute" unicode="&#x1e16;" horiz-adv-x="522" 
d="M405 422l-18 68q-6 17 -21 23q-11 3 -29 5.5t-37 2.5h-71v-200l163 6v-69l-163 4v-208h88q20 0 40 2t31 6q8 4 12 9t7 15l30 86l57 -9q0 -41 -4 -81t-11 -82h-444v47l57 11q18 3 18 21v411q0 18 -18 21l-57 12v49h426q4 -37 4 -74t-3 -76h-57zM136 639v65h268v-65h-268z
M194 747l-20 38l182 110l43 -71q-25 -16 -61 -30.5t-74 -26.5t-70 -20z" />
    <glyph glyph-name="emacronacute" unicode="&#x1e17;" horiz-adv-x="430" 
d="M34 206q0 108 53 166.5t149 58.5q80 0 120 -40t40 -105q0 -14 -1 -29.5t-4 -28.5h-278v45h177q1 5 1 9v10q0 39 -16 64.5t-49 25.5q-35 0 -55.5 -34t-20.5 -121q0 -59 11.5 -95.5t35.5 -53.5t62 -17q31 0 60 12t48 36l27 -19q-14 -48 -59 -74t-110 -26q-66 0 -108 27
t-62.5 75.5t-20.5 113.5zM94 490v64h259v-64h-259zM176 589l-30 36l126 146l64 -58q-29 -32 -68.5 -63t-91.5 -61z" />
    <glyph glyph-name="Ecedillabreve" unicode="&#x1e1c;" horiz-adv-x="522" 
d="M405 422l-18 68q-6 17 -21 23q-11 3 -29 5.5t-37 2.5h-71v-200l163 6v-69l-163 4v-208h88q20 0 40 2t31 6q8 4 12 9t7 15l30 86l57 -9q0 -41 -4 -81t-11 -82h-444v47l57 11q18 3 18 21v411q0 18 -18 21l-57 12v49h426q4 -37 4 -74t-3 -76h-57zM295 19l-15 -51h6h7
q30 -2 49 -19.5t19 -46.5q0 -42 -39 -67.5t-100 -25.5h-11t-10 1l-6 39q37 3 56.5 16.5t19.5 32.5q0 17 -13 25t-32 9l29 87h40zM269 617q-58 0 -98 33.5t-49 81.5l46 24q19 -32 46 -46.5t59 -14.5q30 0 57.5 14t47.5 47l41 -24q-13 -49 -53 -82t-97 -33z" />
    <glyph glyph-name="ecedillabreve" unicode="&#x1e1d;" horiz-adv-x="430" 
d="M34 206q0 108 53 166.5t149 58.5q80 0 120 -40t40 -105q0 -14 -1 -29.5t-4 -28.5h-278v45h177q1 5 1 9v10q0 39 -16 64.5t-49 25.5q-35 0 -55.5 -34t-20.5 -121q0 -59 11.5 -95.5t35.5 -53.5t62 -17q31 0 60 12t48 36l27 -19q-14 -48 -59 -74t-110 -26q-66 0 -108 27
t-62.5 75.5t-20.5 113.5zM241 19l-15 -51h6h7q30 -2 49 -19.5t19 -46.5q0 -42 -39 -67.5t-100 -25.5h-11t-10 1l-6 39q37 3 56.5 16.5t19.5 32.5q0 17 -13 25t-32 9l29 87h40zM221 479q-56 0 -95.5 34t-47.5 84l47 24q17 -33 42.5 -49t57.5 -16q31 0 57.5 15.5t46.5 49.5
l41 -24q-12 -52 -52 -85t-97 -33z" />
    <glyph glyph-name="Gmacron" unicode="&#x1e20;" horiz-adv-x="580" 
d="M276 -9q-78 0 -130.5 34.5t-80 99.5t-27.5 154q0 103 34.5 170t98.5 99.5t154 32.5q48 0 95 -9t84 -25q2 -35 -0.5 -71t-6.5 -72h-72l-19 80q-3 11 -7 17t-12 11q-11 8 -28.5 13.5t-41.5 5.5q-44 0 -76 -26t-48.5 -81.5t-16.5 -143.5q0 -69 12.5 -119.5t42.5 -78
t82 -27.5q41 0 71.5 16.5t49.5 47.5l19 -39q-24 -39 -67.5 -64t-109.5 -25zM491 -5l-69 57h-21v180l-80 8v52h233v-52l-39 -6v-226zM187 708h268v-68h-268v68z" />
    <glyph glyph-name="gmacron" unicode="&#x1e21;" horiz-adv-x="478" 
d="M451 -36q0 -49 -30 -86t-84.5 -57t-128.5 -20q-95 0 -138 32.5t-43 82.5q0 46 31.5 70t82.5 36l34 -3q-16 -12 -28 -32.5t-12 -51.5q0 -35 20.5 -57.5t72.5 -22.5q49 0 78.5 22.5t29.5 65.5q0 28 -15 42t-54 14h-81q-66 0 -95 21.5t-29 58.5q0 35 23 56t57 31l32 -8
q-16 -10 -23 -21.5t-7 -24.5q0 -20 18 -28t62 -8h79q72 0 110 -28t38 -84zM398 291q0 -67 -45 -108t-139 -41q-62 0 -100.5 17.5t-56 49t-17.5 71.5q0 49 22.5 82.5t65 51t100.5 17.5q80 0 125 -35t45 -105zM154 288q0 -51 17 -74.5t51 -23.5t49.5 23.5t15.5 72.5
q0 52 -16 75t-50 23q-21 0 -36 -9.5t-23 -30.5t-8 -56zM370 345l-28 22q16 29 38.5 46.5t46.5 17.5q10 0 20.5 -2.5t18.5 -4.5v-79h-96zM92 568h259v-68h-259v68z" />
    <glyph glyph-name="Hdotbelow" unicode="&#x1e24;" horiz-adv-x="679" 
d="M645 523l-58 -12q-17 -3 -17 -21v-411q0 -18 17 -21l58 -11v-47h-255v47l43 11q18 5 18 21v182h-222v-182q0 -18 17 -21l48 -11v-47h-259v47l57 11q18 3 18 21v411q0 18 -18 21l-57 12v49h259v-49l-49 -12q-16 -4 -16 -21v-169h222v169q0 16 -17 21l-45 12v49h256v-49z
M342 -170q-30 0 -48.5 17t-18.5 45t18.5 45t48.5 17q31 0 49 -17t18 -45t-18 -45t-49 -17z" />
    <glyph glyph-name="hdotbelow" unicode="&#x1e25;" horiz-adv-x="528" 
d="M21 0v47l40 7q19 3 19 21v486q0 18 -18 21l-49 8v45q36 10 82 14.5t82 5.5l16 -16v-563q0 -17 18 -22l29 -7v-47h-219zM293 0v47l29 7q8 3 13 7.5t5 14.5v183q0 54 -15.5 78t-53.5 24q-26 0 -52.5 -10.5t-47.5 -30.5l1 35q28 40 68 58t87 18q73 0 99.5 -41.5t26.5 -116.5
v-197q0 -19 18 -22l41 -7v-47h-219zM269 -170q-30 0 -48 17t-18 44q0 28 18 44.5t48 16.5q29 0 47 -16.5t18 -44.5q0 -27 -18 -44t-47 -17z" />
    <glyph glyph-name="Hbrevebelow" unicode="&#x1e2a;" horiz-adv-x="679" 
d="M645 523l-58 -12q-17 -3 -17 -21v-411q0 -18 17 -21l58 -11v-47h-255v47l43 11q18 5 18 21v182h-222v-182q0 -18 17 -21l48 -11v-47h-259v47l57 11q18 3 18 21v411q0 18 -18 21l-57 12v49h259v-49l-49 -12q-16 -4 -16 -21v-169h222v169q0 16 -17 21l-45 12v49h256v-49z
M341 -192q-58 0 -98 34t-49 81l46 24q19 -32 46 -46.5t59 -14.5q30 0 57.5 14t47.5 47l41 -24q-13 -49 -53 -82t-97 -33z" />
    <glyph glyph-name="hbrevebelow" unicode="&#x1e2b;" horiz-adv-x="528" 
d="M21 0v47l40 7q19 3 19 21v486q0 18 -18 21l-49 8v45q36 10 82 14.5t82 5.5l16 -16v-563q0 -17 18 -22l29 -7v-47h-219zM293 0v47l29 7q8 3 13 7.5t5 14.5v183q0 54 -15.5 78t-53.5 24q-26 0 -52.5 -10.5t-47.5 -30.5l1 35q28 40 68 58t87 18q73 0 99.5 -41.5t26.5 -116.5
v-197q0 -19 18 -22l41 -7v-47h-219zM266 -193q-56 0 -95.5 34.5t-47.5 83.5l47 24q17 -33 42.5 -48.5t57.5 -15.5q31 0 57.5 15t46.5 49l41 -24q-12 -52 -52 -85t-97 -33z" />
    <glyph glyph-name="Idieresisacute" unicode="&#x1e2e;" horiz-adv-x="337" 
d="M303 523l-57 -12q-17 -3 -17 -21v-410q0 -19 17 -22l57 -11v-47h-268v47l57 11q18 3 18 21v411q0 18 -18 21l-57 12v49h268v-49zM93 750l-20 38l182 110l43 -71q-25 -16 -61 -30.5t-74 -26.5t-70 -20zM82 613q-25 0 -40.5 16t-15.5 40q0 25 15.5 41t40.5 16
q26 0 41.5 -16t15.5 -41q0 -24 -15.5 -40t-41.5 -16zM256 613q-26 0 -41 16t-15 40q0 25 15 41t41 16q25 0 40.5 -16t15.5 -41q0 -24 -15.5 -40t-40.5 -16z" />
    <glyph glyph-name="idieresisacute" unicode="&#x1e2f;" horiz-adv-x="283" 
d="M204 76q0 -19 18 -22l41 -7v-47h-232v47l41 7q18 3 18 22v255q0 19 -17 22l-46 8v48q36 11 80.5 15.5t80.5 5.5l16 -15v-339zM107 597l-30 35l126 147l64 -59q-29 -32 -68.5 -63t-91.5 -60zM55 472q-26 0 -41 15t-15 41t15 41.5t41 15.5q23 0 38.5 -15.5t15.5 -41.5
t-15.5 -41t-38.5 -15zM211 472q-25 0 -40 15t-15 41t15 41.5t40 15.5t39.5 -15.5t14.5 -41.5t-14.5 -41t-39.5 -15z" />
    <glyph glyph-name="Ldotbelow" unicode="&#x1e36;" horiz-adv-x="509" 
d="M431 198l60 -8q0 -44 -2.5 -92.5t-12.5 -97.5h-441v47l57 11q18 3 18 21v412q0 18 -18 21l-57 11v49h287v-49l-76 -12q-17 -4 -17 -21v-435h76q24 0 42 2t29 7q16 6 21 23zM269 -170q-30 0 -48.5 17t-18.5 45t18.5 45t48.5 17q31 0 49 -17t18 -45t-18 -45t-49 -17z" />
    <glyph glyph-name="ldotbelow" unicode="&#x1e37;" horiz-adv-x="277" 
d="M195 76q0 -19 18 -22l47 -7v-47h-243v47l47 7q18 3 18 21v483q0 18 -18 21l-50 8v45q37 10 83 16t83 7l15 -16v-563zM135 -170q-30 0 -48 17t-18 44q0 28 18 44.5t48 16.5q29 0 47 -16.5t18 -44.5q0 -27 -18 -44t-47 -17z" />
    <glyph glyph-name="Llinebelow" unicode="&#x1e3a;" horiz-adv-x="509" 
d="M431 198l60 -8q0 -44 -2.5 -92.5t-12.5 -97.5h-441v47l57 11q18 3 18 21v412q0 18 -18 21l-57 11v49h287v-49l-76 -12q-17 -4 -17 -21v-435h76q24 0 42 2t29 7q16 6 21 23zM135 -81h268v-68h-268v68z" />
    <glyph glyph-name="llinebelow" unicode="&#x1e3b;" horiz-adv-x="277" 
d="M195 76q0 -19 18 -22l47 -7v-47h-243v47l47 7q18 3 18 21v483q0 18 -18 21l-50 8v45q37 10 83 16t83 7l15 -16v-563zM5 -81h259v-68h-259v68z" />
    <glyph glyph-name="Mdotbelow" unicode="&#x1e42;" horiz-adv-x="816" 
d="M730 79q3 -16 19 -20l54 -12v-47h-257v47l67 11l-69 485h21l-131 -522h-93l-157 522h24l-55 -485l78 -11v-47h-218v47l55 12q17 4 18 20l49 410q3 19 -16 22l-63 12v49h241l130 -463h-35l116 463h242v-49l-65 -12q-20 -3 -17 -22zM387 -170q-30 0 -48.5 17t-18.5 45
t18.5 45t48.5 17q31 0 49 -17t18 -45t-18 -45t-49 -17z" />
    <glyph glyph-name="mdotbelow" unicode="&#x1e43;" horiz-adv-x="784" 
d="M549 0v47l28 7q9 3 13.5 7.5t4.5 14.5v180q0 55 -16 80t-54 25q-23 0 -48 -9.5t-48 -30.5l-1 38q29 38 69 55t84 17q74 0 100.5 -42t26.5 -119v-194q0 -19 18 -22l42 -7v-47h-219zM31 0v47l42 7q17 3 17 22v255q0 19 -17 22l-46 8v48q35 10 74 15t74 6l17 -15l12 -73
v-266q0 -17 16 -22l30 -7v-47h-219zM297 0v47l28 7q8 3 13 7.5t5 14.5v183q0 54 -14.5 78t-52.5 24q-23 0 -49.5 -10t-45.5 -30l1 34q26 40 64.5 58t83.5 18q74 0 100 -41.5t26 -116.5v-197q0 -17 17 -22l29 -7v-47h-205zM394 -170q-30 0 -48 17t-18 44q0 28 18 44.5
t48 16.5q29 0 47 -16.5t18 -44.5q0 -27 -18 -44t-47 -17z" />
    <glyph glyph-name="Ndotaccent" unicode="&#x1e44;" horiz-adv-x="654" 
d="M573 511q-18 -3 -18 -21v-490h-106l-297 479l26 3v-403q0 -18 18 -21l66 -11v-47h-227v47l57 11q18 3 18 21v411q0 18 -18 21l-57 12v49h196l281 -451l-25 -3v372q0 18 -18 21l-60 12v49h216v-49zM396 686q0 -29 -18 -45.5t-49 -16.5q-30 0 -48.5 16.5t-18.5 45.5
q0 28 18.5 45t48.5 17q31 0 49 -17t18 -45z" />
    <glyph glyph-name="ndotaccent" unicode="&#x1e45;" horiz-adv-x="539" 
d="M302 0v47l30 7q9 2 13.5 7t4.5 15v182q0 55 -15.5 79t-52.5 24q-27 0 -53 -10.5t-48 -30.5l1 35q29 40 68.5 58t86.5 18q73 0 99.5 -41.5t26.5 -117.5v-196q0 -19 18 -22l41 -7v-47h-220zM31 0v47l42 7q17 3 17 22v255q0 19 -17 22l-46 8v48q35 10 74 15t74 6l17 -15
l12 -74v-265q0 -18 17 -22l30 -7v-47h-220zM346 544q0 -28 -18 -45t-47 -17q-30 0 -48 17t-18 45t18 44.5t48 16.5q29 0 47 -16.5t18 -44.5z" />
    <glyph glyph-name="Ndotbelow" unicode="&#x1e46;" horiz-adv-x="654" 
d="M573 511q-18 -3 -18 -21v-490h-106l-297 479l26 3v-403q0 -18 18 -21l66 -11v-47h-227v47l57 11q18 3 18 21v411q0 18 -18 21l-57 12v49h196l281 -451l-25 -3v372q0 18 -18 21l-60 12v49h216v-49zM339 -170q-30 0 -48.5 17t-18.5 45t18.5 45t48.5 17q31 0 49 -17t18 -45
t-18 -45t-49 -17z" />
    <glyph glyph-name="ndotbelow" unicode="&#x1e47;" horiz-adv-x="539" 
d="M302 0v47l30 7q9 2 13.5 7t4.5 15v182q0 55 -15.5 79t-52.5 24q-27 0 -53 -10.5t-48 -30.5l1 35q29 40 68.5 58t86.5 18q73 0 99.5 -41.5t26.5 -117.5v-196q0 -19 18 -22l41 -7v-47h-220zM31 0v47l42 7q17 3 17 22v255q0 19 -17 22l-46 8v48q35 10 74 15t74 6l17 -15
l12 -74v-265q0 -18 17 -22l30 -7v-47h-220zM277 -170q-30 0 -48 17t-18 44q0 28 18 44.5t48 16.5q29 0 47 -16.5t18 -44.5q0 -27 -18 -44t-47 -17z" />
    <glyph glyph-name="Nlinebelow" unicode="&#x1e48;" horiz-adv-x="654" 
d="M573 511q-18 -3 -18 -21v-490h-106l-297 479l26 3v-403q0 -18 18 -21l66 -11v-47h-227v47l57 11q18 3 18 21v411q0 18 -18 21l-57 12v49h196l281 -451l-25 -3v372q0 18 -18 21l-60 12v49h216v-49zM205 -81h268v-68h-268v68z" />
    <glyph glyph-name="nlinebelow" unicode="&#x1e49;" horiz-adv-x="539" 
d="M302 0v47l30 7q9 2 13.5 7t4.5 15v182q0 55 -15.5 79t-52.5 24q-27 0 -53 -10.5t-48 -30.5l1 35q29 40 68.5 58t86.5 18q73 0 99.5 -41.5t26.5 -117.5v-196q0 -19 18 -22l41 -7v-47h-220zM31 0v47l42 7q17 3 17 22v255q0 19 -17 22l-46 8v48q35 10 74 15t74 6l17 -15
l12 -74v-265q0 -18 17 -22l30 -7v-47h-220zM147 -81h259v-68h-259v68z" />
    <glyph glyph-name="Otildeacute" unicode="&#x1e4c;" horiz-adv-x="582" 
d="M281 -9q-124 0 -183.5 76t-59.5 209q0 97 31 165t89.5 104t141.5 36q125 0 184.5 -76.5t59.5 -208.5q0 -97 -30.5 -165t-89.5 -104t-143 -36zM292 529q-60 0 -92 -58.5t-32 -187.5q0 -125 30.5 -183t90.5 -58t92 59t32 189q0 125 -30 182t-91 57zM348 612
q-28 0 -49.5 12.5t-39.5 24.5t-37 12t-33.5 -13.5t-26.5 -31.5l-35 19q11 40 39.5 69t69.5 29q28 0 49.5 -12.5t40 -24.5t36.5 -12t32.5 13.5t27.5 31.5l34 -19q-10 -40 -38.5 -69t-69.5 -29zM224 757l-20 38l182 110l44 -71q-26 -16 -61.5 -30.5t-73.5 -26.5t-71 -20z" />
    <glyph glyph-name="otildeacute" unicode="&#x1e4d;" horiz-adv-x="475" 
d="M318 205q0 60 -7 99t-25.5 57.5t-50.5 18.5q-40 0 -59.5 -37t-19.5 -127q0 -61 7.5 -100t26 -57.5t50.5 -18.5q39 0 58.5 37t19.5 128zM33 206q0 81 28 130.5t76 72t107 22.5q64 0 107.5 -25t66.5 -73t23 -119q0 -82 -27.5 -131t-75 -71t-107.5 -22q-64 0 -108 24.5
t-67 72.5t-23 119zM290 468q-26 0 -46.5 13t-38 25.5t-35.5 12.5t-32.5 -14t-24.5 -33l-34 20q10 40 36.5 69.5t67.5 29.5q27 0 47.5 -13t38 -25.5t35.5 -12.5t32 14t25 33l35 -20q-11 -39 -37.5 -69t-68.5 -30zM211 607l-30 35l129 144l63 -59q-29 -31 -69.5 -61.5
t-92.5 -58.5z" />
    <glyph glyph-name="Otildedieresis" unicode="&#x1e4e;" horiz-adv-x="582" 
d="M281 -9q-124 0 -183.5 76t-59.5 209q0 97 31 165t89.5 104t141.5 36q125 0 184.5 -76.5t59.5 -208.5q0 -97 -30.5 -165t-89.5 -104t-143 -36zM292 529q-60 0 -92 -58.5t-32 -187.5q0 -125 30.5 -183t90.5 -58t92 59t32 189q0 125 -30 182t-91 57zM199 757q-26 0 -41 16.5
t-15 39.5q0 25 15 41t41 16q25 0 40.5 -16t15.5 -41q0 -23 -15.5 -39.5t-40.5 -16.5zM383 757q-25 0 -40.5 16.5t-15.5 39.5q0 25 15.5 41t40.5 16q26 0 41.5 -16t15.5 -41q0 -23 -15.5 -39.5t-41.5 -16.5zM348 612q-28 0 -49.5 12.5t-39.5 24.5t-37 12t-33.5 -13.5
t-26.5 -31.5l-35 19q11 40 39.5 69t69.5 29q28 0 49.5 -12.5t40 -24.5t36.5 -12t32.5 13.5t27.5 31.5l34 -19q-10 -40 -38.5 -69t-69.5 -29z" />
    <glyph glyph-name="otildedieresis" unicode="&#x1e4f;" horiz-adv-x="475" 
d="M318 205q0 60 -7 99t-25.5 57.5t-50.5 18.5q-40 0 -59.5 -37t-19.5 -127q0 -61 7.5 -100t26 -57.5t50.5 -18.5q39 0 58.5 37t19.5 128zM33 206q0 81 28 130.5t76 72t107 22.5q64 0 107.5 -25t66.5 -73t23 -119q0 -82 -27.5 -131t-75 -71t-107.5 -22q-64 0 -108 24.5
t-67 72.5t-23 119zM290 464q-26 0 -46.5 13t-38 25.5t-35.5 12.5t-32.5 -14t-24.5 -33l-34 20q10 40 36.5 69.5t67.5 29.5q27 0 47.5 -13t38 -25.5t35.5 -12.5t32 14t25 33l35 -20q-11 -39 -37.5 -69t-68.5 -30zM154 617q-26 0 -41 15t-15 40q0 24 15 39.5t41 15.5
q23 0 38.5 -15.5t15.5 -39.5q0 -25 -15.5 -40t-38.5 -15zM321 617q-25 0 -40 15t-15 40q0 24 15 39.5t40 15.5t40 -15.5t15 -39.5q0 -25 -15 -40t-40 -15z" />
    <glyph glyph-name="Omacrongrave" unicode="&#x1e50;" horiz-adv-x="582" 
d="M281 -9q-124 0 -183.5 76t-59.5 209q0 97 31 165t89.5 104t141.5 36q125 0 184.5 -76.5t59.5 -208.5q0 -97 -30.5 -165t-89.5 -104t-143 -36zM292 529q-60 0 -92 -58.5t-32 -187.5q0 -125 30.5 -183t90.5 -58t92 59t32 189q0 125 -30 182t-91 57zM157 704h268v-65h-268
v65zM375 747q-53 13 -109.5 32.5t-94.5 44.5l44 71l180 -109z" />
    <glyph glyph-name="omacrongrave" unicode="&#x1e51;" horiz-adv-x="475" 
d="M318 205q0 60 -7 99t-25.5 57.5t-50.5 18.5q-40 0 -59.5 -37t-19.5 -127q0 -61 7.5 -100t26 -57.5t50.5 -18.5q39 0 58.5 37t19.5 128zM33 206q0 81 28 130.5t76 72t107 22.5q64 0 107.5 -25t66.5 -73t23 -119q0 -82 -27.5 -131t-75 -71t-107.5 -22q-64 0 -108 24.5
t-67 72.5t-23 119zM107 554h259v-64h-259v64zM322 625l-30 -36q-51 30 -91 61t-69 63l64 58z" />
    <glyph glyph-name="Omacronacute" unicode="&#x1e52;" horiz-adv-x="582" 
d="M281 -9q-124 0 -183.5 76t-59.5 209q0 97 31 165t89.5 104t141.5 36q125 0 184.5 -76.5t59.5 -208.5q0 -97 -30.5 -165t-89.5 -104t-143 -36zM292 529q-60 0 -92 -58.5t-32 -187.5q0 -125 30.5 -183t90.5 -58t92 59t32 189q0 125 -30 182t-91 57zM157 639v65h268v-65
h-268zM215 747l-20 38l182 110l43 -71q-25 -16 -61 -30.5t-74 -26.5t-70 -20z" />
    <glyph glyph-name="omacronacute" unicode="&#x1e53;" horiz-adv-x="475" 
d="M318 205q0 60 -7 99t-25.5 57.5t-50.5 18.5q-40 0 -59.5 -37t-19.5 -127q0 -61 7.5 -100t26 -57.5t50.5 -18.5q39 0 58.5 37t19.5 128zM33 206q0 81 28 130.5t76 72t107 22.5q64 0 107.5 -25t66.5 -73t23 -119q0 -82 -27.5 -131t-75 -71t-107.5 -22q-64 0 -108 24.5
t-67 72.5t-23 119zM107 490v64h259v-64h-259zM189 589l-30 36l126 146l64 -58q-29 -32 -68.5 -63t-91.5 -61z" />
    <glyph glyph-name="Rdotbelow" unicode="&#x1e5a;" horiz-adv-x="590" 
d="M35 0v47l57 11q18 3 18 21v412q0 17 -18 20l-57 12v49h131q32 0 61 2t67 2q118 0 168.5 -35.5t50.5 -116.5q0 -48 -14.5 -78.5t-37 -47.5t-48 -25.5t-47.5 -13.5l-35 -13h-61.5h-57.5v50q12 -2 28.5 -3t32.5 -1h24q39 1 65 31t26 95q0 39 -11 63.5t-34.5 36t-61.5 11.5
q-15 0 -29 -1.5t-24 -2.5v-448q0 -16 19 -20l57 -10v-47h-269zM438 0q-16 0 -29 21.5t-28 56.5l-37 91q-15 38 -31 62t-34 31l73 17q44 -13 71 -35.5t48 -67.5l44 -95q6 -13 12 -18t17 -7l36 -9v-47h-142zM318 -170q-30 0 -48.5 17t-18.5 45t18.5 45t48.5 17q31 0 49 -17
t18 -45t-18 -45t-49 -17z" />
    <glyph glyph-name="rdotbelow" unicode="&#x1e5b;" horiz-adv-x="403" 
d="M179 309q16 35 39 62.5t50.5 43.5t57.5 16q12 0 29 -3t27 -8q3 -31 0 -73t-11 -80h-50l-13 47q-3 13 -9.5 17.5t-18.5 4.5q-20 0 -45 -11t-47 -37zM204 311v-235q0 -19 19 -22l65 -7v-47h-257v47l41 7q18 3 18 22v255q0 20 -17 23l-46 8v48q33 9 71 14t70 6l18 -14z
M157 -170q-30 0 -48 17t-18 44q0 28 18 44.5t48 16.5q29 0 47 -16.5t18 -44.5q0 -27 -18 -44t-47 -17z" />
    <glyph glyph-name="Rlinebelow" unicode="&#x1e5e;" horiz-adv-x="590" 
d="M35 0v47l57 11q18 3 18 21v412q0 17 -18 20l-57 12v49h131q32 0 61 2t67 2q118 0 168.5 -35.5t50.5 -116.5q0 -48 -14.5 -78.5t-37 -47.5t-48 -25.5t-47.5 -13.5l-35 -13h-61.5h-57.5v50q12 -2 28.5 -3t32.5 -1h24q39 1 65 31t26 95q0 39 -11 63.5t-34.5 36t-61.5 11.5
q-15 0 -29 -1.5t-24 -2.5v-448q0 -16 19 -20l57 -10v-47h-269zM438 0q-16 0 -29 21.5t-28 56.5l-37 91q-15 38 -31 62t-34 31l73 17q44 -13 71 -35.5t48 -67.5l44 -95q6 -13 12 -18t17 -7l36 -9v-47h-142zM184 -81h268v-68h-268v68z" />
    <glyph glyph-name="rlinebelow" unicode="&#x1e5f;" horiz-adv-x="403" 
d="M179 309q16 35 39 62.5t50.5 43.5t57.5 16q12 0 29 -3t27 -8q3 -31 0 -73t-11 -80h-50l-13 47q-3 13 -9.5 17.5t-18.5 4.5q-20 0 -45 -11t-47 -37zM204 311v-235q0 -19 19 -22l65 -7v-47h-257v47l41 7q18 3 18 22v255q0 20 -17 23l-46 8v48q33 9 71 14t70 6l18 -14z
M27 -81h259v-68h-259v68z" />
    <glyph glyph-name="Sdotaccent" unicode="&#x1e60;" horiz-adv-x="476" 
d="M441 161q0 -41 -21 -80t-67 -64.5t-122 -25.5q-57 0 -105.5 13.5t-81.5 30.5q-2 38 0.5 79.5t8.5 74.5h68l14 -91q1 -8 4.5 -14t10.5 -13q12 -12 34.5 -22t50.5 -10q42 0 64.5 22t22.5 60q0 32 -16.5 54t-44 39t-62.5 34q-38 19 -72 40t-55.5 52.5t-21.5 79.5
q0 69 50 115t149 46q43 0 85.5 -8t74.5 -22q3 -36 0.5 -73.5t-7.5 -71.5h-67l-14 80q-2 10 -5.5 17t-10.5 12q-11 8 -28.5 13.5t-36.5 5.5q-37 0 -57.5 -20t-20.5 -53q0 -30 14.5 -50t43 -36t67.5 -36q41 -20 76 -44t56.5 -56.5t21.5 -77.5zM311 686q0 -29 -18 -45.5
t-49 -16.5q-30 0 -48.5 16.5t-18.5 45.5q0 28 18.5 45t48.5 17q31 0 49 -17t18 -45z" />
    <glyph glyph-name="sdotaccent" unicode="&#x1e61;" horiz-adv-x="401" 
d="M41 22q-4 29 -3 59t5 57h58l15 -54q5 -21 17 -29q8 -6 24 -12t38 -6q30 0 46.5 15.5t16.5 39.5q0 21 -14.5 34.5t-39.5 25.5t-58 27q-45 22 -74 49t-29 76q0 58 42.5 92.5t123.5 34.5q35 0 72.5 -7t63.5 -18q2 -26 0.5 -55t-6.5 -56h-54l-15 51q-3 10 -6.5 16t-11.5 11
q-10 5 -21 8.5t-24 3.5q-26 1 -42 -12.5t-16 -38.5q0 -21 12.5 -34.5t32.5 -23.5t44 -20q34 -14 64.5 -31t49 -42.5t18.5 -64.5q0 -63 -49.5 -95.5t-126.5 -32.5q-45 0 -84.5 10t-68.5 22zM271 544q0 -28 -18 -45t-47 -17q-30 0 -48 17t-18 45t18 44.5t48 16.5
q29 0 47 -16.5t18 -44.5z" />
    <glyph glyph-name="Sdotbelow" unicode="&#x1e62;" horiz-adv-x="476" 
d="M441 161q0 -41 -21 -80t-67 -64.5t-122 -25.5q-57 0 -105.5 13.5t-81.5 30.5q-2 38 0.5 79.5t8.5 74.5h68l14 -91q1 -8 4.5 -14t10.5 -13q12 -12 34.5 -22t50.5 -10q42 0 64.5 22t22.5 60q0 32 -16.5 54t-44 39t-62.5 34q-38 19 -72 40t-55.5 52.5t-21.5 79.5
q0 69 50 115t149 46q43 0 85.5 -8t74.5 -22q3 -36 0.5 -73.5t-7.5 -71.5h-67l-14 80q-2 10 -5.5 17t-10.5 12q-11 8 -28.5 13.5t-36.5 5.5q-37 0 -57.5 -20t-20.5 -53q0 -30 14.5 -50t43 -36t67.5 -36q41 -20 76 -44t56.5 -56.5t21.5 -77.5zM224 -170q-30 0 -48.5 17
t-18.5 45t18.5 45t48.5 17q31 0 49 -17t18 -45t-18 -45t-49 -17z" />
    <glyph glyph-name="sdotbelow" unicode="&#x1e63;" horiz-adv-x="401" 
d="M41 22q-4 29 -3 59t5 57h58l15 -54q5 -21 17 -29q8 -6 24 -12t38 -6q30 0 46.5 15.5t16.5 39.5q0 21 -14.5 34.5t-39.5 25.5t-58 27q-45 22 -74 49t-29 76q0 58 42.5 92.5t123.5 34.5q35 0 72.5 -7t63.5 -18q2 -26 0.5 -55t-6.5 -56h-54l-15 51q-3 10 -6.5 16t-11.5 11
q-10 5 -21 8.5t-24 3.5q-26 1 -42 -12.5t-16 -38.5q0 -21 12.5 -34.5t32.5 -23.5t44 -20q34 -14 64.5 -31t49 -42.5t18.5 -64.5q0 -63 -49.5 -95.5t-126.5 -32.5q-45 0 -84.5 10t-68.5 22zM190 -170q-30 0 -48 17t-18 44q0 28 18 44.5t48 16.5q29 0 47 -16.5t18 -44.5
q0 -27 -18 -44t-47 -17z" />
    <glyph glyph-name="Sacutedotaccent" unicode="&#x1e64;" horiz-adv-x="476" 
d="M441 161q0 -41 -21 -80t-67 -64.5t-122 -25.5q-57 0 -105.5 13.5t-81.5 30.5q-2 38 0.5 79.5t8.5 74.5h68l14 -91q1 -8 4.5 -14t10.5 -13q12 -12 34.5 -22t50.5 -10q42 0 64.5 22t22.5 60q0 32 -16.5 54t-44 39t-62.5 34q-38 19 -72 40t-55.5 52.5t-21.5 79.5
q0 69 50 115t149 46q43 0 85.5 -8t74.5 -22q3 -36 0.5 -73.5t-7.5 -71.5h-67l-14 80q-2 10 -5.5 17t-10.5 12q-11 8 -28.5 13.5t-36.5 5.5q-37 0 -57.5 -20t-20.5 -53q0 -30 14.5 -50t43 -36t67.5 -36q41 -20 76 -44t56.5 -56.5t21.5 -77.5zM193 611l-20 40l186 122l50 -74
q-25 -18 -62.5 -34t-77.5 -30t-76 -24zM288 806q0 -25 -16.5 -40.5t-43.5 -15.5t-44 15.5t-17 40.5t17 40.5t44 15.5t43.5 -15.5t16.5 -40.5z" />
    <glyph glyph-name="sacutedotaccent" unicode="&#x1e65;" horiz-adv-x="401" 
d="M41 22q-4 29 -3 59t5 57h58l15 -54q5 -21 17 -29q8 -6 24 -12t38 -6q30 0 46.5 15.5t16.5 39.5q0 21 -14.5 34.5t-39.5 25.5t-58 27q-45 22 -74 49t-29 76q0 58 42.5 92.5t123.5 34.5q35 0 72.5 -7t63.5 -18q2 -26 0.5 -55t-6.5 -56h-54l-15 51q-3 10 -6.5 16t-11.5 11
q-10 5 -21 8.5t-24 3.5q-26 1 -42 -12.5t-16 -38.5q0 -21 12.5 -34.5t32.5 -23.5t44 -20q34 -14 64.5 -31t49 -42.5t18.5 -64.5q0 -63 -49.5 -95.5t-126.5 -32.5q-45 0 -84.5 10t-68.5 22zM156 498l140 162l66 -60q-17 -22 -45 -46.5t-62 -47.5t-69 -43zM232 666
q0 -26 -16.5 -41.5t-43.5 -15.5t-44 15.5t-17 41.5t17 41.5t44 15.5t43.5 -15.5t16.5 -41.5z" />
    <glyph glyph-name="Scarondotaccent" unicode="&#x1e66;" horiz-adv-x="476" 
d="M441 161q0 -41 -21 -80t-67 -64.5t-122 -25.5q-57 0 -105.5 13.5t-81.5 30.5q-2 38 0.5 79.5t8.5 74.5h68l14 -91q1 -8 4.5 -14t10.5 -13q12 -12 34.5 -22t50.5 -10q42 0 64.5 22t22.5 60q0 32 -16.5 54t-44 39t-62.5 34q-38 19 -72 40t-55.5 52.5t-21.5 79.5
q0 69 50 115t149 46q43 0 85.5 -8t74.5 -22q3 -36 0.5 -73.5t-7.5 -71.5h-67l-14 80q-2 10 -5.5 17t-10.5 12q-11 8 -28.5 13.5t-36.5 5.5q-37 0 -57.5 -20t-20.5 -53q0 -30 14.5 -50t43 -36t67.5 -36q41 -20 76 -44t56.5 -56.5t21.5 -77.5zM305 806q0 -25 -17 -40.5
t-44 -15.5q-26 0 -43 15.5t-17 40.5t17 40.5t43 15.5q27 0 44 -15.5t17 -40.5zM398 729l-113 -113l-74 -4l-121 114l33 38l126 -75l117 75z" />
    <glyph glyph-name="scarondotaccent" unicode="&#x1e67;" horiz-adv-x="401" 
d="M41 22q-4 29 -3 59t5 57h58l15 -54q5 -21 17 -29q8 -6 24 -12t38 -6q30 0 46.5 15.5t16.5 39.5q0 21 -14.5 34.5t-39.5 25.5t-58 27q-45 22 -74 49t-29 76q0 58 42.5 92.5t123.5 34.5q35 0 72.5 -7t63.5 -18q2 -26 0.5 -55t-6.5 -56h-54l-15 51q-3 10 -6.5 16t-11.5 11
q-10 5 -21 8.5t-24 3.5q-26 1 -42 -12.5t-16 -38.5q0 -21 12.5 -34.5t32.5 -23.5t44 -20q34 -14 64.5 -31t49 -42.5t18.5 -64.5q0 -63 -49.5 -95.5t-126.5 -32.5q-45 0 -84.5 10t-68.5 22zM351 622l-107 -136l-73 -7l-117 141l38 35l115 -92l108 93zM202 646q-27 0 -44 15.5
t-17 41.5q0 25 17 40.5t44 15.5t43.5 -15.5t16.5 -40.5q0 -26 -16.5 -41.5t-43.5 -15.5z" />
    <glyph glyph-name="Sdotbelowdotaccent" unicode="&#x1e68;" horiz-adv-x="476" 
d="M441 161q0 -41 -21 -80t-67 -64.5t-122 -25.5q-57 0 -105.5 13.5t-81.5 30.5q-2 38 0.5 79.5t8.5 74.5h68l14 -91q1 -8 4.5 -14t10.5 -13q12 -12 34.5 -22t50.5 -10q42 0 64.5 22t22.5 60q0 32 -16.5 54t-44 39t-62.5 34q-38 19 -72 40t-55.5 52.5t-21.5 79.5
q0 69 50 115t149 46q43 0 85.5 -8t74.5 -22q3 -36 0.5 -73.5t-7.5 -71.5h-67l-14 80q-2 10 -5.5 17t-10.5 12q-11 8 -28.5 13.5t-36.5 5.5q-37 0 -57.5 -20t-20.5 -53q0 -30 14.5 -50t43 -36t67.5 -36q41 -20 76 -44t56.5 -56.5t21.5 -77.5zM224 -170q-30 0 -48.5 17
t-18.5 45t18.5 45t48.5 17q31 0 49 -17t18 -45t-18 -45t-49 -17zM311 686q0 -29 -18 -45.5t-49 -16.5q-30 0 -48.5 16.5t-18.5 45.5q0 28 18.5 45t48.5 17q31 0 49 -17t18 -45z" />
    <glyph glyph-name="sdotbelowdotaccent" unicode="&#x1e69;" horiz-adv-x="401" 
d="M41 22q-4 29 -3 59t5 57h58l15 -54q5 -21 17 -29q8 -6 24 -12t38 -6q30 0 46.5 15.5t16.5 39.5q0 21 -14.5 34.5t-39.5 25.5t-58 27q-45 22 -74 49t-29 76q0 58 42.5 92.5t123.5 34.5q35 0 72.5 -7t63.5 -18q2 -26 0.5 -55t-6.5 -56h-54l-15 51q-3 10 -6.5 16t-11.5 11
q-10 5 -21 8.5t-24 3.5q-26 1 -42 -12.5t-16 -38.5q0 -21 12.5 -34.5t32.5 -23.5t44 -20q34 -14 64.5 -31t49 -42.5t18.5 -64.5q0 -63 -49.5 -95.5t-126.5 -32.5q-45 0 -84.5 10t-68.5 22zM190 -170q-30 0 -48 17t-18 44q0 28 18 44.5t48 16.5q29 0 47 -16.5t18 -44.5
q0 -27 -18 -44t-47 -17zM271 544q0 -28 -18 -45t-47 -17q-30 0 -48 17t-18 45t18 44.5t48 16.5q29 0 47 -16.5t18 -44.5z" />
    <glyph glyph-name="Tdotbelow" unicode="&#x1e6c;" horiz-adv-x="571" 
d="M123 0v47l86 14q18 3 18 20v440h-35q-18 0 -33.5 -2t-25.5 -5q-15 -6 -18 -21l-28 -118h-59q-6 53 -6.5 99t5.5 98h518q5 -52 4 -98.5t-5 -98.5h-59l-30 119q-1 7 -5.5 12t-12.5 8q-20 7 -58 7h-34v-440q0 -17 18 -20l85 -14v-47h-325zM286 -170q-30 0 -48.5 17t-18.5 45
t18.5 45t48.5 17q31 0 49 -17t18 -45t-18 -45t-49 -17z" />
    <glyph glyph-name="tdotbelow" unicode="&#x1e6d;" horiz-adv-x="341" 
d="M77 357l-58 9v44l46 8q10 2 14.5 6.5t7.5 13.5l36 106h64l3 -123h121v-62h-119v-215q0 -44 13 -59.5t39 -15.5q17 0 35 6t32 20l24 -26q-18 -38 -55 -56.5t-84 -18.5q-36 0 -62.5 10.5t-41.5 37t-15 74.5v241zM178 -170q-30 0 -48 17t-18 44q0 28 18 44.5t48 16.5
q29 0 47 -16.5t18 -44.5q0 -27 -18 -44t-47 -17z" />
    <glyph glyph-name="Tlinebelow" unicode="&#x1e6e;" horiz-adv-x="571" 
d="M123 0v47l86 14q18 3 18 20v440h-35q-18 0 -33.5 -2t-25.5 -5q-15 -6 -18 -21l-28 -118h-59q-6 53 -6.5 99t5.5 98h518q5 -52 4 -98.5t-5 -98.5h-59l-30 119q-1 7 -5.5 12t-12.5 8q-20 7 -58 7h-34v-440q0 -17 18 -20l85 -14v-47h-325zM152 -81h268v-68h-268v68z" />
    <glyph glyph-name="tlinebelow" unicode="&#x1e6f;" horiz-adv-x="341" 
d="M77 357l-58 9v44l46 8q10 2 14.5 6.5t7.5 13.5l36 106h64l3 -123h121v-62h-119v-215q0 -44 13 -59.5t39 -15.5q17 0 35 6t32 20l24 -26q-18 -38 -55 -56.5t-84 -18.5q-36 0 -62.5 10.5t-41.5 37t-15 74.5v241zM48 -81h259v-68h-259v68z" />
    <glyph glyph-name="Utildeacute" unicode="&#x1e78;" horiz-adv-x="625" 
d="M592 572v-49l-41 -11q-17 -4 -17 -21v-281q0 -79 -27 -127t-76 -70t-117 -22q-115 0 -170.5 53.5t-55.5 171.5v275q0 16 -17 21l-38 11v49h255v-49l-60 -12q-18 -4 -18 -22v-284q0 -54 13 -91t40.5 -55t69.5 -18q70 0 97.5 44t27.5 119v286q0 18 -17 21l-61 12v49h212z
M378 612q-28 0 -49.5 12.5t-39.5 24.5t-37 12t-33.5 -13.5t-26.5 -31.5l-35 19q11 40 39.5 69t69.5 29q28 0 49.5 -12.5t40 -24.5t36.5 -12t32.5 13.5t27.5 31.5l34 -19q-10 -40 -38.5 -69t-69.5 -29zM254 757l-20 38l182 110l44 -71q-26 -16 -61.5 -30.5t-73.5 -26.5
t-71 -20z" />
    <glyph glyph-name="utildeacute" unicode="&#x1e79;" horiz-adv-x="520" 
d="M357 68q-26 -35 -60 -55.5t-90 -20.5q-66 0 -98 35.5t-32 110.5v195q0 17 -17 22l-41 9v48q35 9 78 13.5t78 4.5l15 -14v-262q0 -55 15.5 -76t50.5 -21q24 0 46 9t42 26zM499 7q-13 -4 -37 -9t-45 -5q-39 0 -60.5 20.5t-28.5 57.5v263q0 18 -17 21l-46 10v48
q37 8 81 12.5t81 4.5l15 -14v-338q0 -12 5 -16.5t14 -5.5l38 -5v-44zM306 468q-26 0 -46.5 13t-38 25.5t-35.5 12.5t-32.5 -14t-24.5 -33l-34 20q10 40 36.5 69.5t67.5 29.5q27 0 47.5 -13t38 -25.5t35.5 -12.5t32 14t25 33l35 -20q-11 -39 -37.5 -69t-68.5 -30zM227 607
l-30 35l129 144l63 -59q-29 -31 -69.5 -61.5t-92.5 -58.5z" />
    <glyph glyph-name="Umacrondieresis" unicode="&#x1e7a;" horiz-adv-x="625" 
d="M592 572v-49l-41 -11q-17 -4 -17 -21v-281q0 -79 -27 -127t-76 -70t-117 -22q-115 0 -170.5 53.5t-55.5 171.5v275q0 16 -17 21l-38 11v49h255v-49l-60 -12q-18 -4 -18 -22v-284q0 -54 13 -91t40.5 -55t69.5 -18q70 0 97.5 44t27.5 119v286q0 18 -17 21l-61 12v49h212z
M187 639v65h268v-65h-268zM226 743q-26 0 -41 16.5t-15 39.5q0 25 15 41t41 16t41 -16t15 -41q0 -23 -15 -39.5t-41 -16.5zM416 743q-26 0 -41 16.5t-15 39.5q0 25 15 41t41 16t41 -16t15 -41q0 -23 -15 -39.5t-41 -16.5z" />
    <glyph glyph-name="umacrondieresis" unicode="&#x1e7b;" horiz-adv-x="520" 
d="M357 68q-26 -35 -60 -55.5t-90 -20.5q-66 0 -98 35.5t-32 110.5v195q0 17 -17 22l-41 9v48q35 9 78 13.5t78 4.5l15 -14v-262q0 -55 15.5 -76t50.5 -21q24 0 46 9t42 26zM499 7q-13 -4 -37 -9t-45 -5q-39 0 -60.5 20.5t-28.5 57.5v263q0 18 -17 21l-46 10v48
q37 8 81 12.5t81 4.5l15 -14v-338q0 -12 5 -16.5t14 -5.5l38 -5v-44zM170 704q23 0 38.5 -15.5t15.5 -39.5q0 -25 -15.5 -40t-38.5 -15q-26 0 -41 15t-15 40q0 24 15 39.5t41 15.5zM337 704q25 0 40 -15.5t15 -39.5q0 -25 -15 -40t-40 -15t-40 15t-15 40q0 24 15 39.5
t40 15.5zM123 490v64h259v-64h-259z" />
    <glyph glyph-name="Wgrave" unicode="&#x1e80;" horiz-adv-x="835" 
d="M431 395l-109 -397h-107l-152 495q-5 15 -19 18l-47 12v49h250v-49l-66 -14l118 -435h-16l111 396zM372 493q-4 14 -19 18l-34 12v49h243v-49l-72 -14l116 -436h-19l116 436l-66 14v49h198v-49l-49 -12q-7 -1 -12 -5.5t-7 -12.5l-140 -495h-107l-115 399zM514 650
l-23 -42q-35 13 -74 28t-75 32.5t-60 36.5l53 72z" />
    <glyph glyph-name="wgrave" unicode="&#x1e81;" horiz-adv-x="676" 
d="M562 362l-54 11v48h160v-46l-26 -9q-7 -2 -12.5 -6t-7.5 -12l-106 -354h-51zM235 -6h-71l-113 355q-5 13 -19 17l-26 9v46h206v-48l-52 -11l89 -320zM335 421h74l103 -378l-14 -49h-72l-111 372zM256 -6h-54l112 427h58zM434 500l-32 -37q-34 20 -66 43t-58.5 47.5
t-44.5 46.5l65 60z" />
    <glyph glyph-name="Wacute" unicode="&#x1e82;" horiz-adv-x="835" 
d="M431 395l-109 -397h-107l-152 495q-5 15 -19 18l-47 12v49h250v-49l-66 -14l118 -435h-16l111 396zM372 493q-4 14 -19 18l-34 12v49h243v-49l-72 -14l116 -436h-19l116 436l-66 14v49h198v-49l-49 -12q-7 -1 -12 -5.5t-7 -12.5l-140 -495h-107l-115 399zM350 611l-20 40
l186 122l51 -74q-25 -18 -62.5 -34t-78 -30t-76.5 -24z" />
    <glyph glyph-name="wacute" unicode="&#x1e83;" horiz-adv-x="676" 
d="M562 362l-54 11v48h160v-46l-26 -9q-7 -2 -12.5 -6t-7.5 -12l-106 -354h-51zM235 -6h-71l-113 355q-5 13 -19 17l-26 9v46h206v-48l-52 -11l89 -320zM335 421h74l103 -378l-14 -49h-72l-111 372zM256 -6h-54l112 427h58zM287 498l140 162l65 -60q-17 -22 -45 -46.5
t-62 -47.5t-68 -43z" />
    <glyph glyph-name="Wdieresis" unicode="&#x1e84;" horiz-adv-x="835" 
d="M431 395l-109 -397h-107l-152 495q-5 15 -19 18l-47 12v49h250v-49l-66 -14l118 -435h-16l111 396zM372 493q-4 14 -19 18l-34 12v49h243v-49l-72 -14l116 -436h-19l116 436l-66 14v49h198v-49l-49 -12q-7 -1 -12 -5.5t-7 -12.5l-140 -495h-107l-115 399zM381 677
q0 -26 -15 -42t-41 -16t-41 16t-15 42t15 41.5t41 15.5t41 -15.5t15 -41.5zM571 677q0 -26 -15 -42t-41 -16t-41 16t-15 42t15 41.5t41 15.5t41 -15.5t15 -41.5z" />
    <glyph glyph-name="wdieresis" unicode="&#x1e85;" horiz-adv-x="676" 
d="M562 362l-54 11v48h160v-46l-26 -9q-7 -2 -12.5 -6t-7.5 -12l-106 -354h-51zM235 -6h-71l-113 355q-5 13 -19 17l-26 9v46h206v-48l-52 -11l89 -320zM335 421h74l103 -378l-14 -49h-72l-111 372zM256 -6h-54l112 427h58zM323 540q0 -27 -15.5 -42.5t-40.5 -15.5
q-26 0 -41.5 15.5t-15.5 42.5q0 26 16 41.5t41 15.5t40.5 -15.5t15.5 -41.5zM493 540q0 -27 -15 -42.5t-40 -15.5q-26 0 -41.5 15.5t-15.5 42.5q0 26 15.5 41.5t41.5 15.5q25 0 40 -15.5t15 -41.5z" />
    <glyph glyph-name="Ydotaccent" unicode="&#x1e8e;" horiz-adv-x="544" 
d="M232 192l-172 304q-7 12 -22 16l-45 11v49h259v-49l-60 -14l129 -248h-34l121 248l-66 14v49h198v-49l-43 -10q-7 -2 -12.5 -6t-8.5 -10l-154 -305h-90zM127 0v47l70 14q18 3 18 20v156h122v-156q0 -17 18 -20l69 -14v-47h-297zM348 686q0 -29 -18 -45.5t-49 -16.5
q-30 0 -48.5 16.5t-18.5 45.5q0 28 18.5 45t48.5 17q31 0 49 -17t18 -45z" />
    <glyph glyph-name="ydotaccent" unicode="&#x1e8f;" horiz-adv-x="467" 
d="M18 -123q50 7 88.5 16.5t66.5 28.5t49.5 53t38.5 89l92 298l-54 11v48h163v-46l-29 -9q-8 -3 -13 -7t-8 -13l-121 -356q-31 -90 -72.5 -134t-105.5 -44q-24 0 -49 2.5t-46 6.5v56zM260 0h-73l-130 347q-6 15 -22 19l-28 9v46h227v-48l-56 -11l107 -315zM324 544
q0 -28 -18 -45t-47 -17q-30 0 -48 17t-18 45t18 44.5t48 16.5q29 0 47 -16.5t18 -44.5z" />
    </font>
</defs>
</svg>
